<svg width="1128" height="1199" viewBox="0 0 1128 1199" fill="none" xmlns="http://www.w3.org/2000/svg">
<g opacity="0.5">
<path d="M10.8336 1191.48C7.04116 1185.92 5 1179.23 5 1172.36V1031.89C5 1013.86 18.8013 999.235 35.8262 999.235H707.424C714.19 999.235 720.768 1001.59 726.144 1005.95L950.122 1187.29C955.498 1191.64 962.075 1194 968.841 1194H1092.17C1109.19 1194 1123 1179.38 1123 1161.34V687.261C1123 669.226 1109.19 654.606 1092.17 654.606H730.624C722.449 654.606 714.608 651.165 708.827 645.041L315.135 227.988C309.354 221.866 306.106 213.562 306.106 204.897V37.6551C306.106 19.6251 319.907 4.99997 336.932 4.99997H886.5" stroke="#33284C" stroke-width="10" stroke-miterlimit="10" stroke-linecap="round"/>
</g>
</svg>
