<?xml version="1.0" encoding="UTF-8"?>
<svg xmlns="http://www.w3.org/2000/svg" width="1443" height="444" viewBox="0 0 1443 444" fill="none">
  <path d="M132.667 92.5333C111.067 99.4666 97.4666 116.4 94.5333 140C92.9333 153.067 93.5999 335.867 95.3333 341.6C96.2666 345.333 98.6666 346.667 98.6666 343.6C98.6666 342.8 105.867 338.133 114.667 333.467C123.333 328.667 130.267 324.4 129.867 323.867C129.6 323.333 130 322.4 130.8 321.867C131.867 321.333 132 321.467 131.467 322.4C129.867 324.933 131.467 324.267 144 317.2C150.533 313.467 155.6 309.867 155.2 309.2C154.8 308.533 155.6 308.4 156.8 308.933C158.267 309.467 158.8 309.2 158.267 308.4C157.733 307.6 158.4 307.067 159.733 307.2C160.933 307.2 161.867 306.533 161.6 305.6C161.467 304.533 161.867 304.133 162.667 304.667C163.467 305.2 166.267 304.267 168.8 302.8C174.4 299.467 175.6 299.333 173.333 302C172 303.6 172 304.4 173.467 306.267C175.067 308.4 175.067 308.533 173.2 307.067C171.467 305.733 170 306.667 163.6 313.067C159.333 317.333 156.4 321.333 156.933 322C157.6 322.533 157.333 322.667 156.533 322.267C154.933 321.333 147.6 328.267 148.667 329.733C149.067 330.267 148.933 330.4 148.4 330C147.067 328.933 136 340.267 136.933 341.733C137.333 342.533 137.067 342.667 136.267 342.133C135.467 341.733 130 346.667 123.867 353.333C117.867 359.867 112.133 365.333 111.2 365.333C109.333 365.333 101.6 354.133 100.533 349.733C99.8666 347.067 97.3333 345.333 97.3333 347.333C97.3333 351.333 108.933 368.4 110.8 367.2C111.467 366.8 111.867 367.2 111.733 368.133C111.467 368.933 112.133 370 113.2 370.4C114.4 370.8 114.667 370.4 114 369.333C113.333 368.133 113.467 367.867 114.533 368.533C115.333 369.067 115.733 370 115.333 370.667C114.533 372 118 374.933 119.067 373.733C119.6 373.333 120 373.467 120 374.267C120 375.067 123.2 377.067 127.067 378.8L134 382L238 382.4C339.6 382.667 342.133 382.667 350.933 380C356 378.533 360 376.667 360 376C360 374.267 360.533 374.267 352 377.467C345.867 379.867 340.8 380.4 321.067 381.067C302.533 381.6 297.333 381.333 297.333 380C297.333 379.067 296.4 378.667 295.2 379.2C293.333 379.867 293.2 379.733 294.533 378.133C295.733 376.8 294.933 372 291.333 357.333C286.667 338 282.667 314.8 282.667 306.133C282.667 303.467 282.267 301.333 281.733 301.333C281.067 301.333 280.4 290.267 280.133 276.667L279.733 252.133L288.8 239.2C293.733 232.133 296.933 226.8 295.867 227.333C294.8 228 295.733 226.8 297.733 224.933C299.867 222.933 301.067 220.667 300.533 219.733C300 218.933 300.133 218.667 300.933 219.067C301.733 219.6 303.867 217.6 305.867 214.667C307.733 211.733 309.067 209.333 308.8 209.333C308.4 209.333 309.6 207.733 311.467 205.733C313.333 203.6 314.4 201.333 314 200.133C313.333 198.533 313.6 198.4 314.8 199.6C316 200.8 316 202.133 314.8 205.333C314 207.733 313.6 210.133 314 210.667C314.4 211.333 314.133 212 313.333 212.267C312.667 212.4 311.867 214.8 311.733 217.333C311.467 219.867 310.8 222.4 310 222.933C309.2 223.467 308.667 232.667 308.667 245.6C308.667 263.867 309.2 269.333 311.733 279.6C313.467 286.4 315.467 292 316.133 292C316.933 292 317.2 292.533 316.667 293.2C315.733 294.933 322.533 312 324.267 312C324.933 312 325.067 312.533 324.667 313.333C324.267 314 324.533 314.667 325.333 314.667C326.133 314.667 326.533 315.2 326 315.867C325.6 316.667 328.267 322.667 332 329.467C341.333 346 345.467 352.133 346.933 351.2C347.6 350.8 348 351.467 347.733 352.8C347.467 354.4 348 355.2 349.067 354.933C350.133 354.8 350.533 355.2 350 356C349.467 356.8 351.6 360.667 354.533 364.667C357.6 368.667 360.4 372.933 360.8 374C361.467 375.6 362.8 375.067 367.733 371.6C375.333 366.267 383.467 353.867 385.333 344.8C386.267 340.133 386.667 304.933 386.4 233.867L386 130L381.6 121.067C376.133 110 367.333 101.2 356.133 95.5999L347.333 91.3333L242.667 91.0666C160.667 90.9333 136.8 91.2 132.667 92.5333ZM342.933 93.4666C351.067 95.2 365.333 102.267 365.333 104.533C365.333 105.467 355.733 115.733 344 127.333C328.8 142.533 323.2 149.067 324.133 150.133C325.067 151.2 324.8 151.6 323.067 151.467C321.733 151.467 320.8 152.133 321.067 153.067C321.2 154.133 320.933 154.533 320.267 154.133C319.6 153.733 313.733 158.933 307.2 165.467C300.667 172.133 290 182.133 283.333 187.733C276.8 193.2 271.2 198.933 271.2 200.267C271.067 201.6 270.533 203.2 270 203.733C269.467 204.267 269.333 203.6 269.6 202.4C269.733 201.2 269.6 200 269.2 199.733C268 199.067 260.133 206.267 261.067 207.333C261.6 208 261.333 208 260.4 207.467C258.267 206.267 247.733 213.2 248.933 215.067C249.333 215.867 249.067 216 248.267 215.467C247.467 215.067 242.4 217.467 237.067 220.933C231.733 224.4 225.6 228.133 223.333 229.333C204.133 239.467 190.667 247.333 190.667 248.267C190.667 248.933 190.133 249.067 189.333 248.667C188.667 248.267 188 248.533 188 249.467C188 250.4 187.6 250.8 187.2 250.267C186.4 249.467 173.467 255.333 172 257.2C171.6 257.6 170.667 258.133 169.733 258.267C165.6 259.067 148 268.933 148.933 270C149.6 270.533 149.333 270.667 148.4 270.267C147.067 269.467 122.933 280 103.733 289.733C100.267 291.6 97.0666 292.667 96.6666 292.267C96.2666 291.867 95.9999 257.6 95.9999 216.133C95.9999 135.333 96.2666 131.733 102.8 119.6C109.867 106.4 123.333 96.2666 137.733 93.3333C146.667 91.5999 334.533 91.7333 342.933 93.4666ZM371.2 109.2C372.667 110.8 373.2 112.533 372.533 113.6C372 114.533 362.8 126.933 352.267 141.067C341.733 155.067 333.6 167.333 334 168C334.533 168.8 334.133 169.2 333.333 169.067C332.4 168.8 330.533 170.267 328.933 172.267C326.8 175.2 326.533 176.267 327.867 177.867C329.067 179.333 329.067 180 327.867 180.8C326.933 181.333 326.667 181.2 327.2 180.267C327.6 179.467 327.333 178.4 326.533 177.867C324.667 176.8 317.2 185.333 318.267 187.2C318.8 187.867 318.533 188 317.733 187.6C317.067 187.2 314.533 188.933 312.133 191.467C308.267 195.467 308 196.4 309.467 198.4C311.2 200.4 311.067 200.533 308.933 198.8C306.8 197.067 305.867 197.6 299.733 203.467C290 212.667 289.333 213.333 288 213.333C287.333 213.333 288.267 208.933 290.133 203.6C292 198.4 293.6 193.467 293.733 192.667C293.867 192 294.8 190.533 295.733 189.467C296.667 188.533 297.2 186.8 296.8 185.733C296.4 184.667 296.533 184.133 297.2 184.533C297.867 184.933 300.267 182.4 302.533 178.933C304.8 175.333 308.133 171.067 310 169.333C311.867 167.6 313.333 165.467 313.333 164.4C313.333 163.467 314.133 162.667 315.067 162.533C317.467 162.4 330.933 146.8 330 145.333C329.6 144.667 330.133 144.4 331.2 144.8C332.4 145.2 333.467 144.533 334 142.8C334.4 141.2 335.333 140 335.867 140C336.4 140 343.733 132.533 352.133 123.333C360.4 114.133 367.6 106.667 368.133 106.667C368.533 106.667 370 107.867 371.2 109.2ZM381.2 125.067C384 132 384 134.133 384 237.067C384 304.267 383.467 343.733 382.667 346.933C381.333 351.733 375.6 359.867 376.267 356C376.533 354.933 375.867 354.133 374.933 354.4C374.133 354.533 373.467 354.133 373.6 353.467C374.267 351.333 367.867 343.867 366.267 344.8C365.333 345.333 365.067 345.333 365.6 344.667C366.667 343.467 352.133 324.533 350.533 324.933C349.867 325.2 349.467 324.8 349.733 324.133C350.267 322 341.067 308 339.6 308.933C338.8 309.333 338.667 309.067 339.2 308.267C339.733 307.333 338.533 304 336.533 300.667C334.533 297.2 330.667 288.8 328 281.733C325.2 274.8 322.667 269.6 322.4 270.133C322 270.8 322 270.533 322.133 269.6C322.4 268.667 321.6 263.6 320.533 258.267C317.6 245.333 317.6 219.6 320.533 206.8C323.467 193.333 331.2 177.467 343.2 160.133C348.8 152.133 353.333 145.2 353.333 144.8C353.333 144.4 354.8 142.533 356.667 140.533C358.533 138.533 359.733 136 359.467 135.067C359.067 134.133 359.333 133.467 359.867 133.733C360.533 133.867 364.267 129.6 368 124.133C375.867 113.067 376.533 113.067 381.2 125.067ZM301.333 173.867C301.333 174.133 300.267 175.2 299.067 176.133C296.933 177.867 296.8 177.733 298.533 175.6C300.267 173.467 301.333 172.8 301.333 173.867ZM292.667 186.4C292.267 186.8 291.2 186.4 290.267 185.467C289.067 184.133 289.2 184 291.067 184.8C292.4 185.2 293.067 186 292.667 186.4ZM283.2 194.8C282.8 195.467 281.867 195.733 281.2 195.2C280.533 194.8 280.267 193.867 280.8 193.2C281.2 192.533 282.133 192.267 282.8 192.8C283.467 193.2 283.733 194.133 283.2 194.8ZM315.067 194C314.667 195.2 314 195.867 313.733 195.467C313.333 195.067 313.467 194.267 314 193.467C315.2 191.333 316 191.733 315.067 194ZM276.933 198C276.933 199.067 276.4 199.6 275.733 199.2C275.2 198.8 274.667 199.2 274.667 200.133C274.667 201.067 274.267 201.333 273.867 200.933C273.333 200.4 273.733 199.2 274.667 198C276.667 195.467 276.933 195.467 276.933 198ZM290.4 199.333C290 199.733 289.2 199.067 288.8 197.733C288 195.867 288.133 195.733 289.467 196.933C290.4 197.867 290.8 198.933 290.4 199.333ZM280.4 208.8C277.867 215.067 276 221.333 276.4 222.8C276.8 224.133 276.667 225.2 276.133 225.067C273.2 224.8 271.867 225.6 272.533 227.467C272.933 228.667 272.8 229.067 271.867 228.667C270.267 227.6 260 234 260 236C260 236.8 259.6 237.2 258.933 236.933C258.4 236.8 252.933 240.133 246.933 244.4C237.067 251.333 236 252.4 237.6 254.4C239.2 256.4 239.067 256.533 237.067 254.8C233.867 252.4 234 250.8 237.6 247.067C240.133 244.267 240.267 243.6 238.667 242.533C237.067 241.467 237.2 241.333 239.333 241.867C241.467 242.533 244.533 239.867 253.733 230C260.8 222.4 265.067 216.667 264.533 215.867C264 214.933 264.133 214.667 264.933 215.067C266.267 215.867 273.6 209.2 273.6 207.067C273.6 206.533 274.133 206.133 274.8 206.267C275.333 206.533 277.6 204.533 279.6 202C281.6 199.467 283.733 197.333 284.133 197.333C284.533 197.333 282.933 202.533 280.4 208.8ZM301.333 209.333C299.067 212.267 297.6 214.667 298.133 214.667C298.667 214.667 298.267 215.467 297.067 216.267C293.733 219.067 285.2 230.8 285.867 231.867C286.267 232.4 285.6 232.933 284.533 232.933C282.933 232.933 282.667 231.867 283.467 227.467C283.867 224.4 284.8 221.2 285.2 220.267C286.667 217.733 304.267 202.533 305.067 203.333C305.333 203.6 303.733 206.267 301.333 209.333ZM258.533 215.467C255.333 218.667 252.667 222.133 252.667 223.067C252.667 224 251.333 226.533 249.6 228.667C247.733 231.2 247.067 231.6 248 229.733C248.667 228.133 250 226.4 250.667 226C251.467 225.6 252 224.533 252 223.6C252 222.8 247.467 226.533 242 232C233.733 240.267 232.4 242.133 233.733 243.867C235.067 245.733 235.067 245.733 233.2 244.267C231.467 242.933 230.8 242.933 229.467 244.4C228.667 245.467 228.533 246.667 229.067 247.2C229.6 247.733 229.067 248 228 247.733C226.8 247.467 226.133 248.133 226.4 249.333C226.667 250.4 226.4 250.933 225.867 250.4C224.8 249.2 221.333 251.733 221.333 253.6C221.333 254.4 222.4 254.133 223.733 253.2C225.6 251.733 225.6 251.867 223.467 254.267C222.133 256 220.533 256.933 219.867 256.667C218.667 255.867 207.2 267.867 207.733 269.467C207.867 270.133 207.2 270.533 206.4 270.4C205.467 270.133 204.8 270.8 205.067 271.733C205.2 272.533 204.933 273.2 204.4 273.067C202.667 272.533 194.667 277.333 194.667 278.8C194.667 279.6 194 279.733 193.333 279.333C192.533 278.933 191.6 279.467 191.2 280.533C190.8 281.733 189.867 282.267 189.2 282C188.667 281.6 186.933 282.267 185.6 283.6C184.267 284.933 182.533 286.133 181.867 286.267C181.067 286.4 174.533 289.867 167.333 294C160 298.267 149.333 304 143.733 307.067C138 310 133.733 312.933 134.267 313.733C134.667 314.533 134.4 314.667 133.6 314.133C131.867 313.067 122.533 317.333 123.467 318.933C123.867 319.467 123.2 319.6 122.133 319.2C121.067 318.8 119.067 319.6 117.733 320.933C116.4 322.267 114.667 323.333 114 323.333C113.333 323.333 109.6 325.067 105.733 327.067C101.867 329.067 98.1333 330.667 97.3333 330.667C96.5333 330.667 95.9999 326 95.9999 318.267L96.1333 306L110 299.467C117.6 295.867 123.6 292.4 123.2 291.733C122.8 291.2 123.6 291.067 124.8 291.6C126.533 292.267 126.8 292 126 290.667C125.333 289.6 125.467 289.2 126.4 289.867C127.2 290.267 132.4 288.533 137.867 285.733C146.4 281.467 147.6 280.533 146.267 278.8C144.933 276.933 144.933 276.933 146.933 278.4C148.933 280 150.267 279.6 157.333 275.733C161.733 273.2 164.933 270.667 164.4 270C163.733 269.467 164 269.333 164.8 269.733C166.933 270.933 178.933 264.133 177.867 262.4C177.333 261.467 177.6 261.333 178.4 261.867C180.4 263.067 194.8 254.533 193.733 252.8C193.333 252.133 193.6 252 194.4 252.533C196.4 253.733 229.6 232.133 228.4 230.267C228 229.467 228.267 229.333 229.2 229.867C230.133 230.533 235.333 227.6 241.867 222.933C248 218.533 254.4 214.267 255.867 213.333C257.467 212.533 258.267 211.2 257.867 210.4C257.333 209.6 257.467 209.333 258.133 209.733C258.933 210.133 260.267 210 261.333 209.333C265.467 206.8 264.133 209.733 258.533 215.467ZM282.667 215.2C282.667 215.6 282.133 216.267 281.333 216.667C280.667 217.067 280 216.8 280 216.133C280 215.333 280.667 214.667 281.333 214.667C282.133 214.667 282.667 214.933 282.667 215.2ZM257.467 223.067C256.133 224.267 256 224.133 256.8 222.267C257.2 220.933 258 220.267 258.4 220.667C258.8 221.067 258.4 222.133 257.467 223.067ZM273.067 232.267C272.667 233.2 271.6 238.133 270.667 243.333C269.467 249.333 267.467 254.533 265.2 257.867C263.067 260.667 261.733 263.6 262.133 264.267C262.533 264.933 262.267 265.2 261.6 265.067C259.733 264.533 242.4 287.733 243.333 289.333C243.867 290.133 243.733 290.667 243.067 290.533C240.4 290.133 239.733 290.8 241.333 292.667C242.8 294.4 242.667 294.533 241.067 294C238.8 293.067 231.333 301.867 232.533 303.867C232.933 304.533 232.267 305.867 230.933 306.8C228.8 308.533 228.8 308.533 230.667 306C232.533 303.467 232.533 303.467 230.267 305.2C228.933 306.267 228.267 308 228.667 309.2C229.067 310.267 229.067 310.8 228.533 310.4C227.333 309.2 226.667 310 210.533 331.333C196.133 350.4 192.533 355.867 193.067 357.733C193.2 358.4 192.8 358.533 192.133 358.133C191.467 357.6 189.6 359.067 188 361.333C185.467 364.8 185.333 365.733 186.933 367.733C188.4 369.733 188.4 369.867 186.533 368.267C184.533 366.8 183.733 367.333 180.133 372.267C178 375.467 175.467 378.8 174.667 379.6C171.467 383.467 137.067 380.933 126.133 376.267L120.8 373.867L128.933 365.333C142 351.333 145.333 347.067 144.267 346C143.733 345.333 144 345.333 144.8 345.733C146 346.4 186.533 304.133 185.6 302.933C185.333 302.8 187.333 300.667 189.867 298.4C192.533 296.133 194.267 293.6 193.733 292.933C193.333 292.133 193.6 292 194.267 292.4C196.133 293.6 204.267 284.267 203.2 282.4C202.667 281.6 202.8 281.333 203.6 281.733C204.4 282.267 206.4 281.067 208 279.333C209.733 277.467 214.267 273.867 218.133 271.2C222.133 268.533 224.933 265.733 224.4 264.933C224 264.133 224.267 264 225.067 264.533C226.8 265.6 240 256.533 240 254.267C240 253.467 240.4 253.2 240.8 253.733C242 254.8 250.8 248 250 246.667C249.6 246.133 250.4 245.733 251.733 245.867C253.067 245.867 253.867 245.2 253.6 244C253.333 242.933 253.6 242.4 254.133 242.933C255.067 244 259.467 241.2 266.533 234.8C271.333 230.533 274 229.467 273.067 232.267ZM244.8 235.2C244.933 236.133 244.267 236.933 243.2 236.933C242 236.933 241.733 236.4 242.667 235.333C243.333 234.4 243.733 233.333 243.333 232.933C242.933 232.4 243.067 232.267 243.6 232.667C244.133 233.067 244.667 234.133 244.8 235.2ZM215.333 237.333C214.933 238 213.733 238.667 212.933 238.667C212 238.667 212.133 238.133 213.333 237.333C215.867 235.733 216.4 235.733 215.333 237.333ZM280.533 242.133C280.933 243.2 280.8 243.733 280 243.333C279.2 242.933 278.667 242 278.667 241.2C278.667 239.333 279.6 239.733 280.533 242.133ZM201.867 243.733C202.267 244.4 201.733 244.933 200.667 244.933C199.6 244.933 199.067 244.4 199.467 243.733C199.867 243.2 200.4 242.667 200.667 242.667C200.933 242.667 201.467 243.2 201.867 243.733ZM197.2 249.733C197.2 250.8 196.933 250.8 196.4 249.6C195.867 248.267 195.067 248.4 192.8 250.267L190 252.667L192.533 249.733C195.067 246.667 197.467 246.8 197.2 249.733ZM232 248.533C232 248.8 230.933 249.867 229.733 250.8C227.6 252.533 227.467 252.4 229.2 250.267C230.933 248.133 232 247.467 232 248.533ZM273.867 251.467C274.267 252.533 274.133 253.067 273.333 252.667C272.533 252.267 272 251.333 272 250.533C272 248.667 272.933 249.067 273.867 251.467ZM184 254.133C184 255.2 181.467 255.867 180.8 254.933C180.4 254.267 180.933 253.733 182 253.733C183.067 253.733 184 254 184 254.133ZM230 254.533C230.4 255.2 230 256.267 229.2 256.8C228.267 257.333 228 257.2 228.533 256.267C228.933 255.6 228.533 254.533 227.733 254.267C226.533 253.733 226.4 253.467 227.6 253.467C228.4 253.333 229.467 253.867 230 254.533ZM180.667 260C181.067 260.8 180.533 260.933 179.467 260.533C177.067 259.6 176.667 258.667 178.533 258.667C179.333 258.667 180.267 259.2 180.667 260ZM174.667 263.6C174.667 264 173.867 264 172.8 263.6C171.867 263.2 170.133 263.6 169.2 264.4C167.733 265.733 167.733 265.6 169.2 263.733C170.667 261.733 174.667 261.733 174.667 263.6ZM216.8 268.667C216.667 269.733 216 271.067 215.333 271.6C214.8 272.133 214.667 271.867 215.2 270.933C215.733 270 215.467 269.333 214.4 269.333C213.2 269.333 213.2 268.933 214.667 268C217.2 266.4 217.2 266.267 216.8 268.667ZM155.333 275.733C154.933 276.133 153.867 275.733 152.933 274.8C151.733 273.467 151.867 273.333 153.733 274.133C155.067 274.533 155.733 275.333 155.333 275.733ZM264 274.933C264 274.133 264.4 273.333 265.067 273.333C265.6 273.333 266 290.533 266.133 311.467C266.133 332.667 266.8 350 267.467 350.4C268.133 350.933 268.667 354.933 268.667 359.333C268.8 363.733 269.067 370.267 269.333 374L269.867 380.667L230.933 381.067C209.467 381.2 192 381.067 192 380.533C192 380.133 198.667 370.133 206.667 358.4C217.733 342.267 221.067 336.533 220 335.333C218.933 334.133 218.933 333.333 220 332.667C220.8 332.133 221.2 332.267 221.067 332.933C220.8 333.467 221.2 334.133 221.733 334.4C222.933 334.8 238.667 312.933 238.667 311.067C238.667 310.4 238 310.933 237.2 312C236 313.733 235.867 313.733 236.4 312C236.667 310.933 237.733 310 238.8 310C239.867 310 240.667 308.933 240.667 307.733C240.667 306.533 241.2 305.067 241.867 304.4C242.533 303.867 242.667 304 242.133 304.933C241.6 305.867 241.467 306.667 241.733 306.667C243.2 306.667 253.333 290.533 252.667 289.333C252.133 288.533 252.4 288.133 253.067 288.267C255.333 288.933 262.667 277.733 261.867 275.067C261.2 273.067 261.333 272.933 262.533 274.667C263.467 276 264 276.133 264 274.933ZM141.867 279.733C142.267 280.4 141.733 280.933 140.667 280.933C139.6 280.933 139.067 280.4 139.467 279.733C139.867 279.2 140.4 278.667 140.667 278.667C140.933 278.667 141.467 279.2 141.867 279.733ZM131.6 282.133C131.2 282.533 130 282.667 129.067 282.267C128 281.867 128.4 281.467 129.867 281.467C131.333 281.333 132.133 281.733 131.6 282.133ZM254.667 283.467C254.667 284.533 252.133 285.2 251.467 284.267C251.067 283.6 251.6 283.067 252.667 283.067C253.733 283.067 254.667 283.333 254.667 283.467ZM197.467 289.733C196.133 290.933 196 290.8 196.8 288.933C197.2 287.6 198 286.933 198.4 287.333C198.8 287.733 198.4 288.8 197.467 289.733ZM247.6 291.333C247.6 292.4 247.067 292.933 246.4 292.533C245.733 292.133 245.6 291.2 246 290.533C247.2 288.8 247.6 289.067 247.6 291.333ZM97.4666 300.4C96.1333 301.6 95.9999 301.467 96.7999 299.6C97.1999 298.267 97.9999 297.6 98.3999 298C98.7999 298.4 98.3999 299.467 97.4666 300.4ZM163.6 300.4C163.6 301.333 162.4 302.133 161.067 302.133C158.667 302.133 158.667 302 160.8 300.4C162.133 299.467 163.2 298.667 163.333 298.667C163.467 298.667 163.6 299.467 163.6 300.4ZM246 299.867C244.8 300.933 241.2 301.2 242 300.133C242.267 299.6 243.467 299.067 244.667 299.067C245.733 299.067 246.4 299.467 246 299.867ZM173.467 310.267C175.2 312.4 175.067 312.533 173.067 310.8C170.8 309.067 170.133 308 171.2 308C171.467 308 172.533 309.067 173.467 310.267ZM326.667 308.533C326.667 308.933 326.133 309.6 325.333 310C324.667 310.4 324 310.133 324 309.467C324 308.667 324.667 308 325.333 308C326.133 308 326.667 308.267 326.667 308.533ZM223.333 321.2C223.733 321.867 223.6 322.8 222.933 323.2C222.267 323.6 221.733 323.067 221.733 322C221.733 319.733 222.133 319.467 223.333 321.2ZM160 328.533C160 328.8 158.667 328.8 157.067 328.667C155.467 328.533 154.133 327.467 153.867 326.267C153.6 324.267 153.867 324.267 156.8 326.267C158.533 327.333 160 328.4 160 328.533ZM123.2 326.4C123.467 326.933 122.667 327.467 121.333 327.467C120 327.467 119.2 326.933 119.467 326.4C119.867 325.867 120.667 325.333 121.333 325.333C122 325.333 122.8 325.867 123.2 326.4ZM108.933 334C108.933 335.067 108.4 335.6 107.733 335.2C107.067 334.8 106.933 333.867 107.333 333.2C108.533 331.467 108.933 331.733 108.933 334ZM216.133 334.267C217.867 336.4 217.733 336.533 215.733 334.8C213.467 333.067 212.8 332 213.867 332C214.133 332 215.2 333.067 216.133 334.267ZM102 335.733C101.6 336.133 100.533 335.733 99.5999 334.8C98.3999 333.467 98.5333 333.333 100.4 334.133C101.733 334.533 102.4 335.333 102 335.733ZM145.733 335.467C144.8 335.867 144.533 337.2 144.933 338.4C145.467 340.267 145.333 340.267 144.267 338.667C142.667 336.533 143.333 334.667 145.733 334.8C146.933 334.8 146.933 335.067 145.733 335.467ZM361.333 339.2C361.333 339.467 360.4 340.133 359.2 340.533C358.133 340.933 357.6 340.8 358 340C358.8 338.667 361.333 338.133 361.333 339.2ZM351.2 342.933C351.733 342.533 351.733 343.067 351.333 344.267C350.533 346.267 350.267 346.267 347.867 344.267C344.667 341.467 344.667 340.8 347.867 342.533C349.2 343.333 350.667 343.467 351.2 342.933ZM345.467 344.933C347.2 347.067 347.067 347.2 345.067 345.467C343.733 344.533 342.667 343.467 342.667 343.2C342.667 342.133 343.733 342.8 345.467 344.933ZM209.867 347.467C210.267 348.533 210.133 349.067 209.333 348.667C208.533 348.267 208 347.333 208 346.533C208 344.667 208.933 345.067 209.867 347.467ZM366.8 348.933C368.533 351.067 368.4 351.2 366.4 349.467C365.067 348.533 364 347.467 364 347.2C364 346.133 365.067 346.8 366.8 348.933ZM205.467 351.067C204.133 352.267 204 352.133 204.8 350.267C205.2 348.933 206 348.267 206.4 348.667C206.8 349.067 206.4 350.133 205.467 351.067ZM208.133 352.4C207.333 353.467 207.2 354.8 207.733 355.333C208.267 356 207.867 356 206.933 355.467C205.6 354.667 205.6 354 206.8 352.533C207.6 351.467 208.667 350.667 208.933 350.667C209.333 350.667 208.933 351.467 208.133 352.4ZM135.333 356C135.733 356.8 135.2 356.933 134.133 356.533C131.733 355.6 131.333 354.667 133.2 354.667C134 354.667 134.933 355.2 135.333 356ZM130.133 360.267C130.667 361.2 130.533 361.6 130 360.933C129.333 360.4 127.6 361.067 126.133 362.267C123.333 364.667 123.333 364.667 125.867 361.6C128.8 358.133 128.933 358.133 130.133 360.267ZM202.667 360.4C202.667 360.667 201.333 362 199.733 363.467L196.667 366L199.2 362.933C201.6 360.133 202.667 359.333 202.667 360.4ZM119.6 364.667C119.6 365.733 119.067 366.267 118.4 365.867C117.733 365.467 117.6 364.533 118 363.867C119.2 362.133 119.6 362.4 119.6 364.667ZM369.867 363.867C370.267 364.533 369.733 365.733 368.8 366.533C367.467 367.733 366.667 367.733 366 366.667C365.467 365.867 365.867 365.467 366.933 365.6C367.867 365.867 368.533 365.2 368.4 364.267C368 362.4 368.8 362.133 369.867 363.867Z" fill="white"></path>
  <path d="M1224.67 115.2C1207.47 119.333 1192.4 131.466 1184.4 147.6C1180.13 156.266 1179.47 159.066 1178.93 169.066C1178.53 178.533 1178.93 182 1181.2 188.266C1184.67 197.066 1192.13 205.2 1201.07 209.466C1214.13 215.866 1244.4 213.733 1245.87 206.266C1246.67 202.533 1249.33 186 1249.33 184.933C1249.33 184.533 1246.4 185.866 1242.8 188.133C1228.4 197.066 1209.73 193.733 1203.2 180.933C1200 174.933 1200.4 161.866 1204 154.266C1207.33 147.333 1215.47 139.333 1222.13 136.533C1227.47 134.266 1241.73 134.133 1245.73 136.133C1247.33 136.933 1250.27 139.066 1252.13 140.933L1255.73 144.266L1257.47 132.4C1258.53 126 1259.33 120.133 1259.33 119.333C1259.33 117.333 1245.33 113.466 1238 113.466C1234.4 113.6 1228.4 114.266 1224.67 115.2Z" fill="white"></path>
  <path d="M446 117.6C444.8 121.467 431.2 210.8 431.866 211.333C432.133 211.733 436.8 212 442 212H451.6L477.466 181.067C491.733 164.133 503.733 149.6 504.266 148.8C504.8 148 505.466 147.733 505.733 148C506.266 148.533 499.333 194.667 496.8 208.267L496 212H506.533C517.066 212 517.066 212 517.866 208.267C519.2 202.267 532 120 532 118C532 116.4 529.866 116 521.733 116L511.333 116.133L484.666 148C470 165.467 457.866 179.6 457.733 179.467C457.466 179.2 459.466 166 462 149.867C464.533 133.867 466.666 119.6 466.666 118.267C466.666 116.267 465.333 116 456.666 116C449.733 116 446.4 116.533 446 117.6Z" fill="white"></path>
  <path d="M548.8 117.6C547.867 120.533 534.667 206.267 534.667 209.2C534.667 211.733 535.333 212 544.667 212C553.867 212 554.667 211.733 555.333 208.933C556 206 561.333 172.667 561.333 171.333C561.333 170.933 570 170.667 580.667 170.667C591.333 170.667 600 171.067 600 171.6C600 172.267 598.533 181.2 596.933 191.733C595.2 202.133 594.133 210.933 594.4 211.333C594.8 211.733 599.467 212 604.8 212C613.867 212 614.667 211.733 615.333 208.933C615.733 207.333 619.2 185.733 623.067 160.933L630.133 115.867L619.467 116.267L608.667 116.667L605.733 134.667C604.133 144.533 602.8 152.8 602.8 152.933C602.667 153.2 594 153.333 583.333 153.333H564.133L564.8 149.6C565.067 147.6 566.533 139.2 567.867 130.933L570.133 116H559.733C552.533 116 549.067 116.533 548.8 117.6Z" fill="white"></path>
  <path d="M638 122.267C637.6 125.867 636.8 130 636.4 131.6C635.733 134.533 636 134.667 646.533 134.667C652.533 134.667 657.333 135.067 657.333 135.467C657.333 136.667 646.667 204.133 645.867 208.267L645.067 212H655.867C661.867 212 666.667 211.733 666.667 211.467C666.667 211.2 669.333 194 672.667 173.333C676 152.667 678.667 135.467 678.667 135.2C678.667 134.933 683.467 134.667 689.2 134.667C701.067 134.667 700.533 135.2 702 122.933L702.933 116H670.933H638.933L638 122.267Z" fill="white"></path>
  <path d="M712 116.667C712 116.933 708.667 138.133 704.667 163.467C700.667 188.933 697.333 210.267 697.333 210.933C697.333 211.467 709.6 212 724.533 212H751.733L752.534 208.267C752.933 206.267 753.6 202.133 754 198.933L754.933 193.333H738H721.067L721.733 189.467C722.133 187.467 722.933 182.667 723.467 178.8L724.4 172H740H755.733L756.667 164.933C757.067 161.2 757.867 156.933 758.133 155.6C758.8 153.6 757.467 153.333 743.333 153.333H727.733L728.667 145.733C730.133 134 728.933 134.667 747.333 134.667C765.867 134.667 764.4 135.6 766 122.933L766.934 116H739.467C724.4 116 712 116.267 712 116.667Z" fill="white"></path>
  <path d="M780.667 117.6C779.467 121.466 765.867 210.8 766.533 211.333C766.8 211.733 771.467 212 776.8 212C788.133 212 786.667 214.266 790.133 191.6L792.4 177.333H802.667C808.267 177.333 816.133 176.4 820.133 175.2C840.933 169.066 851.6 138.133 837.733 123.733C832 117.733 823.6 116 801.067 116C786.4 116 781.067 116.4 780.667 117.6ZM818.533 136.533C822.133 139.866 822.133 147.2 818.667 152.933C815.733 157.866 808.933 160.4 800.667 159.733L795.333 159.333L797.2 146.133L799.067 133.066L807.467 133.6C813.2 134 816.667 134.933 818.533 136.533Z" fill="white"></path>
  <path d="M851.6 117.733C851.2 118.799 850.533 122.933 850 127.066L849.066 134.533L859.6 134.933L870.133 135.333L864.4 170.666C861.333 190.133 858.8 207.333 858.8 209.066C858.666 211.999 858.933 212.133 869.066 211.733L879.333 211.333L885.333 173.066L891.333 134.666H902.266H913.066L914 127.599C914.4 123.866 915.2 119.599 915.466 118.266C916.133 116.133 914 115.999 884.266 115.999C858.666 115.999 852.133 116.399 851.6 117.733Z" fill="white"></path>
  <path d="M924.667 117.6C923.467 121.466 909.867 210.8 910.533 211.333C910.8 211.733 915.467 212 920.8 212C932.133 212 930.667 214.266 934.133 191.6L936.4 177.333H946.667C952.267 177.333 960.133 176.4 964.133 175.2C984.933 169.066 995.6 138.133 981.733 123.733C976 117.733 967.6 116 945.067 116C930.4 116 925.067 116.4 924.667 117.6ZM962.533 136.533C966.133 139.866 966.133 147.2 962.667 152.933C959.733 157.866 952.933 160.4 944.667 159.733L939.333 159.333L941.2 146.133L943.067 133.066L951.467 133.6C957.2 134 960.667 134.933 962.533 136.533Z" fill="white"></path>
  <path d="M1024.93 116.933C1023.87 118.667 976.533 205.867 974.8 208.933C973.2 212 973.2 212 984.666 212H996L1000.93 202L1005.87 192H1025.33H1044.8L1046.8 201.6L1048.67 211.333L1059.73 211.733C1068.67 212 1070.67 211.733 1070.67 210.133C1070.67 208.267 1051.47 123.867 1049.87 118.267C1049.2 116.4 1047.47 116 1037.33 116C1030.8 116 1025.2 116.4 1024.93 116.933ZM1037.33 155.333C1038.93 163.333 1040.53 171.067 1040.8 172.267C1041.47 174.4 1040.27 174.667 1028.8 174.667C1021.73 174.667 1016 174.4 1016 174C1016 172 1033.33 139.6 1034 140.267C1034.27 140.533 1035.73 147.2 1037.33 155.333Z" fill="white"></path>
  <path d="M1093.33 117.067C1093.33 117.733 1090 139.067 1086 164.533C1082 189.867 1078.67 211.067 1078.67 211.333C1078.67 211.733 1083.33 212 1089.2 212H1099.73L1102.67 192.267C1104.4 181.467 1106.13 172.133 1106.67 171.6C1107.07 171.067 1116 170.8 1126.27 170.933L1144.8 171.333L1141.87 190C1140.13 200.267 1138.67 209.467 1138.67 210.267C1138.67 211.467 1141.73 212 1149.33 212C1155.2 212 1160 211.467 1160 210.933C1160 210.267 1163.33 188.933 1167.33 163.467C1171.33 138.133 1174.67 116.933 1174.67 116.667C1174.67 116.267 1169.87 116 1164 116C1158.13 116 1153.33 116.4 1153.33 116.8C1153.33 117.333 1152 125.733 1150.53 135.467L1147.6 153.333H1128.53C1114 153.333 1109.33 152.933 1109.33 151.6C1109.33 150.8 1110.53 142.8 1112 134C1113.47 125.2 1114.67 117.6 1114.67 116.933C1114.67 116.4 1109.87 116 1104 116C1098.13 116 1093.33 116.533 1093.33 117.067Z" fill="white"></path>
  <path d="M804 266.666C780.267 271.6 759.867 292.533 756.133 315.866C753.6 331.466 757.867 344.533 768.667 354.533C779.2 364.133 792.8 367.866 808.933 365.333C847.2 359.333 871.733 318.8 856 287.866C852 280 843.467 272.533 835.2 269.333C826.667 266.133 812.4 264.933 804 266.666ZM826 289.733C836.133 295.466 840.267 305.6 837.467 318.133C831.467 344.533 795.333 355.066 781.6 334.4C774.533 323.733 778.133 305.466 789.2 295.733C799.867 286.4 815.467 283.733 826 289.733Z" fill="white"></path>
  <path d="M446 270.933C445.6 272.667 442.133 294.133 438.267 318.667L431.2 363.333L441.2 363.733C447.2 364 451.467 363.6 452 362.667C452.533 361.867 454.267 351.733 456 340C457.733 328.267 459.6 318.667 460 318.8C460.4 318.8 466.667 328.933 474 341.467L487.2 364H501.067C511.733 364 514.533 363.6 513.867 362.4C513.333 361.467 505.733 350.133 497.2 337.2L481.467 313.6L504.4 290.8L527.333 268H514H500.533L481.333 288.667C470.667 300.133 461.867 308.8 461.6 308.133C461.333 307.467 462.4 299.333 463.867 290.133C467.867 266 468.533 268 456.667 268C447.467 268 446.667 268.267 446 270.933Z" fill="white"></path>
  <path d="M542.933 315.066C528.933 341.066 517.333 362.666 517.333 363.2C517.333 363.733 522.267 364 528.4 363.733L539.333 363.333L544.4 353.6L549.467 344H568.667H587.867L589.333 351.6C592 364.933 590.8 364 603.467 364C614.533 364 614.667 364 614 360.933C613.6 359.333 608.533 337.866 602.933 313.333L592.667 268.666L580.667 268.266L568.667 267.866L542.933 315.066ZM580.533 308.533C582.533 317.2 584 324.8 584 325.466C584 326.133 578.267 326.666 571.2 326.666C564.133 326.666 558.667 326.266 558.933 325.6C561.067 320.666 576.533 292 576.8 292.4C577.067 292.533 578.667 299.866 580.533 308.533Z" fill="white"></path>
  <path d="M634.667 268.667C634.667 269.2 631.333 290.533 627.333 316C623.333 341.467 620 362.8 620 363.2C620 363.6 624.667 364 630.533 364H641.067L643.2 348.933C646.533 327.333 645.067 329.333 658 329.333C683.467 329.333 697.333 316.4 697.333 292.8C697.333 281.6 694.4 276.267 686 272C679.867 268.933 677.6 268.667 657.067 268.133C644.667 268 634.667 268.133 634.667 268.667ZM672.8 289.467C675.733 292.133 676.133 293.467 675.467 297.733C673.867 307.733 668 312 656 312H649.067L649.867 307.6C650.267 305.333 651.2 299.2 652.133 294.133L653.6 285.067L661.467 285.6C667.467 286 670.133 286.933 672.8 289.467Z" fill="white"></path>
  <path d="M704.133 312.933C700.267 337.733 696.8 359.333 696.4 360.933C695.733 363.867 696 364 706.4 364C717.067 364 717.067 364 717.867 360.267C718.8 356.133 729.333 289.2 729.333 287.6C729.333 287.067 736.4 286.667 745.2 286.667H760.933L762.267 277.333L763.467 268H737.333H711.2L704.133 312.933Z" fill="white"></path>
</svg>
