<svg version="1.1" xmlns="http://www.w3.org/2000/svg" xmlns:xlink="http://www.w3.org/1999/xlink" width="138" height="30" viewBox="0,0,256,55.64063"><g fill="#ffffff" fill-rule="nonzero" stroke="none" stroke-width="1" stroke-linecap="butt" stroke-linejoin="miter" stroke-miterlimit="10" stroke-dasharray="" stroke-dashoffset="0" font-family="none" font-weight="none" font-size="none" text-anchor="none" style="mix-blend-mode: normal"><g transform="translate(0.42017,-0.00577) scale(1.85507,1.85507)"><path d="M7.14347,0.04674h3.03113c0.0554,0 0.1201,0.0187 0.1663,0.05609l19.1294,13.29386c0.0739,0.0561 0.1294,0.1402 0.1294,0.2431v2.1221c0,0.2337 -0.2588,0.374 -0.4529,0.2431l-22.15119,-15.40668c-0.23103,-0.15893 -0.12013,-0.53288 0.16635,-0.53288zM48.3039,19.4266h-1.2475l-2.144,4.4033l-2.144,-4.4033h-1.3492v0.9816l2.5691,5.1512l-1.9222,3.459v0.9816h1.303l4.9348,-9.6479zM46.354,1.62667h3.1605v-1.57993h-8.1507v1.57993h3.1605v8.97473h1.8297zM51.2149,9.55438c0.5452,0.80402 1.3308,1.20602 2.3473,1.20602c0.9518,0 1.7189,-0.3553 2.2918,-1.06579c0.573,-0.7105 0.8687,-1.58928 0.8687,-2.64569c0,-1.04705 -0.2865,-1.92583 -0.8502,-2.62698c-0.573,-0.70115 -1.34,-1.05641 -2.3103,-1.05641c-1.0258,0 -1.8113,0.41135 -2.3658,1.23403l-0.1201,-1.06575h-1.5248v10.57339h1.6634zM51.7324,8.61016c-0.3511,-0.43939 -0.5175,-0.96292 -0.5175,-1.56124c0,-0.59831 0.1756,-1.12184 0.5175,-1.56123c0.3419,-0.42069 0.804,-0.63571 1.4047,-0.63571c0.6376,0 1.1182,0.21502 1.4324,0.64506c0.3234,0.43939 0.4805,0.95357 0.4805,1.55188c0,0.59832 -0.1571,1.12185 -0.4805,1.56124c-0.3235,0.43939 -0.7948,0.66376 -1.4324,0.66376c-0.5822,0 -1.0535,-0.22437 -1.4047,-0.66376zM62.2027,9.61982l0.1479,0.97228h1.4324v-4.32847c0,-0.94422 -0.2495,-1.66407 -0.7578,-2.15955c-0.5083,-0.49548 -1.2383,-0.73855 -2.2086,-0.73855c-0.3789,0 -0.7209,0.04675 -1.0351,0.13089c-0.3142,0.09348 -0.5637,0.18697 -0.7485,0.29915c-0.1848,0.11219 -0.3419,0.24307 -0.4898,0.3833c-0.1386,0.14958 -0.231,0.24307 -0.268,0.29916c-0.037,0.05609 -0.0647,0.10284 -0.0832,0.14023v0.92552h1.1829l0.0277,-0.04674c0.0185,-0.02805 0.0462,-0.06544 0.074,-0.10284c0.0277,-0.04674 0.0739,-0.09348 0.1201,-0.14958c0.0462,-0.05609 0.1109,-0.11218 0.1941,-0.16827c0.0739,-0.05609 0.1663,-0.10284 0.2587,-0.14958c0.0924,-0.0374 0.2033,-0.07479 0.3235,-0.10284c0.1201,-0.02804 0.2587,-0.03739 0.4066,-0.03739c0.8871,0 1.3307,0.47678 1.3307,1.421v0.3833l-0.1756,-0.04675c-0.1293,-0.02804 -0.3142,-0.05609 -0.5544,-0.08413c-0.2403,-0.02805 -0.4806,-0.0374 -0.7116,-0.0374c-0.9611,0 -1.6819,0.19632 -2.1625,0.57962c-0.4805,0.39265 -0.7115,0.90683 -0.7115,1.55189c0,0.59831 0.194,1.11249 0.5729,1.54253c0.3882,0.43 0.9611,0.6451 1.7281,0.6451c0.8964,0 1.5988,-0.3833 2.107,-1.14058zM59.4396,8.47928c0,-0.61702 0.4251,-0.92553 1.2753,-0.92553c0.536,0 1.0073,0.0561 1.3862,0.16828v0.33656c0,0.33655 -0.1479,0.64506 -0.4344,0.92552c-0.2864,0.28046 -0.6746,0.42069 -1.1644,0.42069c-0.7115,0 -1.0719,-0.30851 -1.0719,-0.92552zM67.3131,7.69399h2.9388v2.89811h1.6726v-7.05829h-1.6726v2.72982h-2.9388v-2.72982h-1.6634v7.05829h1.6634zM78.1439,10.6014c0.3419,-0.1028 0.6099,-0.215 0.7947,-0.3459c0.1848,-0.1309 0.3419,-0.27108 0.4806,-0.43936c0.1386,-0.16827 0.2217,-0.28981 0.2587,-0.35525c0.0277,-0.06544 0.0555,-0.12153 0.0739,-0.15893v-0.92552h-1.1644v0.02805c-0.0092,0.01869 -0.0184,0.04674 -0.0369,0.08414c-0.0185,0.03739 -0.037,0.07478 -0.0647,0.12153c-0.0185,0.03739 -0.0555,0.09349 -0.1017,0.14958c-0.0462,0.05609 -0.0924,0.11218 -0.1478,0.15893c-0.0555,0.04674 -0.1202,0.09348 -0.2033,0.14023c-0.074,0.04674 -0.1664,0.09348 -0.2588,0.13088c-0.0924,0.03739 -0.2125,0.06544 -0.3419,0.08414c-0.1294,0.01869 -0.268,0.02804 -0.4159,0.02804c-0.6006,0 -1.0719,-0.20567 -1.3862,-0.62636c-0.3234,-0.42069 -0.4805,-0.95357 -0.4805,-1.60798c0,-0.65441 0.1571,-1.19663 0.4805,-1.61732c0.3235,-0.4207 0.7856,-0.63572 1.3862,-0.63572c0.1756,0 0.342,0.0187 0.4991,0.04675c0.1571,0.03739 0.2864,0.07479 0.3881,0.12153c0.1016,0.05609 0.1941,0.11219 0.2772,0.18697c0.0832,0.06545 0.1479,0.14024 0.2033,0.19633c0.0462,0.06544 0.0924,0.12153 0.1202,0.17762c0.0277,0.05609 0.0554,0.09349 0.0647,0.12154l0.0092,0.05609h1.1644v-0.92552l-0.0555,-0.14023c-0.0462,-0.10284 -0.1293,-0.22437 -0.2587,-0.37395c-0.1294,-0.14958 -0.2865,-0.28981 -0.4713,-0.43004c-0.1848,-0.14023 -0.4528,-0.26177 -0.7948,-0.35525c-0.3419,-0.10284 -0.7208,-0.14958 -1.1366,-0.14958c-1.0812,0 -1.9407,0.35525 -2.5876,1.06575c-0.6376,0.7105 -0.9611,1.58928 -0.9611,2.65503c0,1.06575 0.305,1.95388 0.9242,2.65503c0.6099,0.70115 1.4878,1.04705 2.6245,1.04705c0.4158,0 0.7947,-0.0561 1.1366,-0.1589zM83.014,4.94547h2.8001v5.63723h1.6726v-7.05824h-6.1454v7.05824h1.6635v-5.63723zM95.1662,9.68526c0.6469,-0.7105 0.9703,-1.58928 0.9703,-2.64568c0,-1.04706 -0.3234,-1.92584 -0.9703,-2.62699c-0.6469,-0.70115 -1.5063,-1.0564 -2.5875,-1.0564c-1.0997,0 -1.9684,0.35525 -2.6153,1.0564c-0.6376,0.70115 -0.9611,1.57993 -0.9611,2.62699c0,1.0564 0.3235,1.94453 0.9703,2.65503c0.6469,0.71049 1.5156,1.06579 2.6061,1.06579c1.0812,0 1.9406,-0.3553 2.5875,-1.06579zM91.1463,8.62886c-0.3142,-0.43004 -0.4713,-0.96292 -0.4713,-1.58928c0,-0.60767 0.1571,-1.1312 0.4713,-1.56124c0.3234,-0.43939 0.7947,-0.66376 1.4324,-0.66376c0.6284,0 1.1089,0.22437 1.4324,0.66376c0.3049,0.43939 0.4528,0.96292 0.4528,1.56124c0,0.62636 -0.1479,1.15924 -0.4528,1.58928c-0.3235,0.43938 -0.7948,0.66375 -1.4324,0.66375c-0.6284,0 -1.109,-0.22437 -1.4324,-0.66375zM99.2786,9.54503c0.5452,0.80397 1.3304,1.20597 2.3474,1.20597c0.952,0 1.719,-0.3552 2.292,-1.06574c0.573,-0.7105 0.868,-1.58928 0.868,-2.64568c0,-1.04706 -0.286,-1.92584 -0.85,-2.62699c-0.573,-0.70115 -1.34,-1.0564 -2.31,-1.0564c-1.026,0 -1.8114,0.41134 -2.3659,1.23402l-0.1202,-1.06575h-1.5248v10.57334h1.6635zM99.7961,8.60081c-0.3512,-0.43939 -0.5175,-0.96292 -0.5175,-1.56123c0,-0.59832 0.1755,-1.12185 0.5175,-1.56124c0.3419,-0.42069 0.8039,-0.63571 1.4049,-0.63571c0.637,0 1.118,0.21502 1.432,0.64506c0.324,0.43939 0.481,0.95357 0.481,1.55189c0,0.59831 -0.157,1.12184 -0.481,1.56123c-0.323,0.43939 -0.795,0.66376 -1.432,0.66376c-0.592,0 -1.054,-0.22437 -1.4049,-0.66376zM109.361,4.94547h2.116v-1.42101h-5.896v1.42101h2.116v5.63723h1.664zM114.351,7.68464h2.939v2.89806h1.672v-7.05824h-1.672v2.72982h-2.939v-2.72982h-1.663v7.05824h1.663zM125.976,9.86289c0.472,-0.45809 0.703,-1.03771 0.703,-1.72952c0,-0.70115 -0.25,-1.27142 -0.739,-1.69211c-0.49,-0.43004 -1.211,-0.64506 -2.154,-0.64506h-1.247v-2.28109h-1.664v7.05829h2.884c0.988,0 1.728,-0.2431 2.208,-0.71986zM129.211,3.52446h-1.664v7.05824h1.664zM123.648,7.12371c0.868,0 1.303,0.34591 1.303,1.02836c0,0.73855 -0.435,1.1125 -1.303,1.1125h-1.1v-2.14086zM135.883,2.05672c0.148,-0.10284 0.277,-0.22437 0.388,-0.35526c0.111,-0.13088 0.185,-0.23371 0.213,-0.3085c0.027,-0.07479 0.055,-0.14023 0.074,-0.19633v-0.84138h-1.22c0,0.06544 -0.019,0.15893 -0.065,0.28046c-0.046,0.12153 -0.148,0.25241 -0.305,0.39265c-0.157,0.14023 -0.342,0.21502 -0.564,0.21502c-0.24,0 -0.434,-0.07479 -0.591,-0.21502c-0.157,-0.14023 -0.249,-0.27111 -0.286,-0.3833c-0.037,-0.11218 -0.056,-0.21502 -0.056,-0.28981h-1.22v0.84138c0.019,0.0561 0.046,0.12154 0.074,0.19633c0.028,0.07479 0.102,0.17762 0.213,0.3085c0.111,0.13089 0.24,0.25242 0.388,0.35526c0.148,0.10283 0.351,0.19632 0.61,0.27111c0.259,0.08414 0.554,0.12153 0.868,0.12153c0.324,0 0.61,-0.03739 0.869,-0.12153c0.259,-0.08414 0.462,-0.16828 0.61,-0.27111zM135.874,5.93643v4.63697h1.673v-7.05829h-1.572l-3.188,4.62761v-4.62761h-1.663v7.05829h1.552l3.189,-4.63697zM51.141,23.5681h2.9387v2.8981h1.6727v-7.0583h-1.6727v2.7298h-2.9387v-2.7298h-1.6634v7.0583h1.6634zM62.4153,21.8199v4.6369h1.6819v-7.0582h-1.571l-3.1882,4.6276v-4.6276h-1.6635v7.0582h1.5526zM71.2776,25.924c0.4713,-0.3553 0.7024,-0.8788 0.7024,-1.58c0,-0.3926 -0.1109,-0.7292 -0.342,-1.019c-0.231,-0.2898 -0.5452,-0.4861 -0.9611,-0.6076c0.6839,-0.2805 1.0351,-0.776 1.0351,-1.4865c0,-0.5983 -0.2218,-1.0564 -0.6746,-1.3742c-0.4529,-0.3179 -1.0443,-0.4768 -1.7836,-0.4768h-3.2437v7.0863h3.3916c0.7855,0 1.4139,-0.1776 1.8852,-0.5329zM69.0597,20.6326c0.6192,0 0.9242,0.2524 0.9242,0.7479c0,0.5142 -0.305,0.7759 -0.9242,0.7759h-1.4324v-1.5145h1.4324zM69.1429,23.4279c0.7393,0 1.109,0.2898 1.109,0.8694c0,0.5796 -0.3697,0.8694 -1.109,0.8694h-1.5156v-1.7482h1.5156zM77.9036,26.4849c0.3604,-0.0935 0.6469,-0.187 0.8502,-0.2992c0.2033,-0.1122 0.3881,-0.243 0.5452,-0.3833c0.1571,-0.1402 0.2588,-0.243 0.305,-0.2991c0.0369,-0.0561 0.0739,-0.1029 0.0924,-0.1403v-0.9255h-1.2106l-0.0093,0.0468c-0.0184,0.028 -0.0462,0.0654 -0.0831,0.1028c-0.037,0.0467 -0.0832,0.0935 -0.1386,0.1496c-0.0555,0.0561 -0.1294,0.1122 -0.2218,0.1683c-0.0924,0.056 -0.1941,0.1028 -0.3142,0.1495c-0.1202,0.0468 -0.268,0.0748 -0.4344,0.1029c-0.1663,0.028 -0.3511,0.0467 -0.5452,0.0467c-0.5914,0 -1.0627,-0.1776 -1.4047,-0.5235c-0.3419,-0.3459 -0.536,-0.8227 -0.5729,-1.4304h4.9995l0.0647,-0.832c0,-0.9536 -0.268,-1.7295 -0.8133,-2.3091c-0.536,-0.589 -1.3492,-0.8788 -2.4304,-0.8788c-1.0905,0 -1.9499,0.3552 -2.5691,1.0564c-0.6191,0.7011 -0.9333,1.5893 -0.9333,2.6457c0,1.1031 0.3142,2.0006 0.9426,2.6831c0.6284,0.6824 1.5248,1.019 2.6984,1.019c0.4251,0 0.8132,-0.0468 1.1736,-0.1309zM76.5913,20.6232c0.5175,0 0.9242,0.1403 1.2014,0.4114c0.2772,0.2805 0.4158,0.6264 0.4158,1.047h-3.3915c0.2033,-0.9722 0.7948,-1.4584 1.7743,-1.4584zM83.0787,25.4004c0.5545,0.804 1.3307,1.206 2.3473,1.206c0.9518,0 1.7188,-0.3552 2.2918,-1.0657c0.5822,-0.7105 0.8687,-1.5893 0.8687,-2.6457c0,-1.0471 -0.2865,-1.9259 -0.8502,-2.627c-0.5638,-0.7012 -1.34,-1.0564 -2.3103,-1.0564c-1.0258,0 -1.8113,0.4113 -2.3658,1.234l-0.1201,-1.0657h-1.5248v10.5734h1.6634zM83.6054,24.4562c-0.3511,-0.4394 -0.5267,-0.9629 -0.5267,-1.5612c0,-0.5983 0.1756,-1.1219 0.5267,-1.5613c0.342,-0.4206 0.804,-0.6357 1.4047,-0.6357c0.6376,0 1.1182,0.2151 1.4324,0.6451c0.3234,0.4394 0.4805,0.9536 0.4805,1.5425c0,0.5983 -0.1571,1.1219 -0.4805,1.5613c-0.3235,0.4394 -0.7948,0.6637 -1.4324,0.6637c-0.5914,0 -1.0535,-0.2243 -1.4047,-0.6637zM94.4177,26.4568c0.3419,-0.1028 0.6099,-0.215 0.7947,-0.3459c0.1848,-0.1308 0.3419,-0.2711 0.4806,-0.4394c0.1386,-0.1682 0.2218,-0.2898 0.2587,-0.3552c0.0277,-0.0654 0.0555,-0.1215 0.074,-0.1589v-0.9256h-1.1644v0.0281c-0.0093,0.0187 -0.0185,0.0467 -0.037,0.0841c-0.0185,0.0374 -0.037,0.0748 -0.0647,0.1216c-0.0185,0.0467 -0.0554,0.0935 -0.1017,0.1495c-0.0462,0.0561 -0.0924,0.1122 -0.1478,0.159c-0.0555,0.0467 -0.1201,0.0935 -0.2033,0.1402c-0.074,0.0467 -0.1664,0.0935 -0.2588,0.1309c-0.0924,0.0374 -0.2125,0.0654 -0.3327,0.0841c-0.1293,0.0187 -0.268,0.0281 -0.4158,0.0281c-0.6007,0 -1.072,-0.2057 -1.3862,-0.6264c-0.3234,-0.4207 -0.4805,-0.9536 -0.4805,-1.608c0,-0.6544 0.1571,-1.1966 0.4805,-1.6173c0.3234,-0.4207 0.7855,-0.6357 1.3862,-0.6357c0.1756,0 0.3419,0.0187 0.499,0.0467c0.1571,0.0374 0.2865,0.0748 0.3881,0.1216c0.1017,0.0561 0.1941,0.1122 0.2773,0.1869c0.0832,0.0655 0.1478,0.1403 0.2033,0.1964c0.0462,0.0654 0.0924,0.1215 0.1201,0.1776c0.0277,0.0561 0.0555,0.1028 0.0647,0.1309l0.0185,0.0561h1.1644v-0.9256l-0.0555,-0.1402c-0.0462,-0.1028 -0.1293,-0.2244 -0.2587,-0.3739c-0.1294,-0.1496 -0.2865,-0.2898 -0.4713,-0.4301c-0.1848,-0.1402 -0.4528,-0.2617 -0.7948,-0.3552c-0.3419,-0.1029 -0.7208,-0.1496 -1.1366,-0.1496c-1.0813,0 -1.9407,0.3552 -2.5876,1.0657c-0.6376,0.7105 -0.9611,1.5893 -0.9611,2.6551c0,1.0657 0.305,1.9539 0.9242,2.655c0.6099,0.7012 1.4878,1.0471 2.6245,1.0471c0.4158,0 0.7855,-0.0561 1.1366,-0.159zM102.374,21.8012v4.6369h1.673v-7.0582h-1.571l-3.1882,4.6276v-4.6276h-1.6634v7.0582h1.5525l3.1881,-4.6369zM109.037,20.8009h2.117v-1.421h-5.896v1.421h2.116v5.6372h1.663zM116.754,26.4755c0.36,-0.0935 0.647,-0.1869 0.85,-0.2991c0.203,-0.1122 0.388,-0.2431 0.545,-0.3833c0.157,-0.1402 0.259,-0.2431 0.305,-0.2992c0.037,-0.0561 0.074,-0.1028 0.093,-0.1402v-0.9255h-1.211l-0.009,0.0467c-0.019,0.0281 -0.047,0.0655 -0.083,0.1028c-0.037,0.0468 -0.084,0.0935 -0.139,0.1496c-0.056,0.0561 -0.129,0.1122 -0.222,0.1683c-0.092,0.0561 -0.194,0.1028 -0.314,0.1496c-0.12,0.0467 -0.259,0.0748 -0.434,0.1028c-0.167,0.0281 -0.352,0.0468 -0.546,0.0468c-0.6,0 -1.062,-0.1777 -1.404,-0.5236c-0.342,-0.3459 -0.536,-0.8226 -0.573,-1.4303h4.999l0.065,-0.8321c0,-0.9535 -0.268,-1.7295 -0.813,-2.3091c-0.536,-0.589 -1.35,-0.8788 -2.431,-0.8788c-1.09,0 -1.95,0.3553 -2.569,1.0564c-0.619,0.7012 -0.933,1.5893 -0.933,2.6457c0,1.1032 0.314,2.0007 0.942,2.6831c0.629,0.6825 1.525,1.019 2.699,1.019c0.425,0 0.813,-0.0467 1.173,-0.1309zM115.441,20.6139c0.518,0 0.925,0.1402 1.202,0.4113c0.277,0.2805 0.416,0.6264 0.416,1.0471h-3.392c0.203,-0.9723 0.795,-1.4584 1.774,-1.4584zM123.343,20.7915h2.116v-1.421h-5.896v1.421h2.116v5.6373h1.664zM8.64055,4.44998l-6.69065,-4.40324c-0.04621,-0.02805 -0.10165,-0.04674 -0.1571,-0.04674h-1.50632c-0.1571,0 -0.28648,0.13088 -0.28648,0.28981v1.08445c0,0.10284 0.04621,0.19632 0.12938,0.24307l6.97713,4.58086c0.12938,0.08414 0.30496,0.04675 0.39737,-0.08414l1.13667,-1.67341zM29.4611,18.9872l-3.6134,-2.5615c-0.1293,-0.0935 -0.3142,-0.0561 -0.4066,0.0748l-0.9703,1.421c-0.0924,0.1309 -0.0555,0.3178 0.0739,0.4113l4.5744,3.1973c0.1941,0.1309 0.4528,-0.0094 0.4528,-0.2431v-2.0567c0,-0.0935 -0.0462,-0.187 -0.1201,-0.2431zM11.5885,20.5578l-1.64493,-1.1499c-0.12938,-0.0935 -0.31421,-0.0561 -0.40662,0.0748l-6.77382,9.9844c-0.12938,0.1963 0.00924,0.4581 0.24027,0.4581h2.07928c0.09241,0 0.18482,-0.0467 0.24027,-0.1309l6.27475,-9.2458zM11.7086,12.2094l-11.24654,-7.82486c-0.19407,-0.13088 -0.45282,0.00935 -0.45282,0.24307v2.10346c0,0.09349 0.04621,0.18697 0.12938,0.24306l8.16001,5.67467c0.12937,0.0935 0.16634,0.2711 0.07393,0.4113l-8.30787,12.2281c-0.03696,0.0468 -0.04621,0.1029 -0.04621,0.1683v2.197v0.9535c0,0.2899 0.36965,0.402 0.52675,0.1683l11.17267,-16.5472zM17.9557,19.3612l11.1819,7.7781c0.1941,0.1309 0.4528,-0.0094 0.4528,-0.2431v-2.1034c0,-0.0935 -0.0462,-0.187 -0.1293,-0.2431l-11.8566,-8.2456c-0.1293,-0.0934 -0.3142,-0.056 -0.4066,0.0748l-8.88079,13.0882c-0.12938,0.1963 0.00924,0.4581 0.24027,0.4581h2.07932c0.0924,0 0.1848,-0.0467 0.2402,-0.1309l7.0881,-10.4331z"></path></g></g></svg>