<svg width="527" height="590" viewBox="0 0 527 590" fill="none" xmlns="http://www.w3.org/2000/svg">
<path d="M249.529 0.780914C236.996 3.44757 224.462 11.1809 86.3291 103.181C35.1291 137.314 2.19579 159.981 1.39579 161.848C-2.73754 170.781 1.79579 175.714 21.9291 183.848L36.5958 189.714L36.9958 212.914C37.3958 240.381 35.9291 251.448 30.4625 262.381C25.3958 272.514 21.2625 288.381 21.2625 297.981C21.3958 315.581 32.3291 326.114 50.5958 326.114C63.7958 326.114 72.9958 319.581 77.1291 307.581C80.5958 296.914 77.6625 280.114 68.9958 262.248L63.5291 250.781L62.8625 223.048C62.4625 200.114 62.5958 195.314 64.0625 195.714C65.9291 196.248 89.9291 203.714 107.262 209.314L116.596 212.381L117.529 218.248C118.062 221.448 119.662 236.114 121.262 250.781C125.129 287.714 126.596 293.048 134.062 294.914C139.262 296.248 142.729 293.581 149.662 282.781C157.929 269.981 179.662 247.314 194.329 236.248C216.462 219.448 248.462 206.114 279.929 200.648C294.196 198.248 299.796 197.848 319.262 198.514C334.196 199.048 346.062 200.114 353.929 201.848C371.929 205.714 399.796 215.448 419.396 224.648C428.996 229.048 437.929 232.781 439.529 232.781C440.996 232.781 443.262 231.581 444.596 230.114C448.329 226.114 446.596 217.981 435.129 183.314C426.729 157.714 425.262 152.248 426.729 150.781C427.796 149.981 442.062 140.781 458.596 130.514C529.396 86.3809 526.596 88.3809 526.596 80.7809C526.596 75.8476 524.729 73.1809 519.129 70.3809C516.862 69.1809 425.796 42.9142 393.262 34.1143C388.462 32.7809 366.862 26.7809 345.262 20.7809C323.662 14.7809 298.462 7.84756 289.262 5.31424C271.262 0.38092 258.462 -1.08575 249.529 0.780914Z" fill="white"/>
<path d="M295.396 244.915C283.929 246.515 267.529 250.648 256.729 254.648C208.329 272.915 168.196 316.248 153.929 365.715C132.196 440.381 160.863 517.448 226.329 560.381C243.396 571.715 266.463 581.448 269.129 578.648C269.796 577.981 276.463 545.581 283.796 506.781C300.596 419.048 302.329 410.515 304.863 405.448C308.596 398.248 311.929 395.448 317.396 395.448C323.796 395.448 329.529 401.715 332.329 411.715C333.529 415.581 339.663 445.448 345.929 478.115C358.996 545.048 364.996 573.715 366.729 577.048C368.596 580.515 371.929 579.981 384.863 574.115C413.396 560.915 442.063 536.381 458.996 510.648C472.196 490.781 479.929 472.515 484.729 449.848C488.196 434.115 488.196 397.715 484.729 382.115C472.996 328.381 439.129 284.648 391.263 261.315C374.596 253.315 365.263 249.981 349.929 246.781C337.263 244.115 308.329 243.048 295.396 244.915ZM345.929 296.781C367.796 302.648 388.463 314.648 404.196 330.648C419.529 346.248 431.263 366.248 430.329 375.448C429.663 383.048 427.529 383.181 404.996 377.715C364.863 367.981 347.929 365.715 315.929 365.715C282.863 365.581 274.063 366.781 235.663 376.381C214.729 381.581 210.063 382.381 207.263 381.048C202.329 378.781 202.863 372.515 209.263 359.981C219.796 338.915 234.996 322.648 255.663 310.248C267.663 303.048 288.329 295.715 301.263 294.115C314.329 292.381 333.929 293.581 345.929 296.781ZM223.529 433.981C239.396 441.448 254.463 455.315 261.396 469.181C269.529 485.048 269.129 513.981 260.863 517.715C256.996 519.448 250.063 517.315 242.463 511.981C236.063 507.581 223.129 493.981 217.396 485.715C208.863 473.181 200.196 452.515 197.929 438.915C196.063 427.848 206.063 425.848 223.529 433.981ZM435.129 430.515C441.929 435.448 433.529 462.781 418.463 485.048C406.729 502.248 386.863 519.448 378.596 519.448C373.129 519.448 370.996 516.648 369.263 506.381C365.929 487.848 372.996 466.648 387.529 452.248C404.996 434.915 427.263 424.781 435.129 430.515Z" fill="white"/>
<path d="M313.663 451.181C310.596 453.048 309.129 459.981 308.329 476.114C307.529 492.114 307.529 492.381 310.729 494.514C316.463 498.648 326.063 496.248 327.396 490.514C328.463 486.781 326.996 468.248 324.996 459.048C323.396 451.448 318.596 447.981 313.663 451.181Z" fill="white"/>
<path d="M312.195 523.848C309.395 527.181 307.928 533.314 305.262 552.914C301.662 579.714 301.795 582.248 306.062 586.248C308.995 589.048 310.728 589.448 319.528 589.448C328.328 589.448 329.795 589.048 332.062 586.248C335.395 582.248 335.262 578.648 331.262 551.981C327.928 530.514 326.462 525.181 323.395 523.181C320.995 521.581 313.662 521.981 312.195 523.848Z" fill="white"/>
</svg>
