<svg preserveAspectRatio="none" width="100%" height="100%" overflow="visible" style="display: block;" viewBox="0 0 114.116 14.4432" fill="none" xmlns="http://www.w3.org/2000/svg">
<g id="Group">
<path id="Vector" d="M4.74043 9.29605L2.02105 2.50265e-05H0V11.5348H1.21182V1.5117L4.13659 11.5348H5.13068L8.12119 1.54867V11.5348H9.43159V2.50265e-05H7.4475L4.74043 9.29605Z" fill="white"/>
<path id="Vector_2" d="M16.5749 3.69708L13.8679 7.94869C13.4489 8.62237 13.8679 7.99797 13.0627 9.27551C13.0956 8.60182 13.112 8.70452 13.112 8.09656V2.95356H11.8345V11.5266H13.112V10.705L15.8684 6.4329C16.0697 6.11248 16.2052 5.96049 16.4229 5.62775C16.4394 5.57846 16.4722 5.5456 16.4887 5.4922C16.538 5.41004 16.5873 5.32377 16.6407 5.24161C16.5914 5.64418 16.5749 6.16588 16.5749 6.46986V11.5307H17.8525V2.95766H16.5749V3.69708Z" fill="white"/>
<path id="Vector_3" d="M24.7783 6.5396H21.4509V2.95757H20.1693V11.5347H21.4509V7.583H24.7783V11.5347H26.0558V2.95757H24.7783V6.5396Z" fill="white"/>
<path id="Vector_4" d="M26.8774 4.00097H29.0628V11.5347H30.3403V4.00097H32.5257V2.95757H26.8774V4.00097Z" fill="white"/>
<path id="Vector_5" d="M36.761 2.80975C36.3256 2.80975 35.8039 2.87547 35.3315 3.26161C35.0111 3.53273 34.6906 4.01744 34.5222 4.47341V2.96173H33.3433V14.4431H34.6208V10.4257C34.7892 10.7297 35.1096 11.1322 35.4465 11.3664C35.849 11.6539 36.305 11.7196 36.7569 11.7196C37.2621 11.7196 37.8824 11.6375 38.4699 11.1158C39.464 10.2408 39.7638 8.40872 39.7638 7.23388C39.7638 6.56019 39.7145 4.78151 38.6711 3.63542C38.0344 2.92888 37.3936 2.80975 36.7528 2.80975H36.761ZM37.5867 10.1874C37.217 10.59 36.8801 10.6762 36.494 10.6762C36.0051 10.6762 35.7053 10.5407 35.3356 10.171C34.8139 9.64928 34.629 9.04544 34.629 7.88292V6.62181C34.629 5.73041 34.6947 5.11013 35.2698 4.45288C35.6231 4.05031 35.9764 3.84903 36.5145 3.84903C37.0034 3.84903 37.3895 4.05031 37.677 4.40359C38.3836 5.24569 38.4 6.90936 38.4 7.21334C38.4 8.39229 38.1987 9.51783 37.5908 10.1874H37.5867Z" fill="white"/>
<path id="Vector_6" d="M47.166 6.23567C47.166 5.00743 47.1989 3.89832 46.1924 3.2082C45.7036 2.88779 44.9478 2.7358 44.3439 2.7358C43.4361 2.7358 42.6802 3.0562 42.1586 3.50806C41.8053 3.82848 41.452 4.28034 41.3534 4.92116L42.6309 5.15531C42.6967 4.7856 42.8856 4.43233 43.1526 4.18175C43.5223 3.84491 43.9783 3.77918 44.2782 3.77918C44.7342 3.77918 45.2353 3.88188 45.5886 4.38303C45.9254 4.87187 45.9254 5.47573 45.9254 5.89473V6.26443C45.5557 6.23157 45.1696 6.1987 44.6479 6.1987C43.8058 6.1987 42.5282 6.248 41.6903 7.29139C41.3205 7.76379 41.033 8.53606 41.033 9.22617C41.033 9.83002 41.2672 10.5366 41.6204 10.9597C42.0066 11.4115 42.6967 11.7648 43.6209 11.7648C44.3439 11.7648 44.882 11.5307 45.3339 11.0418C45.605 10.7543 45.8885 10.286 46.024 10.0149C46.0404 10.553 46.0569 10.9063 46.1103 11.5266H47.3385C47.203 11.0706 47.1701 10.6516 47.1701 8.77021V6.23156L47.166 6.23567ZM45.5352 9.61642C45.3175 10.0026 44.8122 10.7255 43.8222 10.7255C43.5511 10.7255 43.1321 10.6927 42.7788 10.3558C42.4091 10.0026 42.3598 9.58356 42.3598 9.23028C42.3598 8.49087 42.6268 8.03491 42.898 7.7679C43.2512 7.41462 43.892 7.18047 44.9149 7.18047C45.2682 7.18047 45.5886 7.21333 45.9254 7.28316C46.0281 8.22386 45.9419 8.89754 45.5393 9.62052L45.5352 9.61642Z" fill="white"/>
<path id="Vector_7" d="M54.1083 6.5396H50.7809V2.95757H49.5034V11.5347H50.7809V7.583H54.1083V11.5347H55.3858V2.95757H54.1083V6.5396Z" fill="white"/>
<path id="Vector_8" d="M60.3934 3.78333C60.9479 3.78333 61.2683 4.03391 61.4367 4.21876C61.7407 4.5556 61.8558 5.0773 62.0077 5.88244L63.2524 5.63186C63.2031 4.94174 62.932 4.10374 62.4473 3.54918C61.827 2.84263 61.0506 2.73994 60.4303 2.73994C59.7566 2.73994 59.0008 2.84264 58.2778 3.63134C57.3371 4.67473 57.2673 6.05085 57.2673 7.36536C57.2673 8.30605 57.2673 9.637 58.1587 10.7461C58.8652 11.6211 59.6375 11.7731 60.2948 11.7731C61.3217 11.7731 62.1104 11.3869 62.5459 10.8817C63.0142 10.3271 63.2195 9.41928 63.2524 8.77846L62.0077 8.62647C61.9256 9.26729 61.8229 9.83828 61.486 10.2408C61.2848 10.4914 60.9315 10.7297 60.4262 10.7297C59.9209 10.7297 59.2843 10.4586 58.931 9.63699C58.6599 8.99617 58.6434 8.19103 58.6434 7.3859C58.6434 6.58076 58.6763 5.92351 58.8776 5.15123C59.0131 4.64597 59.2966 3.78744 60.3893 3.78744L60.3934 3.78333Z" fill="white"/>
<path id="Vector_9" d="M71.4063 0H68.9169V11.5348H70.33V6.84365H71.4063C72.8029 6.84365 73.9449 6.67523 74.75 5.81669C75.2717 5.26214 75.6086 4.38716 75.6086 3.39717C75.6086 2.32092 75.1896 1.51579 74.7007 1.01052C73.8956 0.184849 72.7824 0 71.4063 0ZM73.6573 5.06085C73.1357 5.61541 72.1457 5.66469 71.4063 5.66469H70.33V1.17483H71.4063C72.0964 1.17483 73.0864 1.15841 73.6409 1.79512C73.9613 2.18126 74.1298 2.8878 74.1298 3.50808C74.1298 4.06264 73.9942 4.70347 73.6573 5.05674V5.06085Z" fill="white"/>
<path id="Vector_10" d="M80.0123 2.73994C79.5768 2.73994 78.5992 2.78923 77.8269 3.59847C77.0711 4.37075 76.7178 5.84957 76.7178 7.24623C76.7178 8.64289 77.0875 10.1382 77.8269 10.9104C78.1638 11.2637 78.8374 11.769 80.0123 11.769C80.953 11.769 81.6267 11.3993 82.0457 11.0131C82.6659 10.4421 83.2575 9.31658 83.2575 7.24623C83.2575 5.17588 82.6701 4.05034 82.0457 3.47935C81.3391 2.8221 80.534 2.73994 80.0123 2.73994ZM81.5568 9.44804C81.372 9.9533 80.9694 10.7256 79.9917 10.7256C79.0141 10.7256 78.5951 9.93687 78.4102 9.44804C78.1227 8.69219 78.0898 8.00207 78.0898 7.24623C78.0898 6.49039 78.1227 5.84957 78.4102 5.0773C78.5951 4.53917 78.9977 3.78333 79.9753 3.78333C80.953 3.78333 81.372 4.5556 81.5568 5.0773C81.8444 5.84957 81.8772 6.50682 81.8772 7.24623C81.8772 7.98564 81.8444 8.69219 81.5568 9.44804Z" fill="white"/>
<path id="Vector_11" d="M87.9283 3.78333C88.4829 3.78333 88.8033 4.03391 88.9717 4.21876C89.2757 4.5556 89.3907 5.0773 89.5427 5.88244L90.7874 5.63186C90.7381 4.94174 90.467 4.10374 89.9822 3.54918C89.362 2.84263 88.5856 2.73994 87.9653 2.73994C87.2916 2.73994 86.5358 2.84264 85.8128 3.63134C84.8721 4.67473 84.8023 6.05085 84.8023 7.36536C84.8023 8.30605 84.8023 9.637 85.6937 10.7461C86.4002 11.6211 87.1725 11.7731 87.8297 11.7731C88.8567 11.7731 89.6454 11.3869 90.0808 10.8817C90.5491 10.3271 90.7545 9.41928 90.7874 8.77846L89.5427 8.62647C89.4605 9.26729 89.3579 9.83828 89.021 10.2408C88.8197 10.4914 88.4665 10.7297 87.9612 10.7297C87.4559 10.7297 86.8192 10.4586 86.4659 9.63699C86.1948 8.99617 86.1784 8.19103 86.1784 7.3859C86.1784 6.58076 86.2112 5.92351 86.4125 5.15123C86.5481 4.64597 86.8315 3.78744 87.9242 3.78744L87.9283 3.78333Z" fill="white"/>
<path id="Vector_12" d="M95.1375 3.78333C95.6921 3.78333 96.0125 4.03391 96.1809 4.21876C96.4849 4.5556 96.5999 5.0773 96.7519 5.88244L97.9966 5.63186C97.9473 4.94174 97.6762 4.10374 97.1914 3.54918C96.5712 2.84263 95.7948 2.73994 95.1745 2.73994C94.5008 2.73994 93.745 2.84264 93.022 3.63134C92.0813 4.67473 92.0115 6.05085 92.0115 7.36536C92.0115 8.30605 92.0115 9.637 92.9029 10.7461C93.6094 11.6211 94.3817 11.7731 95.0389 11.7731C96.0659 11.7731 96.8546 11.3869 97.29 10.8817C97.7583 10.3271 97.9637 9.41928 97.9966 8.77846L96.7519 8.62647C96.6697 9.26729 96.5671 9.83828 96.2302 10.2408C96.0289 10.4914 95.6757 10.7297 95.1704 10.7297C94.6651 10.7297 94.0284 10.4586 93.6751 9.63699C93.404 8.99617 93.3876 8.19103 93.3876 7.3859C93.3876 6.58076 93.4204 5.92351 93.6217 5.15123C93.7573 4.64597 94.0407 3.78744 95.1334 3.78744L95.1375 3.78333Z" fill="white"/>
<path id="Vector_13" d="M104.499 3.69708L101.792 7.94869C101.373 8.62237 101.792 7.99797 100.987 9.27551C101.02 8.60182 101.036 8.70452 101.036 8.09656V2.95356H99.7586V11.5266H101.036V10.705L103.792 6.4329C103.994 6.11248 104.129 5.96049 104.347 5.62775C104.363 5.57846 104.396 5.5456 104.413 5.4922C104.462 5.41004 104.515 5.32377 104.565 5.24161C104.515 5.64418 104.499 6.16588 104.499 6.46986V11.5307H105.777V2.95766H104.499V3.69708Z" fill="white"/>
<path id="Vector_14" d="M112.838 2.95766V3.69708L110.131 7.94869C109.712 8.62237 110.131 7.99797 109.326 9.27551C109.359 8.60182 109.375 8.70452 109.375 8.09656V2.95356H108.098V11.5266H109.375V10.705L112.132 6.4329C112.333 6.11248 112.469 5.96049 112.686 5.62775C112.703 5.57846 112.736 5.5456 112.752 5.4922C112.801 5.41004 112.851 5.32377 112.904 5.24161C112.855 5.64418 112.838 6.16588 112.838 6.46986V11.5307H114.116V2.95766H112.838Z" fill="white"/>
</g>
</svg>
