<svg width="589" height="590" viewBox="0 0 589 590" fill="none" xmlns="http://www.w3.org/2000/svg">
<path d="M278.907 0.780914C264.898 3.44757 250.889 11.1809 96.493 103.181C39.265 137.314 2.45431 159.981 1.56012 161.848C-3.05984 170.781 2.00722 175.714 24.5109 183.848L40.9044 189.714L41.3515 212.914C41.7985 240.381 40.1592 251.448 34.0489 262.381C28.3857 272.514 23.7658 288.381 23.7658 297.981C23.9148 315.581 36.1354 326.114 56.5526 326.114C71.3067 326.114 81.5899 319.581 86.2099 307.581C90.0847 296.914 86.806 280.114 77.1189 262.248L71.0087 250.781L70.2635 223.048C69.8164 200.114 69.9654 195.314 71.6048 195.714C73.6912 196.248 100.517 203.714 119.891 209.314L130.323 212.381L131.366 218.248C131.962 221.448 133.751 236.114 135.539 250.781C139.861 287.714 141.5 293.048 149.846 294.914C155.658 296.248 159.533 293.581 167.283 282.781C176.523 269.981 200.815 247.314 217.208 236.248C241.947 219.448 277.715 206.114 312.886 200.648C328.833 198.248 335.092 197.848 356.851 198.514C373.542 199.048 386.806 200.114 395.599 201.848C415.718 205.714 446.865 215.448 468.773 224.648C479.503 229.048 489.488 232.781 491.277 232.781C492.916 232.781 495.45 231.581 496.94 230.114C501.113 226.114 499.175 217.981 486.359 183.314C476.97 157.714 475.33 152.248 476.97 150.781C478.162 149.981 494.108 140.781 512.588 130.514C591.724 86.3809 588.594 88.3809 588.594 80.7809C588.594 75.8476 586.508 73.1809 580.248 70.3809C577.715 69.1809 475.926 42.9142 439.563 34.1143C434.198 32.7809 410.055 26.7809 385.912 20.7809C361.769 14.7809 333.602 7.84756 323.319 5.31424C303.199 0.38092 288.892 -1.08575 278.907 0.780914Z" fill="#073AE9"/>
<path d="M330.175 244.915C317.358 246.515 299.027 250.648 286.956 254.648C232.858 272.915 187.999 316.248 172.053 365.715C147.761 440.381 179.803 517.448 252.977 560.381C272.053 571.715 297.835 581.448 300.816 578.648C301.561 577.981 309.013 545.581 317.209 506.781C335.987 419.048 337.925 410.515 340.756 405.448C344.929 398.248 348.655 395.448 354.765 395.448C361.919 395.448 368.327 401.715 371.457 411.715C372.798 415.581 379.653 445.448 386.658 478.115C401.263 545.048 407.969 573.715 409.907 577.048C411.993 580.515 415.719 579.981 430.175 574.115C462.068 560.915 494.109 536.381 513.036 510.648C527.79 490.781 536.434 472.515 541.799 449.848C545.674 434.115 545.674 397.715 541.799 382.115C528.685 328.381 490.831 284.648 437.328 261.315C418.7 253.315 408.267 249.981 391.129 246.781C376.971 244.115 344.631 243.048 330.175 244.915ZM386.658 296.781C411.099 302.648 434.199 314.648 451.784 330.648C468.923 346.248 482.038 366.248 480.995 375.448C480.249 383.048 477.865 383.181 452.679 377.715C407.82 367.981 388.893 365.715 353.126 365.715C316.166 365.581 306.33 366.781 263.409 376.381C240.011 381.581 234.795 382.381 231.665 381.048C226.151 378.781 226.747 372.515 233.901 359.981C245.674 338.915 262.664 322.648 285.764 310.248C299.177 303.048 322.276 295.715 336.732 294.115C351.337 292.381 373.245 293.581 386.658 296.781ZM249.847 433.981C267.582 441.448 284.422 455.315 292.172 469.181C301.263 485.048 300.816 513.981 291.576 517.715C287.254 519.448 279.504 517.315 271.01 511.981C263.856 507.581 249.4 493.981 242.992 485.715C233.454 473.181 223.767 452.515 221.233 438.915C219.147 427.848 230.324 425.848 249.847 433.981ZM486.36 430.515C493.96 435.448 484.571 462.781 467.731 485.048C454.616 502.248 432.41 519.448 423.171 519.448C417.06 519.448 414.676 516.648 412.738 506.381C409.013 487.848 416.911 466.648 433.156 452.248C452.679 434.915 477.567 424.781 486.36 430.515Z" fill="#073AE9"/>
<path d="M350.591 451.181C347.163 453.048 345.524 459.981 344.63 476.114C343.735 492.114 343.735 492.381 347.312 494.514C353.72 498.648 364.451 496.248 365.941 490.514C367.133 486.781 365.494 468.248 363.258 459.048C361.47 451.448 356.105 447.981 350.591 451.181Z" fill="#073AE9"/>
<path d="M348.951 523.848C345.822 527.181 344.182 533.314 341.202 552.914C337.178 579.714 337.327 582.248 342.096 586.248C345.375 589.048 347.312 589.448 357.148 589.448C366.984 589.448 368.623 589.048 371.157 586.248C374.883 582.248 374.734 578.648 370.263 551.981C366.537 530.514 364.898 525.181 361.47 523.181C358.787 521.581 350.591 521.981 348.951 523.848Z" fill="#073AE9"/>
</svg>
