<svg width="131" height="87" viewBox="0 0 131 87" fill="none" xmlns="http://www.w3.org/2000/svg">
<path d="M113.39 45.1899H92.21V66.2999H113.39V45.1899Z" fill="#33284C"/>
<path d="M89.77 42.25V64.14H111.72V42.25H89.77ZM110.94 43.02V46.07L107.88 43.02H110.94ZM106.77 43.02L110.94 47.17V50.26L103.67 43.02H106.77ZM102.56 43.02L110.93 51.36V54.45L99.45 43.02H102.55H102.56ZM98.36 43.02L110.93 55.55V58.64L95.26 43.02H98.36ZM94.15 43.02L110.93 59.74V62.84L91.05 43.02H94.15ZM90.52 63.35V60.34L93.53 63.35H90.52ZM94.63 63.35L90.52 59.25V56.16L97.74 63.35H94.64H94.63ZM98.83 63.35L90.53 55.06H90.52V51.96L101.94 63.35H98.83ZM103.04 63.35L90.52 50.87V47.78L106.14 63.35H103.04ZM107.25 63.35L90.52 46.68V43.59L110.35 63.36H107.25V63.35Z" fill="#33284C"/>
<path d="M109.16 28.9001H100.69C100.48 28.9001 100.3 28.7301 100.3 28.5101C100.3 28.2901 100.47 28.1201 100.69 28.1201H109.16C109.37 28.1201 109.55 28.2901 109.55 28.5101C109.55 28.7301 109.38 28.9001 109.16 28.9001Z" fill="#33284C"/>
<path d="M102.44 21.6501H93.2001C92.9901 21.6501 92.8101 21.4801 92.8101 21.2601C92.8101 21.0401 92.9801 20.8701 93.2001 20.8701H102.44C102.65 20.8701 102.83 21.0401 102.83 21.2601C102.83 21.4801 102.66 21.6501 102.44 21.6501Z" fill="#33284C"/>
<path d="M101.5 24.07H95.37C95.16 24.07 94.98 23.9 94.98 23.68C94.98 23.46 95.15 23.29 95.37 23.29H101.5C101.71 23.29 101.89 23.46 101.89 23.68C101.89 23.9 101.72 24.07 101.5 24.07Z" fill="#33284C"/>
<path d="M104.28 26.4802H98.2401C98.0301 26.4802 97.8501 26.3102 97.8501 26.0902C97.8501 25.8702 98.0201 25.7002 98.2401 25.7002H104.28C104.49 25.7002 104.67 25.8702 104.67 26.0902C104.67 26.3102 104.5 26.4802 104.28 26.4802Z" fill="#33284C"/>
<path d="M113.24 28.9001H111.56C111.35 28.9001 111.17 28.7301 111.17 28.5101C111.17 28.2901 111.34 28.1201 111.56 28.1201H113.24C113.45 28.1201 113.63 28.2901 113.63 28.5101C113.63 28.7301 113.46 28.9001 113.24 28.9001Z" fill="#33284C"/>
<path d="M90.5402 84.0598H63.7402V57.3398H90.5402V84.0598ZM64.5202 83.2898H89.7702V58.1198H64.5202V83.2898Z" fill="#33284C"/>
<path d="M62.33 14.7998H50.25V26.8398H62.33V14.7998Z" fill="#33284C"/>
<path d="M64.5099 29.0402H51.6499V16.2202H64.5099V29.0402ZM52.4299 28.2702H63.7299V17.0002H52.4299V28.2702Z" fill="#33284C"/>
<path d="M54.5999 17.7197H53.1899V19.1197H54.5999V17.7197Z" fill="#33284C"/>
<path d="M57.41 17.7197H56V19.1197H57.41V17.7197Z" fill="#33284C"/>
<path d="M60.2298 17.7197H58.8198V19.1197H60.2298V17.7197Z" fill="#33284C"/>
<path d="M63.0399 17.7197H61.6299V19.1197H63.0399V17.7197Z" fill="#33284C"/>
<path d="M54.5999 20.5298H53.1899V21.9298H54.5999V20.5298Z" fill="#33284C"/>
<path d="M57.41 20.5298H56V21.9298H57.41V20.5298Z" fill="#33284C"/>
<path d="M60.2298 20.5298H58.8198V21.9298H60.2298V20.5298Z" fill="#33284C"/>
<path d="M63.0399 20.5298H61.6299V21.9298H63.0399V20.5298Z" fill="#33284C"/>
<path d="M54.5999 23.3296H53.1899V24.7296H54.5999V23.3296Z" fill="#33284C"/>
<path d="M57.41 23.3296H56V24.7296H57.41V23.3296Z" fill="#33284C"/>
<path d="M60.2298 23.3296H58.8198V24.7296H60.2298V23.3296Z" fill="#33284C"/>
<path d="M63.0399 23.3296H61.6299V24.7296H63.0399V23.3296Z" fill="#33284C"/>
<path d="M54.5999 26.1396H53.1899V27.5396H54.5999V26.1396Z" fill="#33284C"/>
<path d="M57.41 26.1396H56V27.5396H57.41V26.1396Z" fill="#33284C"/>
<path d="M60.2298 26.1396H58.8198V27.5396H60.2298V26.1396Z" fill="#33284C"/>
<path d="M63.0399 26.1396H61.6299V27.5396H63.0399V26.1396Z" fill="#33284C"/>
<path d="M90.5397 29.0398H63.7397V2.31982H90.5397V29.0398ZM64.5197 28.2698H89.7697V3.09982H64.5197V28.2598V28.2698Z" fill="#33284C"/>
<path d="M90.54 58.1198H2.25V28.2598H90.54V58.1098V58.1198ZM3.03 57.3498H89.76V29.0398H3.02V57.3498H3.03Z" fill="#33284C"/>
<path d="M12.1099 48.1497V38.2197H15.9399C18.5599 38.2197 20.2399 38.2297 20.2399 40.8397C20.2399 41.1797 20.2399 42.5897 18.9999 42.8997V43.1797C20.2399 43.4897 20.3799 45.0397 20.3799 45.3797C20.3799 48.0697 18.6899 48.1397 16.0799 48.1397H12.1099V48.1497ZM13.6299 39.5697V42.3697H17.0299C18.5499 42.3697 18.5499 42.3597 18.5499 40.9697C18.5499 39.5797 18.5499 39.5697 17.0299 39.5697H13.6299ZM13.6299 43.7197V46.7997H17.1699C18.6899 46.7997 18.6899 46.7297 18.6899 45.2597C18.6899 43.7897 18.6899 43.7197 17.1699 43.7197H13.6299Z" fill="#33284C"/>
<path d="M29.8897 38.23H31.4097V48.16H29.8897V43.73H24.4897V48.16H22.9697V38.23H24.4897V42.38H29.8897V38.23Z" fill="#33284C"/>
<path d="M36.2901 46.3C36.2901 45.87 36.3201 45.43 36.8801 44.6L41.2301 38.22H43.0601V48.15H41.5401V40.07H41.1001C41.1001 40.55 41.0401 41.04 40.3401 42.06L36.1601 48.14H34.3301V38.21H35.8501V46.29H36.2901V46.3Z" fill="#33284C"/>
<path d="M47.9297 46.3C47.9297 45.87 47.9597 45.43 48.5197 44.6L52.8697 38.22H54.6997V48.15H53.1797V40.07H52.7397C52.7397 40.55 52.6797 41.04 51.9797 42.06L47.7997 48.14H45.9697V38.21H47.4897V46.29H47.9297V46.3Z" fill="#33284C"/>
<path d="M60.0597 43.19L56.6997 38.73V38.23H58.3897C60.1597 40.58 61.0897 41.82 61.0897 42.52H63.1997V38.23H64.7197V42.52H66.8297C66.8297 41.82 67.7597 40.58 69.5297 38.23H71.2197V38.73L67.8597 43.19L71.2197 47.65V48.15H69.5297C67.7597 45.79 66.8297 44.56 66.8297 43.86H64.7197V48.15H63.1997V43.86H61.0897C61.0897 44.56 60.1597 45.79 58.3897 48.15H56.6997V47.65L60.0597 43.19Z" fill="#33284C"/>
<path d="M80.6699 38.23V39.58H77.1699V48.16H75.6499V39.58H72.1499V38.23H80.6699Z" fill="#33284C"/>
<path d="M89.7598 10.6602V43.0202H128.75V10.6602H89.7598ZM127.97 42.2502H90.5298V11.4302H127.97V42.2502Z" fill="#33284C"/>
<path d="M124.58 27.4299C123.94 26.7799 123.35 26.2099 122.8 25.7099C122.78 25.6899 122.76 25.6699 122.74 25.6599C119.55 22.7899 117.78 22.2999 116.43 21.9199L115.97 21.7899C112.59 20.9399 108.52 20.8799 108.34 20.8799H104.13C103.92 20.8799 103.74 21.0499 103.74 21.2699C103.74 21.4899 103.91 21.6599 104.13 21.6599H108.33C108.33 21.6599 111.85 21.7199 114.96 22.3599C116.07 24.3199 118.41 25.8499 120.08 26.3099C120.61 26.4599 121.1 26.4999 121.5 26.4999C121.9 26.4999 122.22 26.4499 122.42 26.4199C122.92 26.8799 123.45 27.3899 124.02 27.9699C124.07 28.0299 124.12 28.0799 124.16 28.1299H116.08C115.87 28.1299 115.69 28.2999 115.69 28.5199C115.69 28.7399 115.87 28.9099 116.08 28.9099H124.53C124.53 28.9099 124.53 28.9199 124.53 28.9299C124.53 28.9699 124.51 29.0999 124.26 29.2599C124.01 29.4199 123.8 29.5199 123.57 29.5999C123.32 29.6899 123.03 29.7399 122.7 29.7599L122.43 29.7799C122.31 29.7799 122.2 29.8499 122.13 29.9499C122.06 30.0499 122.04 30.1699 122.09 30.2899L122.18 30.5499H104.19C103.98 30.5499 103.8 30.7199 103.8 30.9399C103.8 31.1599 103.97 31.3299 104.19 31.3299H110.62C110.62 32.1499 111.3 32.8099 112.11 32.8099C112.92 32.8099 113.6 32.1499 113.61 31.3299H115.77C115.77 32.1499 116.45 32.8099 117.27 32.8099C118.09 32.8099 118.76 32.1499 118.77 31.3299H122.73C122.85 31.3299 122.97 31.2699 123.05 31.1699C123.12 31.0699 123.14 30.9399 123.1 30.8199L122.99 30.5199C123.29 30.4899 123.57 30.4299 123.83 30.3399C124.12 30.2399 124.38 30.1199 124.7 29.9099C125.15 29.6299 125.28 29.2799 125.31 29.0399C125.37 28.5599 125.14 28.0499 124.6 27.4499L124.58 27.4299ZM120.28 25.5599C118.95 25.1999 117.16 24.0899 116.06 22.6399C116.11 22.6499 116.16 22.6599 116.21 22.6799C117.4 23.0099 118.95 23.4399 121.62 25.7199C121.26 25.7299 120.79 25.6999 120.28 25.5599ZM112.11 32.0299C111.72 32.0299 111.4 31.7199 111.39 31.3199H112.83C112.83 31.7099 112.5 32.0299 112.11 32.0299ZM117.26 32.0299C116.87 32.0299 116.55 31.7199 116.54 31.3199H117.98C117.98 31.7099 117.65 32.0299 117.26 32.0299Z" fill="#33284C"/>
<path d="M86.04 11.3401C85.41 10.1101 83.46 9.79012 80.66 10.4401C80.46 9.64012 80.19 8.89012 79.88 8.27012C80.12 8.01012 80.25 7.68012 80.25 7.31012C80.25 6.52012 79.6 5.87012 78.79 5.87012C78.45 5.87012 78.14 5.98012 77.9 6.19012C77.73 6.14012 77.57 6.11012 77.4 6.11012C76.03 6.11012 74.84 7.69012 74.13 10.4501C71.34 9.81012 69.38 10.1201 68.75 11.3501C68.17 12.4601 68.87 14.0901 70.68 15.8101C70.41 16.0401 70.16 16.3001 69.94 16.5801C69.8 16.5201 69.63 16.4901 69.45 16.4901C68.65 16.4901 68 17.1501 68 17.9401C68 18.4101 68.23 18.8401 68.58 19.0901C68.52 19.5101 68.57 19.9101 68.75 20.2601C69.17 21.0601 70.17 21.4801 71.6 21.4801C72.33 21.4801 73.18 21.3801 74.12 21.1601C74.82 23.9101 76 25.4901 77.39 25.4901C78.78 25.4901 79.93 23.9101 80.64 21.1501C81.04 21.2401 81.41 21.3101 81.75 21.3601C81.86 22.0501 82.46 22.5801 83.18 22.5801C83.9 22.5801 84.53 22.0201 84.62 21.3001C85.29 21.1001 85.77 20.7501 86.03 20.2701C86.61 19.1601 85.91 17.5301 84.11 15.8001C85.92 14.0801 86.61 12.4601 86.03 11.3501L86.04 11.3401ZM80.35 13.0001C79.98 12.7701 79.6 12.5701 79.2 12.3601C78.92 12.2201 78.65 12.0901 78.39 11.9601C78.96 11.7401 79.53 11.5501 80.09 11.4001C80.19 11.9001 80.29 12.4301 80.35 13.0001ZM78.28 6.89012C78.28 6.89012 78.31 6.85012 78.32 6.84012C78.44 6.72012 78.61 6.64012 78.8 6.64012C79.17 6.64012 79.48 6.94012 79.48 7.31012C79.48 7.53012 79.39 7.71012 79.23 7.84012C79.2 7.86012 79.18 7.88012 79.15 7.90012C79.05 7.96012 78.92 7.99012 78.8 7.99012C78.43 7.99012 78.13 7.69012 78.13 7.31012C78.13 7.15012 78.19 7.00012 78.29 6.89012H78.28ZM77.42 6.89012C77.37 7.02012 77.35 7.17012 77.35 7.31012C77.35 8.11012 78 8.76012 78.8 8.76012C78.96 8.76012 79.1 8.74012 79.23 8.69012C79.5 9.26012 79.73 9.92012 79.9 10.6401C79.07 10.8701 78.24 11.1801 77.41 11.5301C76.56 11.1801 75.72 10.8701 74.9 10.6401C75.49 8.33012 76.49 6.89012 77.42 6.89012ZM74.72 11.3901C75.28 11.5401 75.85 11.7401 76.42 11.9601C76.17 12.0701 75.9 12.2101 75.61 12.3601C75.21 12.5701 74.82 12.7701 74.45 13.0001C74.52 12.4301 74.61 11.9001 74.72 11.3901ZM74.45 18.6001C74.82 18.8201 75.21 19.0201 75.61 19.2301C75.88 19.3701 76.15 19.5101 76.41 19.6301C75.84 19.8601 75.27 20.0401 74.71 20.2001C74.61 19.7101 74.52 19.1601 74.45 18.6001ZM69.46 11.6901C69.89 10.8501 71.64 10.6701 73.97 11.2001C73.81 11.9101 73.7 12.6801 73.63 13.5101C72.76 14.0701 71.97 14.6501 71.27 15.2801C69.75 13.8301 69.06 12.4701 69.46 11.6901ZM73.54 17.1001C72.92 16.6901 72.35 16.2501 71.83 15.8001C72.35 15.3401 72.92 14.9001 73.54 14.4901C73.52 14.9001 73.51 15.3401 73.51 15.8001C73.51 16.2601 73.52 16.6901 73.54 17.1001ZM69.21 18.5601C68.96 18.4601 68.8 18.2101 68.8 17.9301C68.8 17.5601 69.1 17.2601 69.47 17.2601C69.84 17.2601 70.15 17.5601 70.15 17.9301C70.15 18.3001 69.84 18.6101 69.47 18.6101C69.4 18.6101 69.31 18.6001 69.25 18.5801C69.23 18.5701 69.22 18.5601 69.21 18.5601ZM69.46 19.9001C69.39 19.7601 69.35 19.5701 69.35 19.3701C69.39 19.3801 69.43 19.3801 69.47 19.3801C70.28 19.3801 70.93 18.7301 70.93 17.9301C70.93 17.5901 70.81 17.2701 70.6 17.0201C70.81 16.7701 71.03 16.5401 71.27 16.3201C71.97 16.9501 72.76 17.5301 73.63 18.0801C73.7 18.9001 73.82 19.6801 73.97 20.3901C71.64 20.9301 69.9 20.7401 69.46 19.9001ZM77.41 24.7101C76.46 24.7101 75.49 23.2601 74.9 20.9601C75.73 20.7201 76.56 20.4201 77.4 20.0601C78.23 20.4201 79.07 20.7201 79.9 20.9601C79.31 23.2501 78.35 24.7101 77.41 24.7101ZM80.09 20.2001C79.53 20.0601 78.96 19.8601 78.4 19.6301C78.66 19.5101 78.92 19.3701 79.2 19.2301C79.59 19.0301 79.98 18.8201 80.35 18.5901C80.29 19.1501 80.21 19.6901 80.09 20.2001ZM80.44 17.6301C79.94 17.9501 79.41 18.2601 78.84 18.5501C78.33 18.8001 77.87 19.0201 77.41 19.2201C76.94 19.0301 76.47 18.8101 75.96 18.5501C75.4 18.2601 74.86 17.9501 74.36 17.6301C74.31 17.0601 74.29 16.4601 74.29 15.8001C74.29 15.1401 74.31 14.5401 74.36 13.9701C74.86 13.6501 75.4 13.3401 75.96 13.0501C76.51 12.7701 76.97 12.5501 77.4 12.3701H77.41C77.88 12.5801 78.34 12.7901 78.84 13.0501C79.4 13.3401 79.94 13.6401 80.44 13.9601C80.49 14.5401 80.51 15.1301 80.51 15.8001C80.51 16.4701 80.49 17.0701 80.44 17.6301ZM85.34 11.6801C85.74 12.4501 85.05 13.8101 83.54 15.2701C82.84 14.6401 82.05 14.0501 81.17 13.5101C81.11 12.6901 80.99 11.9001 80.83 11.2001C83.16 10.6601 84.9 10.8401 85.34 11.6801ZM81.26 14.4801C81.88 14.8901 82.46 15.3301 82.98 15.7901C82.46 16.2301 81.89 16.6801 81.26 17.1001C81.28 16.6901 81.29 16.2401 81.29 15.7901C81.29 15.3401 81.28 14.8901 81.26 14.4801ZM83.88 21.1101C83.88 21.4801 83.57 21.7901 83.2 21.7901C82.83 21.7901 82.53 21.4801 82.53 21.1101V21.0601C82.53 21.0601 82.54 21.0001 82.54 20.9801C82.6 20.6701 82.87 20.4401 83.2 20.4401C83.53 20.4401 83.8 20.6701 83.87 20.9701C83.87 21.0001 83.88 21.0301 83.88 21.0601V21.1101ZM85.35 19.8901C85.21 20.1601 84.93 20.3601 84.51 20.5001C84.28 20.0101 83.79 19.6701 83.2 19.6701C82.61 19.6701 82.07 20.0401 81.86 20.5801C81.55 20.5501 81.23 20.4801 80.85 20.3901C81.02 19.6801 81.13 18.9001 81.19 18.0801C82.07 17.5201 82.86 16.9401 83.56 16.3101C85.07 17.7601 85.76 19.1201 85.36 19.9001L85.35 19.8901Z" fill="#33284C"/>
<path d="M77.2601 79.19H75.1401C74.6301 79.19 74.2101 78.78 74.2101 78.27V77.14C74.2101 77.08 74.1701 77.03 74.1001 77.01C73.7701 76.9 73.4401 76.77 73.1201 76.61C73.0601 76.58 72.9901 76.58 72.9501 76.63L72.1501 77.42C71.7801 77.78 71.2001 77.78 70.8401 77.42L69.3401 75.92C68.9801 75.56 68.9801 74.98 69.3401 74.62L70.1401 73.82C70.1401 73.82 70.1901 73.71 70.1601 73.65C70.0001 73.34 69.8701 73.01 69.7601 72.67C69.7401 72.62 69.7001 72.56 69.6201 72.56H68.4901C67.9801 72.56 67.5601 72.15 67.5601 71.64V69.53C67.5601 69.02 67.9801 68.61 68.4901 68.61H69.6201C69.6901 68.61 69.7401 68.55 69.7601 68.5C69.8701 68.16 70.0001 67.84 70.1601 67.52C70.1801 67.47 70.1901 67.4 70.1401 67.35L69.3401 66.56C68.9801 66.19 68.9801 65.61 69.3401 65.25L70.8401 63.76C71.2001 63.4 71.7801 63.4 72.1501 63.76L72.9501 64.56C72.9501 64.56 73.0601 64.61 73.1201 64.58C73.4401 64.42 73.7701 64.29 74.1001 64.18C74.1701 64.16 74.2101 64.11 74.2101 64.05V62.92C74.2101 62.41 74.6301 62 75.1401 62H77.2601C77.7701 62 78.1901 62.41 78.1901 62.92V63.98C78.1901 64.19 78.0201 64.37 77.8001 64.37C77.5801 64.37 77.4101 64.2 77.4101 63.98V62.92C77.4101 62.84 77.3401 62.77 77.2601 62.77H75.1401C75.0601 62.77 74.9901 62.84 74.9901 62.92V64.05C74.9901 64.45 74.7301 64.8 74.3401 64.92C74.0501 65.01 73.7501 65.13 73.4701 65.27C73.1101 65.45 72.6801 65.39 72.4001 65.11L71.6001 64.32C71.5401 64.26 71.4501 64.26 71.3901 64.32L69.8901 65.82C69.8301 65.88 69.8301 65.97 69.8901 66.03L70.6801 66.82C70.9601 67.1 71.0301 67.53 70.8401 67.89C70.7001 68.17 70.5801 68.46 70.4801 68.75C70.3601 69.14 70.0001 69.4 69.6101 69.4H68.4801C68.4001 69.4 68.3301 69.47 68.3301 69.55V71.66C68.3301 71.74 68.4001 71.81 68.4801 71.81H69.6101C70.0101 71.81 70.3601 72.07 70.4801 72.46C70.5801 72.76 70.7001 73.05 70.8401 73.32C71.0201 73.68 70.9601 74.11 70.6801 74.39L69.8801 75.18C69.8201 75.24 69.8201 75.33 69.8801 75.39L71.3801 76.89C71.4401 76.95 71.5301 76.94 71.5901 76.89L72.3801 76.1C72.6601 75.82 73.0901 75.75 73.4501 75.94C73.7301 76.08 74.0201 76.2 74.3201 76.29C74.7101 76.41 74.9701 76.76 74.9701 77.16V78.29C74.9701 78.37 75.0401 78.44 75.1201 78.44H77.2401C77.3201 78.44 77.3901 78.37 77.3901 78.29V77.24C77.3901 77.03 77.5601 76.85 77.7801 76.85C78.0001 76.85 78.1701 77.02 78.1701 77.24V78.29C78.1701 78.8 77.7501 79.21 77.2401 79.21L77.2601 79.19Z" fill="#33284C"/>
<path d="M82.5899 61.4399C81.7899 61.4399 81.1399 62.0899 81.1399 62.8899C81.1399 63.2099 81.2399 63.5099 81.4299 63.7499L79.2399 65.9299H77.7999C77.5799 65.9299 77.4199 66.1099 77.4199 66.3099C77.4199 66.5299 77.5899 66.6999 77.7999 66.6999H79.3999C79.4899 66.6999 79.5999 66.6599 79.6699 66.5899L82.0499 64.2199C82.2199 64.2899 82.3899 64.3299 82.5899 64.3299C83.3999 64.3299 84.0499 63.6799 84.0499 62.8899C84.0499 62.0999 83.3999 61.4399 82.5899 61.4399ZM82.5899 63.5599C82.2199 63.5599 81.9199 63.2599 81.9199 62.8899C81.9199 62.5199 82.2199 62.2099 82.5899 62.2099C82.9599 62.2099 83.2699 62.5199 83.2699 62.8899C83.2699 63.2599 82.9599 63.5599 82.5899 63.5599Z" fill="#33284C"/>
<path d="M72.8798 73.6002C72.7698 73.6002 72.6498 73.5502 72.5798 73.4502C71.9298 72.6302 71.5698 71.6102 71.5698 70.5602C71.5698 68.0102 73.6498 65.9302 76.2098 65.9302C76.4198 65.9302 76.5998 66.1002 76.5998 66.3202C76.5998 66.5402 76.4298 66.7102 76.2098 66.7102C74.0798 66.7102 72.3398 68.4402 72.3398 70.5602C72.3398 71.4402 72.6298 72.2802 73.1898 72.9602C73.3198 73.1302 73.2998 73.3702 73.1298 73.5002C73.0598 73.5602 72.9698 73.5802 72.8898 73.5802L72.8798 73.6002Z" fill="#33284C"/>
<path d="M75.5398 75.1399C75.5398 75.1399 75.4999 75.1399 75.4799 75.1399C75.0399 75.0699 74.5998 74.9399 74.1998 74.7399C74.0098 74.6499 73.9298 74.4199 74.0198 74.2199C74.1098 74.0299 74.3498 73.9499 74.5398 74.0399C74.8798 74.1999 75.2398 74.3099 75.6098 74.3699C75.8198 74.3999 75.9698 74.5999 75.9298 74.8099C75.8998 74.9999 75.7299 75.1399 75.5499 75.1399H75.5398Z" fill="#33284C"/>
<path d="M84.1899 73.8901C83.5199 73.8901 82.9599 74.3401 82.7899 74.9501H82.2399L80.2199 72.4401C80.1499 72.3501 80.0299 72.3001 79.9199 72.3001H76.8599C75.8999 72.3001 75.1199 71.5301 75.1199 70.5701C75.1199 70.1101 75.2999 69.6701 75.6299 69.3401C75.9599 69.0101 76.3999 68.8401 76.8599 68.8401H79.9199C80.0199 68.8401 80.1199 68.8001 80.1899 68.7301L82.2099 66.7201H82.7899C82.9599 67.3301 83.5099 67.7801 84.1899 67.7801C84.9899 67.7801 85.6399 67.1301 85.6399 66.3301C85.6399 65.5301 84.9899 64.8901 84.1899 64.8901C83.5199 64.8901 82.9599 65.3401 82.7899 65.9501H82.0599C81.9599 65.9501 81.8499 65.9901 81.7799 66.0601L79.7599 68.0701H76.8699C76.1999 68.0701 75.5699 68.3301 75.0899 68.8001C74.6099 69.2701 74.3599 69.9101 74.3599 70.5701C74.3599 71.9501 75.4899 73.0701 76.8699 73.0701H79.7399L81.7499 75.5801C81.8299 75.6601 81.9399 75.7201 82.0599 75.7201H82.7899C82.9599 76.3301 83.5099 76.7801 84.1899 76.7801C84.9899 76.7801 85.6399 76.1301 85.6399 75.3301C85.6399 74.5301 84.9899 73.8901 84.1899 73.8901ZM84.1899 65.6501C84.5599 65.6501 84.8599 65.9501 84.8599 66.3201C84.8599 66.6901 84.5599 67.0001 84.1899 67.0001C83.8199 67.0001 83.5099 66.7001 83.5099 66.3201C83.5099 65.9401 83.8099 65.6501 84.1899 65.6501ZM84.1899 76.0101C83.8099 76.0101 83.5099 75.7101 83.5099 75.3401C83.5099 74.9701 83.8099 74.6701 84.1899 74.6701C84.5699 74.6701 84.8599 74.9701 84.8599 75.3401C84.8599 75.7101 84.5599 76.0101 84.1899 76.0101Z" fill="#33284C"/>
<path d="M85.2402 69.1201C84.5802 69.1201 84.0202 69.5601 83.8502 70.1701H77.7902C77.5702 70.1701 77.4102 70.3501 77.4102 70.5601C77.4102 70.7701 77.5802 70.9501 77.7902 70.9501H83.8502C84.0202 71.5601 84.5702 72.0001 85.2402 72.0001C86.0502 72.0001 86.7001 71.3501 86.7001 70.5601C86.7001 69.7701 86.0502 69.1201 85.2402 69.1201ZM85.2402 71.2301C84.8702 71.2301 84.5702 70.9301 84.5702 70.5601C84.5702 70.1901 84.8702 69.8901 85.2402 69.8901C85.6102 69.8901 85.9202 70.1901 85.9202 70.5601C85.9202 70.9301 85.6102 71.2301 85.2402 71.2301Z" fill="#33284C"/>
<path d="M81.5199 77.0702C81.2699 77.0702 81.0299 77.1302 80.8299 77.2602L78.5499 74.5602C78.4799 74.4802 78.3599 74.4302 78.2499 74.4302H77.0299C76.8099 74.4302 76.6499 74.6102 76.6499 74.8202C76.6499 75.0302 76.8199 75.2002 77.0299 75.2002H78.0699L80.2699 77.8102C80.1499 78.0202 80.0699 78.2602 80.0699 78.5302C80.0699 79.3202 80.7199 79.9702 81.5199 79.9702C82.3199 79.9702 82.9799 79.3202 82.9799 78.5302C82.9799 77.7402 82.3299 77.0802 81.5199 77.0802V77.0702ZM81.5199 79.1902C81.1499 79.1902 80.8499 78.8902 80.8499 78.5202C80.8499 78.1502 81.1499 77.8402 81.5199 77.8402C81.8899 77.8402 82.1999 78.1502 82.1999 78.5202C82.1999 78.8902 81.8899 79.1902 81.5199 79.1902Z" fill="#33284C"/>
</svg>
