<svg width="730" height="8" viewBox="0 0 730 8" fill="none" xmlns="http://www.w3.org/2000/svg">
<path d="M28.8972 8C26.626 8 24.2568 7.8 21.7895 7.4C19.3223 7 17.2065 6.53333 15.4423 6C13.9552 5.49867 12.3126 5.04 10.5145 4.624C8.71649 4.208 6.90154 4 5.06969 4C3.75833 4 2.58554 3.796 1.55132 3.388C0.517107 2.98 0 2.51733 0 2C0 1.432 0.517107 0.955999 1.55132 0.571999C2.58554 0.190665 3.75833 0 5.06969 0C7.4761 0 9.88927 0.195998 12.3092 0.587998C14.7224 0.979998 16.8584 1.45067 18.7173 2C20.0692 2.43733 21.6476 2.88 23.4524 3.328C25.2572 3.776 27.0721 4 28.8972 4C30.6818 4 32.473 3.776 34.2711 3.328C36.0691 2.88 37.6543 2.43733 39.0265 2C40.7975 1.45067 42.9234 0.979998 45.4041 0.587998C47.8849 0.195998 50.244 0 52.4814 0C54.7594 0 57.1388 0.195998 59.6195 0.587998C62.1003 0.979998 64.2059 1.45067 65.9364 2C67.4235 2.43733 69.0694 2.88 70.8742 3.328C72.679 3.776 74.4906 4 76.309 4C78.0935 4 79.8848 3.776 81.6828 3.328C83.4809 2.88 85.0626 2.43733 86.428 2C88.3207 1.45067 90.4804 0.979998 92.9071 0.587998C95.3203 0.195998 97.6456 0 99.883 0C102.289 0 104.689 0.195998 107.082 0.587998C109.488 0.979998 111.638 1.45067 113.531 2C114.883 2.43733 116.471 2.88 118.296 3.328C120.121 3.776 121.926 4 123.711 4C125.536 4 127.351 3.776 129.155 3.328C130.96 2.88 132.603 2.43733 134.083 2C135.854 1.45067 137.97 0.979998 140.43 0.587998C142.891 0.195998 145.26 0 147.538 0C148.849 0 150.022 0.190665 151.056 0.571999C152.091 0.953332 152.608 1.42933 152.608 2C152.608 2.51733 152.091 2.98 151.056 3.388C150.022 3.796 148.849 4 147.538 4C145.713 4 143.898 4.22133 142.093 4.664C140.288 5.104 138.646 5.54933 137.165 6C135.225 6.53333 133.025 7 130.565 7.4C128.104 7.8 125.735 8 123.457 8C121.179 8 118.81 7.8 116.349 7.4C113.889 7 111.773 6.53333 110.002 6C108.515 5.49867 106.869 5.04 105.064 4.624C103.259 4.208 101.448 4 99.6295 4C97.8517 4 96.0604 4.208 94.2556 4.624C92.4508 5.04 90.8691 5.49867 89.5104 6C87.6177 6.53333 85.4614 7 83.0415 7.4C80.6216 7.8 78.2895 8 76.0453 8C73.7741 8 71.3947 7.8 68.9072 7.4C66.4197 7 64.2499 6.53333 62.3977 6C61.0458 5.49867 59.4674 5.04 57.6626 4.624C55.8578 4.208 54.0429 4 52.2178 4C50.44 4 48.6487 4.208 46.8439 4.624C45.0391 5.04 43.454 5.49867 42.0886 6C40.3243 6.53333 38.2085 7 35.7413 7.4C33.2741 7.8 30.9995 8 28.8972 8Z" fill="#96AEFF"/>
<path d="M316.807 8C314.536 8 312.167 7.8 309.7 7.4C307.232 7 305.117 6.53333 303.352 6C301.865 5.49867 300.223 5.04 298.425 4.624C296.627 4.208 294.812 4 292.98 4C291.668 4 290.496 3.796 289.461 3.388C288.427 2.98 287.91 2.51733 287.91 2C287.91 1.432 288.427 0.955999 289.461 0.571999C290.496 0.190665 291.668 0 292.98 0C295.386 0 297.799 0.195998 300.219 0.587998C302.633 0.979998 304.769 1.45067 306.627 2C307.979 2.43733 309.558 2.88 311.363 3.328C313.167 3.776 314.982 4 316.807 4C318.592 4 320.383 3.776 322.181 3.328C323.979 2.88 325.564 2.43733 326.937 2C328.708 1.45067 330.834 0.979998 333.314 0.587998C335.795 0.195998 338.154 0 340.392 0C342.67 0 345.049 0.195998 347.53 0.587998C350.01 0.979998 352.116 1.45067 353.847 2C355.334 2.43733 356.98 2.88 358.784 3.328C360.589 3.776 362.401 4 364.219 4C366.004 4 367.795 3.776 369.593 3.328C371.391 2.88 372.973 2.43733 374.338 2C376.231 1.45067 378.391 0.979998 380.817 0.587998C383.23 0.195998 385.556 0 387.793 0C390.2 0 392.599 0.195998 394.992 0.587998C397.399 0.979998 399.548 1.45067 401.441 2C402.793 2.43733 404.381 2.88 406.206 3.328C408.031 3.776 409.836 4 411.621 4C413.446 4 415.261 3.776 417.066 3.328C418.87 2.88 420.513 2.43733 421.993 2C423.764 1.45067 425.88 0.979998 428.341 0.587998C430.801 0.195998 433.17 0 435.448 0C436.76 0 437.932 0.190665 438.967 0.571999C440.001 0.953332 440.518 1.42933 440.518 2C440.518 2.51733 440.001 2.98 438.967 3.388C437.932 3.796 436.76 4 435.448 4C433.623 4 431.808 4.22133 430.003 4.664C428.199 5.104 426.556 5.54933 425.076 6C423.136 6.53333 420.935 7 418.475 7.4C416.014 7.8 413.645 8 411.367 8C409.089 8 406.72 7.8 404.26 7.4C401.799 7 399.683 6.53333 397.912 6C396.425 5.49867 394.779 5.04 392.974 4.624C391.17 4.208 389.358 4 387.54 4C385.762 4 383.971 4.208 382.166 4.624C380.361 5.04 378.779 5.49867 377.421 6C375.528 6.53333 373.372 7 370.952 7.4C368.532 7.8 366.2 8 363.955 8C361.684 8 359.305 7.8 356.817 7.4C354.33 7 352.16 6.53333 350.308 6C348.956 5.49867 347.378 5.04 345.573 4.624C343.768 4.208 341.953 4 340.128 4C338.35 4 336.559 4.208 334.754 4.624C332.949 5.04 331.364 5.49867 329.999 6C328.234 6.53333 326.119 7 323.651 7.4C321.184 7.8 318.91 8 316.807 8Z" fill="#96AEFF"/>
<path d="M173.639 8C171.368 8 168.999 7.8 166.532 7.4C164.064 7 161.949 6.53333 160.184 6C158.697 5.49867 157.055 5.04 155.257 4.624C153.459 4.208 151.644 4 149.812 4C148.501 4 147.328 3.796 146.294 3.388C145.259 2.98 144.742 2.51733 144.742 2C144.742 1.432 145.259 0.955999 146.294 0.571999C147.328 0.190665 148.501 0 149.812 0C152.218 0 154.631 0.195998 157.051 0.587998C159.465 0.979998 161.601 1.45067 163.459 2C164.811 2.43733 166.39 2.88 168.195 3.328C169.999 3.776 171.814 4 173.639 4C175.424 4 177.215 3.776 179.013 3.328C180.811 2.88 182.396 2.43733 183.769 2C185.54 1.45067 187.666 0.979998 190.146 0.587998C192.627 0.195998 194.986 0 197.224 0C199.502 0 201.881 0.195998 204.362 0.587998C206.842 0.979998 208.948 1.45067 210.679 2C212.166 2.43733 213.812 2.88 215.616 3.328C217.421 3.776 219.233 4 221.051 4C222.836 4 224.627 3.776 226.425 3.328C228.223 2.88 229.805 2.43733 231.17 2C233.063 1.45067 235.223 0.979998 237.649 0.587998C240.062 0.195998 242.388 0 244.625 0C247.032 0 249.431 0.195998 251.824 0.587998C254.231 0.979998 256.38 1.45067 258.273 2C259.625 2.43733 261.213 2.88 263.038 3.328C264.863 3.776 266.668 4 268.453 4C270.278 4 272.093 3.776 273.898 3.328C275.702 2.88 277.345 2.43733 278.825 2C280.596 1.45067 282.712 0.979998 285.173 0.587998C287.633 0.195998 290.002 0 292.28 0C293.592 0 294.764 0.190665 295.799 0.571999C296.833 0.953332 297.35 1.42933 297.35 2C297.35 2.51733 296.833 2.98 295.799 3.388C294.764 3.796 293.592 4 292.28 4C290.455 4 288.64 4.22133 286.835 4.664C285.031 5.104 283.388 5.54933 281.908 6C279.968 6.53333 277.767 7 275.307 7.4C272.846 7.8 270.477 8 268.199 8C265.921 8 263.552 7.8 261.092 7.4C258.631 7 256.515 6.53333 254.744 6C253.257 5.49867 251.611 5.04 249.806 4.624C248.002 4.208 246.19 4 244.372 4C242.594 4 240.803 4.208 238.998 4.624C237.193 5.04 235.611 5.49867 234.253 6C232.36 6.53333 230.204 7 227.784 7.4C225.364 7.8 223.032 8 220.788 8C218.516 8 216.137 7.8 213.649 7.4C211.162 7 208.992 6.53333 207.14 6C205.788 5.49867 204.21 5.04 202.405 4.624C200.6 4.208 198.785 4 196.96 4C195.182 4 193.391 4.208 191.586 4.624C189.781 5.04 188.196 5.49867 186.831 6C185.066 6.53333 182.951 7 180.483 7.4C178.016 7.8 175.742 8 173.639 8Z" fill="#96AEFF"/>
<path d="M461.548 8C459.276 8 456.907 7.8 454.44 7.4C451.973 7 449.857 6.53333 448.093 6C446.606 5.49867 444.963 5.04 443.165 4.624C441.367 4.208 439.552 4 437.72 4C436.409 4 435.236 3.796 434.202 3.388C433.167 2.98 432.65 2.51733 432.65 2C432.65 1.432 433.167 0.955999 434.202 0.571999C435.236 0.190665 436.409 0 437.72 0C440.126 0 442.54 0.195998 444.96 0.587998C447.373 0.979998 449.509 1.45067 451.368 2C452.72 2.43733 454.298 2.88 456.103 3.328C457.908 3.776 459.723 4 461.548 4C463.332 4 465.123 3.776 466.921 3.328C468.72 2.88 470.305 2.43733 471.677 2C473.448 1.45067 475.574 0.979998 478.055 0.587998C480.535 0.195998 482.894 0 485.132 0C487.41 0 489.789 0.195998 492.27 0.587998C494.751 0.979998 496.856 1.45067 498.587 2C500.074 2.43733 501.72 2.88 503.525 3.328C505.329 3.776 507.141 4 508.959 4C510.744 4 512.535 3.776 514.333 3.328C516.131 2.88 517.713 2.43733 519.078 2C520.971 1.45067 523.131 0.979998 525.558 0.587998C527.971 0.195998 530.296 0 532.533 0C534.94 0 537.339 0.195998 539.732 0.587998C542.139 0.979998 544.288 1.45067 546.181 2C547.533 2.43733 549.121 2.88 550.946 3.328C552.772 3.776 554.576 4 556.361 4C558.186 4 560.001 3.776 561.806 3.328C563.611 2.88 565.253 2.43733 566.734 2C568.505 1.45067 570.62 0.979998 573.081 0.587998C575.541 0.195998 577.91 0 580.188 0C581.5 0 582.673 0.190665 583.707 0.571999C584.741 0.953332 585.258 1.42933 585.258 2C585.258 2.51733 584.741 2.98 583.707 3.388C582.673 3.796 581.5 4 580.188 4C578.363 4 576.548 4.22133 574.744 4.664C572.939 5.104 571.296 5.54933 569.816 6C567.876 6.53333 565.676 7 563.215 7.4C560.755 7.8 558.385 8 556.107 8C553.829 8 551.46 7.8 549 7.4C546.539 7 544.424 6.53333 542.652 6C541.165 5.49867 539.519 5.04 537.715 4.624C535.91 4.208 534.098 4 532.28 4C530.502 4 528.711 4.208 526.906 4.624C525.101 5.04 523.519 5.49867 522.161 6C520.268 6.53333 518.112 7 515.692 7.4C513.272 7.8 510.94 8 508.696 8C506.424 8 504.045 7.8 501.558 7.4C499.07 7 496.9 6.53333 495.048 6C493.696 5.49867 492.118 5.04 490.313 4.624C488.508 4.208 486.693 4 484.868 4C483.09 4 481.299 4.208 479.494 4.624C477.689 5.04 476.104 5.49867 474.739 6C472.975 6.53333 470.859 7 468.392 7.4C465.924 7.8 463.65 8 461.548 8Z" fill="#96AEFF"/>
<path d="M606.29 8C604.019 8 601.649 7.8 599.182 7.4C596.715 7 594.599 6.53333 592.835 6C591.348 5.49867 589.705 5.04 587.907 4.624C586.109 4.208 584.294 4 582.462 4C581.151 4 579.978 3.796 578.944 3.388C577.91 2.98 577.393 2.51733 577.393 2C577.393 1.432 577.91 0.955999 578.944 0.571999C579.978 0.190665 581.151 0 582.462 0C584.869 0 587.282 0.195998 589.702 0.587998C592.115 0.979998 594.251 1.45067 596.11 2C597.462 2.43733 599.04 2.88 600.845 3.328C602.65 3.776 604.465 4 606.29 4C608.074 4 609.866 3.776 611.664 3.328C613.462 2.88 615.047 2.43733 616.419 2C618.19 1.45067 620.316 0.979998 622.797 0.587998C625.277 0.195998 627.637 0 629.874 0C632.152 0 634.531 0.195998 637.012 0.587998C639.493 0.979998 641.598 1.45067 643.329 2C644.816 2.43733 646.462 2.88 648.267 3.328C650.072 3.776 651.883 4 653.702 4C655.486 4 657.277 3.776 659.075 3.328C660.873 2.88 662.455 2.43733 663.821 2C665.713 1.45067 667.873 0.979998 670.3 0.587998C672.713 0.195998 675.038 0 677.276 0C679.682 0 682.082 0.195998 684.475 0.587998C686.881 0.979998 689.03 1.45067 690.923 2C692.275 2.43733 693.864 2.88 695.689 3.328C697.514 3.776 699.319 4 701.103 4C702.928 4 704.743 3.776 706.548 3.328C708.353 2.88 709.995 2.43733 711.476 2C713.247 1.45067 715.362 0.979998 717.823 0.587998C720.283 0.195998 722.653 0 724.931 0C726.242 0 727.415 0.190665 728.449 0.571999C729.483 0.953332 730 1.42933 730 2C730 2.51733 729.483 2.98 728.449 3.388C727.415 3.796 726.242 4 724.931 4C723.106 4 721.291 4.22133 719.486 4.664C717.681 5.104 716.038 5.54933 714.558 6C712.618 6.53333 710.418 7 707.957 7.4C705.497 7.8 703.128 8 700.85 8C698.572 8 696.202 7.8 693.742 7.4C691.281 7 689.166 6.53333 687.395 6C685.908 5.49867 684.262 5.04 682.457 4.624C680.652 4.208 678.84 4 677.022 4C675.244 4 673.453 4.208 671.648 4.624C669.843 5.04 668.262 5.49867 666.903 6C665.01 6.53333 662.854 7 660.434 7.4C658.014 7.8 655.682 8 653.438 8C651.167 8 648.787 7.8 646.3 7.4C643.812 7 641.642 6.53333 639.79 6C638.438 5.49867 636.86 5.04 635.055 4.624C633.25 4.208 631.435 4 629.61 4C627.833 4 626.041 4.208 624.236 4.624C622.432 5.04 620.847 5.49867 619.481 6C617.717 6.53333 615.601 7 613.134 7.4C610.667 7.8 608.392 8 606.29 8Z" fill="#96AEFF"/>
</svg>
