<svg width="390" height="97" viewBox="0 0 390 97" fill="none" xmlns="http://www.w3.org/2000/svg">
<path d="M35.8558 20.2158C30.018 21.7305 26.3422 25.4299 25.5494 30.5858C25.117 33.4405 25.2971 73.3766 25.7656 74.629C26.0178 75.4446 26.6665 75.736 26.6665 75.066C26.6665 74.8912 28.6126 73.8716 30.9909 72.8522C33.3331 71.8036 35.2071 70.8714 35.099 70.7549C35.0269 70.6383 35.135 70.4344 35.3512 70.318C35.6396 70.2013 35.6755 70.2306 35.5315 70.4344C35.099 70.9878 35.5315 70.8423 38.9188 69.2984C40.6844 68.4829 42.0539 67.6964 41.9458 67.5507C41.8377 67.4049 42.0539 67.3759 42.3782 67.4923C42.7747 67.609 42.9188 67.5507 42.7747 67.3759C42.6304 67.2011 42.8107 67.0847 43.1709 67.1137C43.4953 67.1137 43.7477 66.968 43.6755 66.7642C43.6396 66.5311 43.7477 66.4437 43.9639 66.5603C44.1801 66.6768 44.9369 66.4729 45.6215 66.1525C47.135 65.4243 47.4593 65.395 46.8466 65.9777C46.4863 66.3272 46.4863 66.502 46.8828 66.9099C47.3153 67.3759 47.3153 67.4049 46.8107 67.0847C46.3423 66.7932 45.9458 66.9973 44.2161 68.3955C43.0628 69.3275 42.2701 70.2013 42.4142 70.3471C42.5944 70.4635 42.5223 70.4928 42.3061 70.4054C41.8736 70.2013 39.8917 71.7162 40.1801 72.0365C40.2882 72.1531 40.252 72.1822 40.108 72.0948C39.7477 71.8617 36.7566 74.3378 37.0088 74.6581C37.1169 74.8329 37.045 74.8621 36.8288 74.7455C36.6126 74.6581 35.135 75.736 33.4774 77.1923C31.8558 78.6198 30.3061 79.8139 30.0539 79.8139C29.5493 79.8139 27.4593 77.3671 27.1709 76.4058C26.9908 75.8234 26.3061 75.4446 26.3061 75.8815C26.3061 76.7554 29.4412 80.484 29.9458 80.2218C30.1261 80.1344 30.2342 80.2218 30.198 80.4257C30.1261 80.6004 30.3061 80.8335 30.5944 80.9209C30.9188 81.0083 30.9909 80.9209 30.8107 80.6878C30.6304 80.4257 30.6666 80.3675 30.9547 80.513C31.1709 80.6297 31.279 80.8335 31.1709 80.9793C30.9547 81.2705 31.8917 81.9112 32.1801 81.6491C32.3242 81.5617 32.4323 81.591 32.4323 81.7657C32.4323 81.9405 33.2971 82.3775 34.3423 82.7561L36.2161 83.4552L64.3242 83.5425C91.7836 83.6009 92.4682 83.6009 94.8466 83.0182C96.2161 82.6977 97.2971 82.2901 97.2971 82.1444C97.2971 81.7657 97.4412 81.7657 95.135 82.4648C93.4774 82.9892 92.1079 83.1056 86.7747 83.2513C81.7655 83.3678 80.3601 83.3094 80.3601 83.0182C80.3601 82.8144 80.108 82.727 79.7836 82.8435C79.279 82.9892 79.2431 82.9599 79.6034 82.6103C79.9277 82.3191 79.7115 81.2705 78.7385 78.0662C77.4774 73.8426 76.3963 68.7741 76.3963 66.8806C76.3963 66.2982 76.2882 65.832 76.1439 65.832C75.9639 65.832 75.7836 63.4144 75.7115 60.4432L75.6034 55.0833L78.0539 52.2579C79.3871 50.7139 80.252 49.5489 79.9639 49.6653C79.6755 49.811 79.9277 49.5489 80.4682 49.141C81.045 48.704 81.3693 48.209 81.225 48.0049C81.0809 47.8302 81.1169 47.7721 81.3331 47.8594C81.5493 47.9759 82.1261 47.5389 82.6666 46.8982C83.1709 46.2572 83.5315 45.7329 83.4593 45.7329C83.3512 45.7329 83.6755 45.3833 84.1801 44.9464C84.6844 44.4804 84.9728 43.9851 84.8647 43.723C84.6844 43.3734 84.7566 43.3444 85.0809 43.6065C85.4052 43.8687 85.4052 44.1599 85.0809 44.859C84.8647 45.3833 84.7566 45.9076 84.8647 46.0243C84.9728 46.1698 84.9007 46.3155 84.6844 46.3739C84.5044 46.4029 84.2882 46.9272 84.252 47.4806C84.1801 48.0342 83.9998 48.5876 83.7836 48.704C83.5674 48.8207 83.4234 50.8306 83.4234 53.6561C83.4234 57.6468 83.5674 58.841 84.252 61.084C84.7207 62.5696 85.2612 63.793 85.4412 63.793C85.6574 63.793 85.7296 63.9094 85.5855 64.0552C85.3331 64.4338 87.1709 68.1624 87.6396 68.1624C87.8196 68.1624 87.8558 68.2788 87.7477 68.4536C87.6396 68.5993 87.7115 68.745 87.9277 68.745C88.1439 68.745 88.252 68.8615 88.108 69.0072C87.9998 69.182 88.7207 70.4928 89.7296 71.9784C92.252 75.5903 93.3693 76.9302 93.7655 76.7263C93.9458 76.639 94.0539 76.7847 93.9817 77.0759C93.9098 77.4254 94.0539 77.6002 94.3423 77.5419C94.6304 77.5128 94.7385 77.6002 94.5944 77.775C94.4504 77.9498 95.0269 78.7946 95.8196 79.6684C96.6485 80.5423 97.4052 81.4743 97.5134 81.7074C97.6936 82.057 98.0539 81.9405 99.3871 81.1831C101.441 80.018 103.64 77.309 104.144 75.3281C104.396 74.3085 104.504 66.6185 104.432 51.0928L104.324 28.4011L103.135 26.4495C101.657 24.0317 99.279 22.1092 96.252 20.8858L93.8736 19.9537L65.5855 19.8954C43.4234 19.8663 36.9728 19.9245 35.8558 20.2158ZM92.6844 20.4197C94.8828 20.7984 98.7385 22.3423 98.7385 22.8374C98.7385 23.0414 96.1439 25.2842 92.9728 27.8185C88.8647 31.1392 87.3512 32.5666 87.6034 32.7995C87.8558 33.0326 87.7836 33.12 87.3152 33.091C86.9547 33.091 86.7025 33.2365 86.7747 33.4405C86.8106 33.6734 86.7385 33.7608 86.5585 33.6734C86.3782 33.586 84.7925 34.7221 83.0269 36.1495C81.2612 37.6058 78.3782 39.7905 76.5763 41.0139C74.8107 42.2083 73.2971 43.4608 73.2971 43.7522C73.2612 44.0434 73.1169 44.393 72.9728 44.5094C72.8288 44.6261 72.7925 44.4804 72.8647 44.2182C72.9007 43.9561 72.8647 43.6939 72.7566 43.6356C72.4323 43.4901 70.3061 45.063 70.5585 45.2959C70.7025 45.4416 70.6304 45.4416 70.3782 45.3252C69.8017 45.063 66.9547 46.5777 67.279 46.9856C67.3871 47.1603 67.3153 47.1894 67.099 47.073C66.8828 46.9856 65.5134 47.5099 64.072 48.2671C62.6304 49.0245 60.9728 49.8401 60.3601 50.1022C55.1709 52.3162 51.5315 54.0347 51.5315 54.2387C51.5315 54.3842 51.3871 54.4135 51.1709 54.3261C50.9909 54.2387 50.8107 54.2968 50.8107 54.5009C50.8107 54.7047 50.7025 54.7921 50.5944 54.6757C50.3782 54.5009 46.8828 55.7824 46.4863 56.1903C46.3782 56.2777 46.1261 56.3941 45.8736 56.4234C44.7566 56.5982 39.9998 58.7536 40.252 58.9867C40.4323 59.1031 40.3601 59.1324 40.108 59.045C39.7477 58.8703 33.225 61.1714 28.0358 63.2977C27.099 63.7056 26.2341 63.9387 26.126 63.8513C26.0178 63.7639 25.9458 56.2777 25.9458 47.2185C25.9458 29.5662 26.0178 28.7797 27.7836 26.129C29.6936 23.2453 33.3331 21.0314 37.225 20.3906C39.6396 20.0119 90.4142 20.041 92.6844 20.4197ZM100.324 23.857C100.721 24.2065 100.865 24.5851 100.684 24.8182C100.54 25.0221 98.0539 27.7311 95.2071 30.8189C92.3601 33.8775 90.162 36.5572 90.2701 36.7029C90.4142 36.8777 90.3061 36.9651 90.0898 36.936C89.8377 36.8777 89.3331 37.1982 88.9007 37.6351C88.3242 38.2759 88.252 38.509 88.6125 38.8585C88.9369 39.1788 88.9369 39.3245 88.6125 39.4993C88.3601 39.6158 88.2882 39.5867 88.4323 39.3829C88.5404 39.2081 88.4682 38.975 88.252 38.8585C87.7477 38.6254 85.7296 40.4896 86.018 40.8975C86.162 41.0432 86.0898 41.0723 85.8736 40.9849C85.6936 40.8975 85.0088 41.2761 84.3601 41.8297C83.3152 42.7036 83.2431 42.9074 83.6396 43.3444C84.108 43.7813 84.072 43.8103 83.4953 43.4317C82.9188 43.0531 82.6666 43.1696 81.0088 44.4513C78.3782 46.4612 78.198 46.6067 77.8377 46.6067C77.6574 46.6067 77.9098 45.6455 78.4142 44.4804C78.9188 43.3444 79.3512 42.2666 79.3871 42.0919C79.4234 41.9462 79.6755 41.6257 79.9277 41.3928C80.1801 41.1887 80.3242 40.8101 80.2161 40.577C80.1079 40.3441 80.1439 40.2275 80.3242 40.3148C80.5044 40.4022 81.1531 39.8489 81.7655 39.0914C82.3782 38.3049 83.279 37.373 83.7836 36.9941C84.2882 36.6155 84.6844 36.1495 84.6844 35.9164C84.6844 35.7126 84.9007 35.5378 85.1531 35.5085C85.8017 35.4795 89.4412 32.0714 89.189 31.7509C89.0809 31.6054 89.225 31.5471 89.5134 31.6344C89.8377 31.7218 90.1261 31.5761 90.2701 31.1975C90.3782 30.848 90.6304 30.5858 90.7747 30.5858C90.9188 30.5858 92.9007 28.9545 95.1709 26.9446C97.4052 24.9347 99.3512 23.3036 99.4952 23.3036C99.6034 23.3036 99.9998 23.5657 100.324 23.857ZM103.027 27.3234C103.784 28.838 103.784 29.304 103.784 51.7919C103.784 66.473 103.64 75.095 103.423 75.7941C103.063 76.8428 101.513 78.6198 101.694 77.775C101.766 77.5419 101.586 77.3671 101.333 77.4254C101.117 77.4545 100.937 77.3671 100.973 77.2216C101.153 76.7554 99.4234 75.1243 98.9909 75.3281C98.7385 75.4446 98.6666 75.4446 98.8107 75.2991C99.099 75.0369 95.1709 70.9004 94.7385 70.9878C94.5585 71.0462 94.4504 70.9588 94.5223 70.813C94.6666 70.3471 92.1801 67.2885 91.7836 67.4923C91.5674 67.5797 91.5315 67.5216 91.6755 67.3468C91.8196 67.1428 91.4952 66.4146 90.9547 65.6865C90.4142 64.929 89.3693 63.0939 88.6485 61.55C87.8917 60.0353 87.2071 58.8993 87.135 59.0158C87.0269 59.1615 87.0269 59.1031 87.0628 58.8993C87.135 58.6955 86.9188 57.5885 86.6304 56.4234C85.8377 53.5977 85.8377 47.9759 86.6304 45.1795C87.4234 42.2374 89.5134 38.7712 92.7566 34.9842C94.2701 33.2365 95.4953 31.7218 95.4953 31.6344C95.4953 31.5471 95.8917 31.1392 96.3963 30.7022C96.9007 30.2653 97.225 29.7119 97.1531 29.5081C97.045 29.304 97.1169 29.1585 97.2612 29.2167C97.4412 29.2459 98.4504 28.3137 99.4593 27.1194C101.586 24.7018 101.766 24.7018 103.027 27.3234ZM81.4412 37.9847C81.4412 38.0428 81.1531 38.2759 80.8288 38.4797C80.252 38.8585 80.2161 38.8293 80.6844 38.3633C81.1531 37.8973 81.4412 37.7516 81.4412 37.9847ZM79.099 40.7227C78.9909 40.8101 78.7025 40.7227 78.4504 40.5189C78.1261 40.2275 78.162 40.1984 78.6666 40.3732C79.0269 40.4606 79.2071 40.6353 79.099 40.7227ZM76.5404 42.5579C76.4323 42.7036 76.1801 42.7617 75.9998 42.6453C75.8196 42.5579 75.7477 42.354 75.8917 42.2083C75.9998 42.0626 76.252 42.0045 76.4323 42.1209C76.6125 42.2083 76.6844 42.4121 76.5404 42.5579ZM85.1531 42.3831C85.045 42.6453 84.8647 42.791 84.7925 42.7036C84.6844 42.6162 84.7207 42.4414 84.8647 42.2666C85.189 41.8004 85.4052 41.8878 85.1531 42.3831ZM74.8466 43.257C74.8466 43.4901 74.7025 43.6065 74.5223 43.5191C74.3782 43.4317 74.2342 43.5191 74.2342 43.723C74.2342 43.927 74.1261 43.9851 74.018 43.8977C73.8736 43.7813 73.9817 43.5191 74.2342 43.257C74.7747 42.7036 74.8466 42.7036 74.8466 43.257ZM78.4863 43.5482C78.3782 43.6356 78.162 43.4901 78.0539 43.1986C77.8377 42.791 77.8736 42.7617 78.2342 43.0239C78.4863 43.2279 78.5944 43.4608 78.4863 43.5482ZM75.7836 45.6164C75.099 46.9856 74.5944 48.3545 74.7025 48.675C74.8107 48.9662 74.7747 49.1993 74.6304 49.1703C73.8377 49.1119 73.4774 49.2867 73.6574 49.6946C73.7655 49.9567 73.7296 50.0441 73.4774 49.9567C73.045 49.7236 70.2701 51.1218 70.2701 51.5588C70.2701 51.7335 70.162 51.8209 69.9817 51.7626C69.8377 51.7335 68.3601 52.4617 66.7385 53.3939C64.072 54.9085 63.7836 55.1417 64.2161 55.5786C64.6485 56.0155 64.6125 56.0446 64.072 55.666C63.2071 55.1417 63.2431 54.7921 64.2161 53.9766C64.9007 53.3648 64.9369 53.2191 64.5044 52.986C64.072 52.7531 64.108 52.7239 64.6844 52.8405C65.2612 52.986 66.0898 52.4036 68.5763 50.248C70.4863 48.5876 71.6396 47.3351 71.4952 47.1603C71.3512 46.9563 71.3871 46.8982 71.6034 46.9856C71.9639 47.1603 73.9458 45.7038 73.9458 45.2378C73.9458 45.1212 74.0898 45.0338 74.2701 45.063C74.4142 45.1212 75.0269 44.6842 75.5674 44.1308C76.108 43.5775 76.6844 43.1112 76.7925 43.1112C76.9007 43.1112 76.4682 44.2473 75.7836 45.6164ZM81.4412 45.7329C80.8288 46.3739 80.4323 46.8982 80.5763 46.8982C80.7207 46.8982 80.6125 47.073 80.2882 47.2477C79.3871 47.8594 77.0809 50.4227 77.2612 50.6558C77.3693 50.7723 77.189 50.8887 76.9007 50.8887C76.4682 50.8887 76.3963 50.6558 76.6125 49.6946C76.7207 49.0245 76.9728 48.3254 77.0809 48.1216C77.4774 47.568 82.2342 44.2473 82.4504 44.4221C82.5223 44.4804 82.0898 45.063 81.4412 45.7329ZM69.8736 47.073C69.0088 47.7721 68.2882 48.5293 68.2882 48.7333C68.2882 48.9371 67.9277 49.4905 67.4593 49.9567C66.9547 50.5101 66.7747 50.5975 67.0269 50.1896C67.2071 49.8401 67.5674 49.4615 67.7477 49.3741C67.9639 49.2867 68.108 49.0536 68.108 48.8498C68.108 48.675 66.8828 49.4905 65.4053 50.6849C63.1709 52.491 62.8107 52.8986 63.1709 53.2775C63.5315 53.6851 63.5315 53.6851 63.0269 53.3648C62.5585 53.0734 62.3782 53.0734 62.018 53.3939C61.8017 53.627 61.7655 53.8892 61.9098 54.0056C62.0539 54.1221 61.9098 54.1804 61.6215 54.1221C61.2971 54.0639 61.1169 54.2094 61.189 54.4716C61.2612 54.7047 61.189 54.8212 61.045 54.7047C60.7566 54.4426 59.8196 54.9959 59.8196 55.4038C59.8196 55.5786 60.108 55.5203 60.4682 55.3164C60.9728 54.9959 60.9728 55.0252 60.3963 55.5495C60.0358 55.9281 59.6034 56.132 59.4234 56.0739C59.099 55.8991 55.9998 58.5207 56.1439 58.8703C56.1801 59.0158 55.9998 59.1031 55.7836 59.0741C55.5315 59.0158 55.3512 59.1615 55.4234 59.3653C55.4593 59.5401 55.3871 59.6858 55.2431 59.6567C54.7747 59.5401 52.6126 60.5887 52.6126 60.9092C52.6126 61.084 52.4323 61.113 52.252 61.0257C52.0358 60.9383 51.7836 61.0549 51.6755 61.2878C51.5674 61.55 51.3153 61.6666 51.135 61.6083C50.9909 61.5209 50.5223 61.6666 50.162 61.9579C49.8017 62.2491 49.3331 62.5112 49.1531 62.5405C48.9369 62.5696 47.1709 63.327 45.225 64.2299C43.2431 65.1621 40.3601 66.4146 38.8466 67.0847C37.2971 67.7254 36.1439 68.3662 36.2882 68.541C36.3963 68.7158 36.3242 68.745 36.108 68.6284C35.6396 68.3955 33.1169 69.3275 33.3693 69.677C33.4774 69.7937 33.2971 69.8227 33.0088 69.7353C32.7207 69.648 32.1801 69.8227 31.8196 70.114C31.4593 70.4054 30.9909 70.6383 30.8107 70.6383C30.6304 70.6383 29.6215 71.0171 28.5763 71.454C27.5315 71.891 26.5224 72.2405 26.3061 72.2405C26.0899 72.2405 25.9458 71.2209 25.9458 69.5315L25.9818 66.8516L29.7296 65.4243C31.7836 64.6378 33.4053 63.8804 33.2971 63.7347C33.189 63.6182 33.4053 63.5892 33.7296 63.7056C34.198 63.8513 34.2701 63.793 34.0539 63.5018C33.8736 63.2687 33.9098 63.1813 34.162 63.327C34.3782 63.4144 35.7836 63.0356 37.2612 62.4239C39.5674 61.4919 39.8917 61.2878 39.5315 60.9092C39.1709 60.5013 39.1709 60.5013 39.7115 60.8218C40.252 61.1714 40.6125 61.084 42.5223 60.2392C43.7115 59.6858 44.5763 59.1324 44.4323 58.9867C44.252 58.8703 44.3242 58.841 44.5404 58.9284C45.1169 59.1905 48.3601 57.7049 48.072 57.3263C47.9277 57.1225 47.9998 57.0932 48.2161 57.2099C48.7566 57.4721 52.6485 55.6076 52.3601 55.229C52.252 55.0833 52.3242 55.0543 52.5404 55.1707C53.0809 55.4329 62.0539 50.7139 61.7296 50.3063C61.6215 50.1315 61.6936 50.1022 61.9458 50.2189C62.198 50.3644 63.6034 49.7236 65.3693 48.704C67.0269 47.7428 68.7566 46.8108 69.1531 46.6067C69.5855 46.432 69.8017 46.1407 69.6936 45.966C69.5493 45.7912 69.5855 45.7329 69.7655 45.8203C69.9817 45.9076 70.3423 45.8786 70.6304 45.7329C71.7477 45.1795 71.3871 45.8203 69.8736 47.073ZM76.3963 47.0146C76.3963 47.102 76.252 47.2477 76.0358 47.3351C75.8558 47.4225 75.6755 47.3642 75.6755 47.2185C75.6755 47.0437 75.8558 46.8982 76.0358 46.8982C76.252 46.8982 76.3963 46.9563 76.3963 47.0146ZM69.5855 48.7333C69.225 48.9955 69.189 48.9662 69.4052 48.5585C69.5134 48.2671 69.7296 48.1216 69.8377 48.209C69.9458 48.2964 69.8377 48.5293 69.5855 48.7333ZM73.8017 50.7432C73.6936 50.9471 73.4052 52.0248 73.1531 53.1608C72.8288 54.4716 72.2882 55.6076 71.6755 56.336C71.099 56.9477 70.7385 57.5885 70.8466 57.7342C70.9547 57.8797 70.8828 57.938 70.7025 57.909C70.198 57.7923 65.5134 62.8608 65.7655 63.2103C65.9098 63.3851 65.8736 63.5018 65.6936 63.4725C64.9728 63.3851 64.7925 63.5308 65.225 63.9387C65.6215 64.3173 65.5855 64.3464 65.1531 64.2299C64.5404 64.0261 62.5223 65.9486 62.8466 66.3856C62.9547 66.5311 62.7747 66.8225 62.4142 67.0263C61.8377 67.4049 61.8377 67.4049 62.3423 66.8516C62.8466 66.2982 62.8466 66.2982 62.2342 66.6768C61.8736 66.9099 61.6936 67.2885 61.8017 67.5507C61.9098 67.7838 61.9098 67.9002 61.7655 67.8128C61.4412 67.5507 61.2612 67.7254 56.9007 72.386C53.0088 76.5516 52.0358 77.7459 52.1801 78.1536C52.2161 78.2993 52.108 78.3284 51.9277 78.241C51.7477 78.1245 51.2431 78.445 50.8107 78.9401C50.1261 79.6975 50.0898 79.9013 50.5223 80.3383C50.9188 80.7752 50.9188 80.8045 50.4142 80.4549C49.8736 80.1344 49.6574 80.2509 48.6844 81.3288C48.108 82.0279 47.4234 82.7561 47.2071 82.9308C46.3423 83.7757 37.045 83.2221 34.0898 82.2027L32.6485 81.6784L34.8466 79.8139C38.3782 76.7554 39.279 75.8234 38.9909 75.5903C38.8466 75.4446 38.9188 75.4446 39.135 75.532C39.4593 75.6777 50.4142 66.4437 50.162 66.1815C50.0898 66.1525 50.6304 65.6865 51.3153 65.1912C52.0358 64.6959 52.5044 64.1426 52.3601 63.9968C52.252 63.8221 52.3242 63.793 52.5044 63.8804C53.0088 64.1425 55.2071 62.1036 54.9188 61.6957C54.7747 61.5209 54.8107 61.4626 55.0269 61.55C55.2431 61.6666 55.7836 61.4045 56.2161 61.0257C56.6844 60.618 57.9098 59.8315 58.9547 59.2489C60.0358 58.6662 60.7925 58.0545 60.6485 57.8797C60.5404 57.7049 60.6125 57.6759 60.8288 57.7923C61.2971 58.0254 64.8647 56.0446 64.8647 55.5495C64.8647 55.3748 64.9728 55.3164 65.0809 55.4329C65.4053 55.666 67.7836 54.1804 67.5674 53.8892C67.4593 53.7725 67.6755 53.6851 68.0358 53.7144C68.3963 53.7144 68.6125 53.5687 68.5404 53.3065C68.4682 53.0734 68.5404 52.957 68.6844 53.0734C68.9369 53.3065 70.1261 52.6948 72.0358 51.2966C73.3331 50.3644 74.0539 50.1315 73.8017 50.7432ZM66.162 51.384C66.198 51.5878 66.018 51.7626 65.7296 51.7626C65.4052 51.7626 65.3331 51.6462 65.5855 51.413C65.7655 51.2092 65.8736 50.9761 65.7655 50.8887C65.6574 50.7723 65.6936 50.7432 65.8377 50.8306C65.9817 50.918 66.1261 51.1509 66.162 51.384ZM58.198 51.85C58.0898 51.9957 57.7655 52.1414 57.5493 52.1414C57.2971 52.1414 57.3331 52.0248 57.6574 51.85C58.3423 51.5004 58.4863 51.5004 58.198 51.85ZM75.8196 52.8986C75.9277 53.1317 75.8917 53.2482 75.6755 53.1608C75.4593 53.0734 75.3152 52.8696 75.3152 52.6948C75.3152 52.2869 75.5674 52.3743 75.8196 52.8986ZM54.5585 53.2482C54.6666 53.3939 54.5223 53.5103 54.2342 53.5103C53.9458 53.5103 53.8017 53.3939 53.9098 53.2482C54.018 53.1317 54.162 53.0153 54.2342 53.0153C54.3061 53.0153 54.4504 53.1317 54.5585 53.2482ZM53.2971 54.559C53.2971 54.7921 53.225 54.7921 53.0809 54.5299C52.9369 54.2387 52.7207 54.2678 52.108 54.6757L51.3512 55.2L52.0358 54.559C52.7207 53.8892 53.3693 53.9182 53.2971 54.559ZM62.7025 54.2968C62.7025 54.3552 62.4142 54.5883 62.0898 54.7921C61.5134 55.1707 61.4774 55.1416 61.9458 54.6757C62.4142 54.2094 62.7025 54.0639 62.7025 54.2968ZM74.018 54.9378C74.1261 55.1707 74.0898 55.2874 73.8736 55.2C73.6574 55.1126 73.5134 54.9085 73.5134 54.7338C73.5134 54.3261 73.7655 54.4135 74.018 54.9378ZM49.7296 55.5203C49.7296 55.7534 49.045 55.8991 48.8647 55.695C48.7566 55.5495 48.9007 55.4329 49.189 55.4329C49.4774 55.4329 49.7296 55.4912 49.7296 55.5203ZM62.162 55.6076C62.2701 55.7534 62.162 55.9865 61.9458 56.1029C61.6936 56.2194 61.6215 56.1903 61.7655 55.9865C61.8736 55.8407 61.7655 55.6076 61.5493 55.5495C61.225 55.4329 61.189 55.3748 61.5134 55.3748C61.7296 55.3455 62.018 55.4621 62.162 55.6076ZM48.8288 56.802C48.9369 56.9768 48.7925 57.0058 48.5044 56.9184C47.8558 56.7146 47.7477 56.5108 48.252 56.5108C48.4682 56.5108 48.7207 56.6272 48.8288 56.802ZM47.2071 57.5885C47.2071 57.6759 46.9909 57.6759 46.7026 57.5885C46.4504 57.5011 45.9817 57.5885 45.7296 57.7633C45.3331 58.0545 45.3331 58.0254 45.7296 57.6176C46.1261 57.1806 47.2071 57.1806 47.2071 57.5885ZM58.5944 58.6955C58.5585 58.9284 58.3782 59.2198 58.198 59.3362C58.0539 59.4527 58.018 59.3946 58.162 59.1905C58.3061 58.9867 58.2342 58.841 57.9458 58.841C57.6215 58.841 57.6215 58.7536 58.018 58.5498C58.7025 58.2002 58.7026 58.1712 58.5944 58.6955ZM41.9817 60.2392C41.8736 60.3266 41.5855 60.2392 41.3331 60.0353C41.0088 59.7441 41.045 59.7149 41.5493 59.8896C41.9098 59.977 42.0898 60.1518 41.9817 60.2392ZM71.3512 60.0644C71.3512 59.8896 71.4593 59.7149 71.6396 59.7149C71.7836 59.7149 71.8917 63.4725 71.9277 68.0459C71.9277 72.6775 72.108 76.4642 72.2882 76.5516C72.4682 76.668 72.6125 77.5419 72.6125 78.5031C72.6485 79.4644 72.7207 80.8919 72.7925 81.7074L72.9369 83.1639L62.4142 83.2513C56.6125 83.2804 51.8917 83.2513 51.8917 83.1347C51.8917 83.0473 53.6936 80.8626 55.8558 78.2993C58.8466 74.7748 59.7477 73.5221 59.4593 73.2599C59.1709 72.9977 59.1709 72.823 59.4593 72.6775C59.6755 72.5608 59.7836 72.5901 59.7477 72.7356C59.6755 72.8522 59.7836 72.9977 59.9277 73.0561C60.252 73.1435 64.5044 68.3662 64.5044 67.9585C64.5044 67.8128 64.3242 67.9293 64.108 68.1624C63.7836 68.541 63.7477 68.541 63.8917 68.1624C63.9639 67.9293 64.252 67.7254 64.5404 67.7254C64.8288 67.7254 65.045 67.4923 65.045 67.2302C65.045 66.968 65.189 66.6477 65.3693 66.502C65.5493 66.3856 65.5855 66.4146 65.4412 66.6185C65.2971 66.8225 65.2612 66.9973 65.3331 66.9973C65.7296 66.9973 68.4682 63.4725 68.2882 63.2103C68.1439 63.0356 68.2161 62.9482 68.3963 62.9775C69.0088 63.123 70.9909 60.6761 70.7747 60.0937C70.5944 59.6567 70.6304 59.6275 70.9547 60.0063C71.2071 60.2975 71.3512 60.3266 71.3512 60.0644ZM38.3423 61.113C38.4504 61.2588 38.3061 61.3752 38.018 61.3752C37.7296 61.3752 37.5855 61.2588 37.6936 61.113C37.8017 60.9966 37.9458 60.8802 38.018 60.8802C38.0899 60.8802 38.2342 60.9966 38.3423 61.113ZM35.5674 61.6374C35.4593 61.7248 35.135 61.754 34.8828 61.6666C34.5944 61.5793 34.7026 61.4919 35.099 61.4919C35.4953 61.4626 35.7115 61.55 35.5674 61.6374ZM68.8288 61.9288C68.8288 62.1617 68.1439 62.3074 67.9639 62.1036C67.8558 61.9579 67.9998 61.8414 68.2882 61.8414C68.5763 61.8414 68.8288 61.8995 68.8288 61.9288ZM53.3693 63.2977C53.0088 63.5599 52.9728 63.5308 53.189 63.123C53.2971 62.8317 53.5134 62.686 53.6215 62.7734C53.7296 62.8608 53.6215 63.0939 53.3693 63.2977ZM66.9188 63.6473C66.9188 63.8804 66.7747 63.9968 66.5944 63.9094C66.4142 63.8221 66.3782 63.6182 66.4863 63.4725C66.8107 63.0939 66.9188 63.1522 66.9188 63.6473ZM26.3422 65.6281C25.9818 65.8903 25.9458 65.8612 26.162 65.4534C26.2701 65.1621 26.4863 65.0164 26.5944 65.1038C26.7025 65.1912 26.5944 65.4243 26.3422 65.6281ZM44.2161 65.6281C44.2161 65.832 43.8917 66.0067 43.5315 66.0067C42.8828 66.0067 42.8828 65.9777 43.4593 65.6281C43.8196 65.4243 44.108 65.2495 44.1439 65.2495C44.1801 65.2495 44.2161 65.4243 44.2161 65.6281ZM66.4863 65.5117C66.162 65.7446 65.189 65.8029 65.4053 65.5698C65.4774 65.4534 65.8017 65.3369 66.1261 65.3369C66.4142 65.3369 66.5944 65.4243 66.4863 65.5117ZM46.8828 67.7838C47.3512 68.2498 47.3153 68.2788 46.7747 67.9002C46.162 67.5216 45.9817 67.2885 46.2701 67.2885C46.3423 67.2885 46.6304 67.5216 46.8828 67.7838ZM88.2882 67.4049C88.2882 67.4923 88.1439 67.638 87.9277 67.7254C87.7477 67.8128 87.5674 67.7545 87.5674 67.609C87.5674 67.4342 87.7477 67.2885 87.9277 67.2885C88.1439 67.2885 88.2882 67.3468 88.2882 67.4049ZM60.3601 70.1723C60.4682 70.318 60.4323 70.5218 60.252 70.6092C60.072 70.6966 59.9277 70.5802 59.9277 70.3471C59.9277 69.8518 60.0358 69.7937 60.3601 70.1723ZM43.2431 71.7743C43.2431 71.8326 42.8828 71.8326 42.4504 71.8036C42.018 71.7743 41.6574 71.5414 41.5855 71.2793C41.5134 70.8423 41.5855 70.8423 42.3782 71.2793C42.8466 71.5121 43.2431 71.7453 43.2431 71.7743ZM33.2971 71.3083C33.3693 71.4248 33.1531 71.5414 32.7926 71.5414C32.4323 71.5414 32.2161 71.4248 32.2882 71.3083C32.3963 71.1919 32.6126 71.0752 32.7926 71.0752C32.9728 71.0752 33.189 71.1919 33.2971 71.3083ZM29.4412 72.9687C29.4412 73.2018 29.2971 73.3182 29.1169 73.2308C28.9369 73.1435 28.9007 72.9396 29.0088 72.7939C29.3331 72.4153 29.4412 72.4734 29.4412 72.9687ZM58.4142 73.027C58.8828 73.493 58.8466 73.5221 58.3061 73.1434C57.6936 72.7648 57.5134 72.5317 57.8017 72.5317C57.8736 72.5317 58.162 72.7648 58.4142 73.027ZM27.5674 73.3473C27.4593 73.4347 27.1709 73.3473 26.9187 73.1434C26.5944 72.8522 26.6305 72.823 27.135 72.9977C27.4953 73.0851 27.6755 73.2599 27.5674 73.3473ZM39.3871 73.2892C39.135 73.3766 39.0628 73.6678 39.1709 73.9299C39.3153 74.3378 39.279 74.3378 38.9909 73.9883C38.5585 73.5221 38.7385 73.1144 39.3871 73.1434C39.7115 73.1434 39.7115 73.2018 39.3871 73.2892ZM97.6574 74.1047C97.6574 74.163 97.4053 74.3085 97.0809 74.3959C96.7925 74.4833 96.6485 74.4543 96.7566 74.2795C96.9728 73.9883 97.6574 73.8716 97.6574 74.1047ZM94.9188 74.9203C95.0628 74.8329 95.0628 74.9495 94.9547 75.2117C94.7385 75.6486 94.6666 75.6486 94.018 75.2117C93.1531 74.6 93.1531 74.4543 94.018 74.8329C94.3782 75.0076 94.7747 75.0369 94.9188 74.9203ZM93.3693 75.3572C93.8377 75.8234 93.8017 75.8525 93.2612 75.4739C92.9007 75.2698 92.6125 75.0369 92.6125 74.9786C92.6125 74.7455 92.9007 74.8912 93.3693 75.3572ZM56.7207 75.9108C56.8288 76.1437 56.7925 76.2603 56.5763 76.173C56.3601 76.0856 56.2161 75.8815 56.2161 75.7067C56.2161 75.2991 56.4682 75.3865 56.7207 75.9108ZM99.135 76.2311C99.6033 76.6973 99.5674 76.7263 99.0269 76.3477C98.6666 76.1437 98.3782 75.9108 98.3782 75.8525C98.3782 75.6194 98.6666 75.7651 99.135 76.2311ZM55.5315 76.6973C55.1709 76.9594 55.135 76.9302 55.3512 76.5225C55.4593 76.2311 55.6755 76.0856 55.7836 76.173C55.8917 76.2603 55.7836 76.4932 55.5315 76.6973ZM56.252 76.9885C56.0358 77.2216 55.9998 77.5128 56.1439 77.6293C56.2882 77.775 56.1801 77.775 55.9277 77.6585C55.5674 77.4838 55.5674 77.338 55.8917 77.0176C56.108 76.7847 56.3963 76.6099 56.4682 76.6099C56.5763 76.6099 56.4682 76.7847 56.252 76.9885ZM36.5763 77.775C36.6844 77.9498 36.5404 77.9788 36.252 77.8914C35.6034 77.6876 35.4953 77.4838 35.9998 77.4838C36.2161 77.4838 36.4682 77.6002 36.5763 77.775ZM35.1709 78.7072C35.3153 78.911 35.279 78.9984 35.135 78.8527C34.9547 78.7362 34.4863 78.882 34.0898 79.1441C33.3331 79.6684 33.3331 79.6685 34.018 78.9984C34.8107 78.241 34.8466 78.241 35.1709 78.7072ZM54.7747 78.7362C54.7747 78.7946 54.4142 79.0858 53.9817 79.4063L53.1531 79.9597L53.8377 79.2896C54.4863 78.6779 54.7747 78.5031 54.7747 78.7362ZM32.3242 79.6684C32.3242 79.9013 32.1801 80.018 31.9998 79.9306C31.8196 79.8432 31.7836 79.6392 31.8917 79.4937C32.2161 79.1148 32.3242 79.1732 32.3242 79.6684ZM99.9639 79.4937C100.072 79.6392 99.9277 79.9013 99.6755 80.0761C99.3152 80.3383 99.099 80.3383 98.9188 80.1054C98.7747 79.9306 98.8828 79.8432 99.1709 79.8723C99.4234 79.9306 99.6034 79.7849 99.5674 79.5811C99.4593 79.1732 99.6755 79.1148 99.9639 79.4937Z" fill="white"/>
<path d="M330.992 25.1674C326.343 26.0703 322.27 28.721 320.108 32.2458C318.954 34.139 318.776 34.7507 318.63 36.9354C318.522 39.0037 318.63 39.7611 319.243 41.13C320.181 43.0525 322.197 44.8296 324.613 45.7615C328.143 47.1597 336.324 46.6938 336.722 45.0624C336.938 44.2469 337.657 40.635 337.657 40.4019C337.657 40.3145 336.865 40.6057 335.892 41.101C332 43.0525 326.954 42.3244 325.189 39.528C324.324 38.2172 324.432 35.3624 325.405 33.7021C326.305 32.1874 328.505 30.4397 330.305 29.828C331.749 29.3327 335.603 29.3037 336.684 29.7406C337.116 29.9154 337.911 30.3814 338.413 30.7892L339.386 31.5174L339.857 28.9251C340.143 27.5269 340.359 26.2451 340.359 26.0703C340.359 25.6334 336.576 24.7886 334.595 24.7886C333.622 24.8178 332 24.9633 330.992 25.1674Z" fill="white"/>
<path d="M120.541 25.6918C120.216 26.5367 116.541 46.0531 116.721 46.1695C116.793 46.2569 118.054 46.3153 119.46 46.3153H122.054L129.045 39.5574C132.901 35.8578 136.144 32.6828 136.288 32.5081C136.433 32.3333 136.613 32.2749 136.685 32.3333C136.829 32.4497 134.955 42.5285 134.27 45.4997L134.054 46.3153H136.901C139.748 46.3153 139.748 46.3153 139.964 45.4997C140.325 44.1889 143.784 26.2162 143.784 25.7792C143.784 25.4297 143.207 25.3423 141.009 25.3423L138.198 25.3713L130.991 32.3333C127.027 36.1493 123.748 39.2369 123.712 39.2078C123.64 39.1495 124.18 36.2657 124.865 32.7412C125.55 29.2457 126.126 26.1288 126.126 25.8376C126.126 25.4006 125.766 25.3423 123.423 25.3423C121.55 25.3423 120.649 25.4587 120.541 25.6918Z" fill="white"/>
<path d="M148.324 25.6921C148.072 26.3329 144.504 45.063 144.504 45.7038C144.504 46.2572 144.684 46.3155 147.207 46.3155C149.694 46.3155 149.91 46.2572 150.09 45.6455C150.27 45.0047 151.711 37.7225 151.711 37.431C151.711 37.3437 154.054 37.2856 156.937 37.2856C159.82 37.2856 162.162 37.3729 162.162 37.4894C162.162 37.6351 161.765 39.5867 161.333 41.8878C160.865 44.1599 160.576 46.0824 160.648 46.1698C160.757 46.2572 162.018 46.3155 163.459 46.3155C165.91 46.3155 166.126 46.2572 166.306 45.6455C166.414 45.2959 167.351 40.577 168.396 35.159L170.306 25.3135L167.423 25.4009L164.504 25.4883L163.711 29.4207C163.279 31.5761 162.919 33.3822 162.919 33.4112C162.883 33.4696 160.54 33.4986 157.657 33.4986H152.468L152.648 32.6831C152.721 32.2461 153.117 30.411 153.477 28.6049L154.09 25.3425H151.279C149.333 25.3425 148.396 25.459 148.324 25.6921Z" fill="white"/>
<path d="M172.432 26.7114C172.324 27.4979 172.108 28.4008 172 28.7504C171.82 29.3912 171.892 29.4204 174.739 29.4204C176.36 29.4204 177.658 29.5078 177.658 29.5952C177.658 29.8574 174.775 44.5966 174.559 45.4997L174.342 46.3153H177.261C178.883 46.3153 180.18 46.2569 180.18 46.1988C180.18 46.1405 180.901 42.3828 181.802 37.8677C182.703 33.3529 183.424 29.5952 183.424 29.5369C183.424 29.4785 184.721 29.4204 186.27 29.4204C189.478 29.4204 189.333 29.5369 189.73 26.8569L189.982 25.3423H181.333H172.685L172.432 26.7114Z" fill="white"/>
<path d="M192.432 25.488C192.432 25.5461 191.532 30.1776 190.45 35.7123C189.369 41.2758 188.468 45.9367 188.468 46.0822C188.468 46.1988 191.784 46.3153 195.82 46.3153H203.171L203.387 45.4997C203.495 45.0628 203.676 44.1596 203.784 43.4605L204.036 42.2371H199.459H194.883L195.063 41.3925C195.171 40.9556 195.387 39.9069 195.531 39.0621L195.784 37.5765H200H204.252L204.504 36.0326C204.613 35.2171 204.829 34.2849 204.901 33.9936C205.081 33.5567 204.721 33.4984 200.901 33.4984H196.684L196.937 31.838C197.333 29.2747 197.009 29.4204 201.982 29.4204C206.991 29.4204 206.594 29.6243 207.027 26.8569L207.279 25.3423H199.856C195.784 25.3423 192.432 25.4006 192.432 25.488Z" fill="white"/>
<path d="M210.991 25.6918C210.667 26.5364 206.991 46.0531 207.171 46.1695C207.243 46.2569 208.504 46.3153 209.946 46.3153C213.009 46.3153 212.613 46.8103 213.549 41.8585L214.162 38.7416H216.937C218.45 38.7416 220.576 38.5378 221.657 38.2756C227.279 36.9355 230.162 30.1776 226.414 27.0317C224.865 25.7209 222.594 25.3423 216.504 25.3423C212.54 25.3423 211.099 25.4297 210.991 25.6918ZM221.225 29.8281C222.198 30.5563 222.198 32.1585 221.261 33.411C220.468 34.4887 218.63 35.0423 216.396 34.8966L214.955 34.8092L215.459 31.9254L215.964 29.0707L218.234 29.1873C219.784 29.2747 220.721 29.4785 221.225 29.8281Z" fill="white"/>
<path d="M230.162 25.7211C230.054 25.954 229.874 26.8571 229.73 27.7601L229.478 29.3914L232.325 29.4788L235.171 29.5662L233.622 37.2853C232.793 41.5382 232.108 45.2959 232.108 45.6745C232.072 46.3153 232.144 46.3445 234.883 46.2571L237.658 46.1698L239.279 37.8096L240.901 29.4204H243.856H246.775L247.027 27.8765C247.135 27.061 247.352 26.1288 247.423 25.8376C247.604 25.3716 247.027 25.3423 238.991 25.3423C232.072 25.3423 230.306 25.4297 230.162 25.7211Z" fill="white"/>
<path d="M249.91 25.6918C249.586 26.5364 245.91 46.0531 246.09 46.1695C246.162 46.2569 247.423 46.3153 248.865 46.3153C251.928 46.3153 251.532 46.8103 252.468 41.8585L253.081 38.7416H255.856C257.369 38.7416 259.495 38.5378 260.576 38.2756C266.198 36.9355 269.081 30.1776 265.333 27.0317C263.784 25.7209 261.513 25.3423 255.423 25.3423C251.459 25.3423 250.018 25.4297 249.91 25.6918ZM260.144 29.8281C261.117 30.5563 261.117 32.1585 260.18 33.411C259.387 34.4887 257.549 35.0423 255.315 34.8966L253.874 34.8092L254.378 31.9254L254.883 29.0707L257.153 29.1873C258.703 29.2747 259.64 29.4785 260.144 29.8281Z" fill="white"/>
<path d="M277.008 25.5461C276.722 25.9249 263.928 44.9754 263.46 45.6452C263.027 46.3153 263.027 46.3153 266.126 46.3153H269.189L270.522 44.1306L271.857 41.9459H277.116H282.379L282.919 44.0432L283.424 46.1695L286.414 46.2569C288.83 46.3153 289.37 46.2569 289.37 45.9074C289.37 45.4997 284.181 27.061 283.749 25.8376C283.568 25.4297 283.1 25.3423 280.36 25.3423C278.595 25.3423 277.081 25.4297 277.008 25.5461ZM280.36 33.9353C280.792 35.6831 281.224 37.3727 281.297 37.6349C281.479 38.1008 281.154 38.1592 278.054 38.1592C276.143 38.1592 274.595 38.1008 274.595 38.0135C274.595 37.5765 279.278 30.4981 279.46 30.6439C279.533 30.702 279.927 32.1585 280.36 33.9353Z" fill="white"/>
<path d="M295.494 25.5754C295.494 25.7209 294.594 30.3817 293.513 35.9452C292.432 41.4799 291.532 46.1114 291.532 46.1695C291.532 46.2569 292.792 46.3153 294.378 46.3153H297.224L298.019 42.0042C298.486 39.6448 298.954 37.6056 299.1 37.4891C299.208 37.3727 301.621 37.3144 304.397 37.3434L309.405 37.4308L308.613 41.509C308.143 43.752 307.748 45.7619 307.748 45.9367C307.748 46.1988 308.575 46.3153 310.63 46.3153C312.216 46.3153 313.513 46.1988 313.513 46.0822C313.513 45.9367 314.413 41.2758 315.494 35.7123C316.575 30.1776 317.478 25.5461 317.478 25.488C317.478 25.4006 316.181 25.3423 314.594 25.3423C313.008 25.3423 311.711 25.4297 311.711 25.5171C311.711 25.6335 311.351 27.4686 310.954 29.5952L310.162 33.4984H305.008C301.081 33.4984 299.819 33.411 299.819 33.1198C299.819 32.945 300.143 31.1972 300.54 29.2747C300.938 27.3522 301.262 25.6918 301.262 25.5461C301.262 25.4297 299.965 25.3423 298.378 25.3423C296.792 25.3423 295.494 25.4587 295.494 25.5754Z" fill="white"/>
<path d="M217.297 58.2579C210.883 59.3358 205.369 63.909 204.36 69.0066C203.676 72.4147 204.829 75.2694 207.748 77.4541C210.595 79.5514 214.27 80.3669 218.63 79.8135C228.973 78.5027 235.603 69.6476 231.351 62.8894C230.27 61.171 227.964 59.5397 225.73 58.8406C223.423 58.1415 219.567 57.8793 217.297 58.2579ZM223.243 63.2973C225.982 64.5498 227.099 66.7638 226.342 69.5018C224.721 75.2694 214.955 77.5705 211.243 73.0557C209.333 70.7253 210.306 66.7345 213.297 64.6081C216.18 62.5692 220.396 61.9865 223.243 63.2973Z" fill="white"/>
<path d="M120.541 59.1901C120.432 59.569 119.495 64.2586 118.451 69.6185L116.541 79.3766L119.243 79.464C120.865 79.5223 122.018 79.4349 122.162 79.2311C122.306 79.0563 122.775 76.8424 123.243 74.2791C123.712 71.7158 124.216 69.6185 124.324 69.6476C124.432 69.6476 126.126 71.8613 128.108 74.5996L131.676 79.5223H135.423C138.306 79.5223 139.063 79.4349 138.883 79.1728C138.739 78.969 136.685 76.4928 134.378 73.6674L130.126 68.5115L136.324 63.5304L142.522 58.5494H138.919H135.279L130.09 63.0644C127.207 65.5694 124.829 67.4629 124.757 67.3172C124.685 67.1717 124.973 65.3946 125.369 63.3847C126.451 58.1124 126.631 58.5494 123.423 58.5494C120.937 58.5494 120.721 58.6077 120.541 59.1901Z" fill="white"/>
<path d="M146.739 68.8322C142.955 74.5124 139.82 79.2313 139.82 79.348C139.82 79.4644 141.153 79.5228 142.811 79.4644L145.766 79.377L147.135 77.2507L148.505 75.1534H153.694H158.883L159.279 76.8137C160 79.7266 159.676 79.5228 163.099 79.5228C166.09 79.5228 166.126 79.5228 165.946 78.8527C165.838 78.5032 164.468 73.8133 162.955 68.4536L160.18 58.6953L156.937 58.6079L153.694 58.5205L146.739 68.8322ZM156.901 67.405C157.441 69.2984 157.838 70.9588 157.838 71.1043C157.838 71.25 156.288 71.3665 154.378 71.3665C152.468 71.3665 150.991 71.2791 151.063 71.1336C151.64 70.0556 155.82 63.793 155.892 63.8804C155.964 63.9095 156.397 65.5115 156.901 67.405Z" fill="white"/>
<path d="M171.531 58.6955C171.531 58.8119 170.63 63.4725 169.549 69.0363C168.468 74.6 167.567 79.2606 167.567 79.348C167.567 79.4354 168.829 79.5228 170.414 79.5228H173.261L173.838 76.2311C174.738 71.5122 174.342 71.9491 177.838 71.9491C184.721 71.9491 188.468 69.1236 188.468 63.9678C188.468 61.5209 187.675 60.3559 185.405 59.4237C183.748 58.7536 183.135 58.6955 177.585 58.5788C174.234 58.5498 171.531 58.5788 171.531 58.6955ZM181.838 63.2396C182.63 63.8221 182.738 64.1135 182.558 65.0455C182.126 67.2302 180.54 68.1624 177.297 68.1624H175.423L175.64 67.2011C175.748 66.7059 176 65.366 176.252 64.259L176.648 62.2784L178.775 62.3948C180.396 62.4822 181.117 62.686 181.838 63.2396Z" fill="white"/>
<path d="M190.306 68.3658C189.261 73.7838 188.324 78.5027 188.216 78.8522C188.036 79.4932 188.108 79.5223 190.919 79.5223C193.802 79.5223 193.802 79.5223 194.018 78.7067C194.27 77.8036 197.117 63.1808 197.117 62.8313C197.117 62.7149 199.027 62.6275 201.405 62.6275H205.657L206.018 60.5883L206.342 58.5493H199.279H192.216L190.306 68.3658Z" fill="white"/>
</svg>
