<svg width="96" height="194" viewBox="0 0 96 194" fill="none" xmlns="http://www.w3.org/2000/svg">
<path d="M54.5 7C54.5 3.41015 51.5899 0.5 48 0.5C44.4101 0.5 41.5 3.41015 41.5 7L54.5 7ZM43.4038 191.596C45.9422 194.135 50.0578 194.135 52.5962 191.596L93.9619 150.23C96.5004 147.692 96.5004 143.576 93.9619 141.038C91.4235 138.5 87.308 138.5 84.7696 141.038L48 177.808L11.2305 141.038C8.69205 138.5 4.57647 138.5 2.03807 141.038C-0.500341 143.576 -0.500341 147.692 2.03807 150.23L43.4038 191.596ZM48 7L41.5 7L41.5 187L48 187L54.5 187L54.5 7L48 7Z" fill="#073AE9"/>
</svg>
