<svg width="1800" height="600" viewBox="0 0 1800 600" fill="none" xmlns="http://www.w3.org/2000/svg">
<path fill-rule="evenodd" clip-rule="evenodd" d="M80 0C35.8172 0 0 35.8172 0 80V327.936C0 386.452 60.768 425.169 113.804 400.443L148 384.5L325.5 295L424.651 247.863C477.736 222.626 539 261.335 539 320.113V520C539 564.183 574.817 600 619 600H900H1720C1764.18 600 1800 564.183 1800 520V80C1800 35.8172 1764.18 0 1720 0H80ZM33.3374 483.517C13.3625 494.286 0.908813 515.148 0.908813 537.841C0.908813 571.926 28.5398 599.557 62.6244 599.557H431.909C476.092 599.557 511.909 563.739 511.909 519.557V410.622V325.951C511.909 284.677 467.813 258.381 431.5 278L254.5 369L102 446.5L33.3374 483.517Z" fill="#F7F8F8"/>
</svg>
