<svg width="300" height="300" viewBox="0 0 300 300" fill="none" xmlns="http://www.w3.org/2000/svg">
<path d="M152.379 71.8528C138.602 74.8528 123.87 60.4727 122.83 46.9081C121.678 31.8684 132.161 18.4379 147.463 17.3466C154.034 16.4846 161.721 19.1668 166.907 23.1296C186.156 37.841 177.539 69.0022 152.379 71.8528Z" fill="#1B096F"/>
<path d="M160.62 79.8013C169.057 76.4948 169.216 75.2491 175.499 70.2769C175.833 70.4409 176.809 73.394 177.067 73.9472C184.516 89.9444 192.571 105.686 200.304 121.549L264.301 253.219C267.411 259.647 273.112 266.598 269.57 274.024C267.09 279.226 260.747 281.732 255.425 279.421C252.243 278.04 249.163 275.528 246.315 273.55L173.467 223.257C167.286 218.982 156.239 209.981 149.977 206.908C146.619 208.756 143.429 211.229 140.297 213.447L79.514 255.851C71.0783 261.721 62.5406 267.513 54.2034 273.52C51.4015 275.538 48.5597 278.312 45.2758 279.476C38.8696 281.748 31.9837 278.581 29.7902 272.111C28.1431 267.253 30.3705 263.497 32.4733 259.289L94.5504 131.65C104.648 111.338 114.048 90.6751 124.655 70.6202C128.714 73.8493 134.05 78.3722 139.096 79.8247C137.547 81.9868 136.586 84.8919 135.463 87.3071L66.6486 232.587C65.465 235.058 63.9123 237.508 63.048 240.107C63.7476 241.431 64.5703 242.115 65.9191 242.738C69.8314 240.635 73.459 237.578 77.0724 234.993L150.24 183.755C155.294 187.443 160.301 191.206 165.416 194.808L224.217 235.668C227.582 238.033 230.762 240.731 234.328 242.79C235.679 241.917 236.325 241.038 236.971 239.599C235.947 236.174 232.841 231.213 231.185 227.752L160.62 79.8013Z" fill="#1B096F"/>
<path d="M82.1403 220.011C83.2905 215.478 87.5936 207.639 89.6854 203.314L142.54 92.8077C144.323 88.9798 146.105 84.737 148.546 81.2817C152.469 81.4517 152.661 82.654 154.378 86.1075C158.879 95.162 162.74 104.525 167.033 113.679L208.881 201.693C211.815 207.76 215.099 213.766 217.351 220.126L166.155 184.161C160.88 180.384 155.762 176.395 150.537 172.55L150.314 172.448C148.995 172.929 124.237 190.864 120.711 193.336C113.415 198.452 106.233 203.709 98.9063 208.785C94.0061 212.181 87.4653 217.523 82.1403 220.011Z" fill="url(#paint0_linear_58_959)"/>
<defs>
<linearGradient id="paint0_linear_58_959" x1="149.746" y1="81.2817" x2="149.746" y2="220.126" gradientUnits="userSpaceOnUse">
<stop offset="0.235" stop-color="#1B096F"/>
<stop offset="0.74" stop-color="#601EC7"/>
<stop offset="0.99" stop-color="#8229F3"/>
</linearGradient>
</defs>
</svg>
