<svg width="138" height="30" viewBox="0 0 138 30" fill="none" xmlns="http://www.w3.org/2000/svg">
<path d="M7.14347 0.0467435H10.1746C10.23 0.0467435 10.2947 0.0654409 10.3409 0.102836L29.4703 13.3967C29.5442 13.4528 29.5997 13.5369 29.5997 13.6398V15.7619C29.5997 15.9956 29.3409 16.1359 29.1468 16.005L6.99561 0.598317C6.76458 0.439389 6.87548 0.0654409 7.16196 0.0654409L7.14347 0.0467435ZM48.3039 19.4266H47.0564L44.9124 23.8299L42.7684 19.4266H41.4192V20.4082L43.9883 25.5594L42.0661 29.0184V30H43.3691L48.3039 20.3521V19.4266ZM46.354 1.62667H49.5145V0.0467435H41.3638V1.62667H44.5243V10.6014H46.354V1.62667ZM51.2149 9.55438C51.7601 10.3584 52.5457 10.7604 53.5622 10.7604C54.514 10.7604 55.2811 10.4051 55.854 9.69461C56.427 8.98411 56.7227 8.10533 56.7227 7.04892C56.7227 6.00187 56.4362 5.12309 55.8725 4.42194C55.2995 3.72079 54.5325 3.36553 53.5622 3.36553C52.5364 3.36553 51.7509 3.77688 51.1964 4.59956L51.0763 3.53381H49.5515V14.1072H51.2149V9.55438ZM51.7324 8.61016C51.3813 8.17077 51.2149 7.64724 51.2149 7.04892C51.2149 6.45061 51.3905 5.92708 51.7324 5.48769C52.0743 5.067 52.5364 4.85198 53.1371 4.85198C53.7747 4.85198 54.2553 5.067 54.5695 5.49704C54.8929 5.93643 55.05 6.45061 55.05 7.04892C55.05 7.64724 54.8929 8.17077 54.5695 8.61016C54.246 9.04955 53.7747 9.27392 53.1371 9.27392C52.5549 9.27392 52.0836 9.04955 51.7324 8.61016ZM62.2027 9.61982L62.3506 10.5921H63.783V6.26363C63.783 5.31941 63.5335 4.59956 63.0252 4.10408C62.5169 3.6086 61.7869 3.36553 60.8166 3.36553C60.4377 3.36553 60.0957 3.41228 59.7815 3.49642C59.4673 3.5899 59.2178 3.68339 59.033 3.79557C58.8482 3.90776 58.6911 4.03864 58.5432 4.17887C58.4046 4.32845 58.3122 4.42194 58.2752 4.47803C58.2382 4.53412 58.2105 4.58087 58.192 4.61826V5.54378H59.3749L59.4026 5.49704C59.4211 5.46899 59.4488 5.4316 59.4766 5.3942C59.5043 5.34746 59.5505 5.30072 59.5967 5.24462C59.6429 5.18853 59.7076 5.13244 59.7908 5.07635C59.8647 5.02026 59.9571 4.97351 60.0495 4.92677C60.1419 4.88937 60.2528 4.85198 60.373 4.82393C60.4931 4.79589 60.6317 4.78654 60.7796 4.78654C61.6667 4.78654 62.1103 5.26332 62.1103 6.20754V6.59084L61.9347 6.54409C61.8054 6.51605 61.6205 6.488 61.3803 6.45996C61.14 6.43191 60.8997 6.42256 60.6687 6.42256C59.7076 6.42256 58.9868 6.61888 58.5062 7.00218C58.0257 7.39483 57.7947 7.90901 57.7947 8.55407C57.7947 9.15238 57.9887 9.66656 58.3676 10.0966C58.7558 10.5266 59.3287 10.7417 60.0957 10.7417C60.9921 10.7417 61.6945 10.3584 62.2027 9.60112V9.61982ZM59.4396 8.47928C59.4396 7.86226 59.8647 7.55375 60.7149 7.55375C61.2509 7.55375 61.7222 7.60985 62.1011 7.72203V8.05859C62.1011 8.39514 61.9532 8.70365 61.6667 8.98411C61.3803 9.26457 60.9921 9.4048 60.5023 9.4048C59.7908 9.4048 59.4304 9.09629 59.4304 8.47928H59.4396ZM67.3131 7.69399H70.2519V10.5921H71.9245V3.53381H70.2519V6.26363H67.3131V3.53381H65.6497V10.5921H67.3131V7.69399ZM78.1439 10.6014C78.4858 10.4986 78.7538 10.3864 78.9386 10.2555C79.1234 10.1246 79.2805 9.98442 79.4192 9.81614C79.5578 9.64787 79.6409 9.52633 79.6779 9.46089C79.7056 9.39545 79.7334 9.33936 79.7518 9.30196V8.37644H78.5874V8.40449C78.5782 8.42318 78.569 8.45123 78.5505 8.48863C78.532 8.52602 78.5135 8.56341 78.4858 8.61016C78.4673 8.64755 78.4303 8.70365 78.3841 8.75974C78.3379 8.81583 78.2917 8.87192 78.2363 8.91867C78.1808 8.96541 78.1161 9.01215 78.033 9.0589C77.959 9.10564 77.8666 9.15238 77.7742 9.18978C77.6818 9.22717 77.5617 9.25522 77.4323 9.27392C77.3029 9.29261 77.1643 9.30196 77.0164 9.30196C76.4158 9.30196 75.9445 9.09629 75.6302 8.6756C75.3068 8.25491 75.1497 7.72203 75.1497 7.06762C75.1497 6.41321 75.3068 5.87099 75.6302 5.4503C75.9537 5.0296 76.4158 4.81458 77.0164 4.81458C77.192 4.81458 77.3584 4.83328 77.5155 4.86133C77.6726 4.89872 77.8019 4.93612 77.9036 4.98286C78.0052 5.03895 78.0977 5.09505 78.1808 5.16983C78.264 5.23528 78.3287 5.31007 78.3841 5.36616C78.4303 5.4316 78.4765 5.48769 78.5043 5.54378C78.532 5.59987 78.5597 5.63727 78.569 5.66532L78.5782 5.72141H79.7426V4.79589L79.6871 4.65566C79.6409 4.55282 79.5578 4.43129 79.4284 4.28171C79.299 4.13213 79.1419 3.9919 78.9571 3.85167C78.7723 3.71144 78.5043 3.5899 78.1623 3.49642C77.8204 3.39358 77.4415 3.34684 77.0257 3.34684C75.9445 3.34684 75.085 3.70209 74.4381 4.41259C73.8005 5.12309 73.477 6.00187 73.477 7.06762C73.477 8.13337 73.782 9.0215 74.4012 9.72265C75.0111 10.4238 75.889 10.7697 77.0257 10.7697C77.4415 10.7697 77.8204 10.7136 78.1623 10.6108L78.1439 10.6014ZM83.014 4.94547H85.8141V10.5827H87.4867V3.52446H81.3413V10.5827H83.0048V4.94547H83.014ZM95.1662 9.68526C95.8131 8.97476 96.1365 8.09598 96.1365 7.03958C96.1365 5.99252 95.8131 5.11374 95.1662 4.41259C94.5193 3.71144 93.6599 3.35619 92.5787 3.35619C91.479 3.35619 90.6103 3.71144 89.9634 4.41259C89.3258 5.11374 89.0023 5.99252 89.0023 7.03958C89.0023 8.09598 89.3258 8.98411 89.9726 9.69461C90.6195 10.4051 91.4882 10.7604 92.5787 10.7604C93.6599 10.7604 94.5193 10.4051 95.1662 9.69461V9.68526ZM91.1463 8.62886C90.8321 8.19882 90.675 7.66594 90.675 7.03958C90.675 6.43191 90.8321 5.90838 91.1463 5.47834C91.4697 5.03895 91.941 4.81458 92.5787 4.81458C93.2071 4.81458 93.6876 5.03895 94.0111 5.47834C94.316 5.91773 94.4639 6.44126 94.4639 7.03958C94.4639 7.66594 94.316 8.19882 94.0111 8.62886C93.6876 9.06824 93.2163 9.29261 92.5787 9.29261C91.9503 9.29261 91.4697 9.06824 91.1463 8.62886ZM99.2786 9.54503C99.8238 10.349 100.609 10.751 101.626 10.751C102.578 10.751 103.345 10.3958 103.918 9.68526C104.491 8.97476 104.786 8.09598 104.786 7.03958C104.786 5.99252 104.5 5.11374 103.936 4.41259C103.363 3.71144 102.596 3.35619 101.626 3.35619C100.6 3.35619 99.8146 3.76753 99.2601 4.59021L99.1399 3.52446H97.6151V14.0978H99.2786V9.54503ZM99.7961 8.60081C99.4449 8.16142 99.2786 7.63789 99.2786 7.03958C99.2786 6.44126 99.4541 5.91773 99.7961 5.47834C100.138 5.05765 100.6 4.84263 101.201 4.84263C101.838 4.84263 102.319 5.05765 102.633 5.48769C102.957 5.92708 103.114 6.44126 103.114 7.03958C103.114 7.63789 102.957 8.16142 102.633 8.60081C102.31 9.0402 101.838 9.26457 101.201 9.26457C100.609 9.26457 100.147 9.0402 99.7961 8.60081ZM109.361 4.94547H111.477V3.52446H105.581V4.94547H107.697V10.5827H109.361V4.94547ZM114.351 7.68464H117.29V10.5827H118.962V3.52446H117.29V6.25428H114.351V3.52446H112.688V10.5827H114.351V7.68464ZM125.976 9.86289C126.448 9.4048 126.679 8.82518 126.679 8.13337C126.679 7.43222 126.429 6.86195 125.94 6.44126C125.45 6.01122 124.729 5.7962 123.786 5.7962H122.539V3.51511H120.875V10.5734H123.759C124.747 10.5734 125.487 10.3303 125.967 9.85354L125.976 9.86289ZM129.211 3.52446H127.547V10.5827H129.211V3.52446ZM123.648 7.12371C124.516 7.12371 124.951 7.46962 124.951 8.15207C124.951 8.89062 124.516 9.26457 123.648 9.26457H122.548V7.12371H123.648ZM135.883 2.05672C136.031 1.95388 136.16 1.83235 136.271 1.70146C136.382 1.57058 136.456 1.46775 136.484 1.39296C136.511 1.31817 136.539 1.25273 136.558 1.19663V0.355251H135.338C135.338 0.420692 135.319 0.514179 135.273 0.635712C135.227 0.757245 135.125 0.888127 134.968 1.02836C134.811 1.16859 134.626 1.24338 134.404 1.24338C134.164 1.24338 133.97 1.16859 133.813 1.02836C133.656 0.888127 133.564 0.757245 133.527 0.645061C133.49 0.532876 133.471 0.43004 133.471 0.355251H132.251V1.19663C132.27 1.25273 132.297 1.31817 132.325 1.39296C132.353 1.46775 132.427 1.57058 132.538 1.70146C132.649 1.83235 132.778 1.95388 132.926 2.05672C133.074 2.15955 133.277 2.25304 133.536 2.32783C133.795 2.41197 134.09 2.44936 134.404 2.44936C134.728 2.44936 135.014 2.41197 135.273 2.32783C135.532 2.24369 135.735 2.15955 135.883 2.05672ZM135.874 5.93643V10.5734H137.547V3.51511H135.975L132.787 8.14272V3.51511H131.124V10.5734H132.676L135.865 5.93643H135.874ZM51.141 23.5681H54.0797V26.4662H55.7524V19.4079H54.0797V22.1377H51.141V19.4079H49.4776V26.4662H51.141V23.5681ZM62.4153 21.8199V26.4568H64.0972V19.3986H62.5262L59.338 24.0262V19.3986H57.6745V26.4568H59.2271L62.4153 21.8199ZM71.2776 25.924C71.7489 25.5687 71.98 25.0452 71.98 24.344C71.98 23.9514 71.8691 23.6148 71.638 23.325C71.407 23.0352 71.0928 22.8389 70.6769 22.7174C71.3608 22.4369 71.712 21.9414 71.712 21.2309C71.712 20.6326 71.4902 20.1745 71.0374 19.8567C70.5845 19.5388 69.9931 19.3799 69.2538 19.3799H66.0101V26.4662H69.4017C70.1872 26.4662 70.8156 26.2886 71.2869 25.9333L71.2776 25.924ZM69.0597 20.6326C69.6789 20.6326 69.9839 20.885 69.9839 21.3805C69.9839 21.8947 69.6789 22.1564 69.0597 22.1564H67.6273V20.6419H69.0597V20.6326ZM69.1429 23.4279C69.8822 23.4279 70.2519 23.7177 70.2519 24.2973C70.2519 24.8769 69.8822 25.1667 69.1429 25.1667H67.6273V23.4185H69.1429V23.4279ZM77.9036 26.4849C78.264 26.3914 78.5505 26.2979 78.7538 26.1857C78.9571 26.0735 79.1419 25.9427 79.299 25.8024C79.4561 25.6622 79.5578 25.5594 79.604 25.5033C79.6409 25.4472 79.6779 25.4004 79.6964 25.363V24.4375H78.4858L78.4765 24.4843C78.4581 24.5123 78.4303 24.5497 78.3934 24.5871C78.3564 24.6338 78.3102 24.6806 78.2548 24.7367C78.1993 24.7928 78.1254 24.8489 78.033 24.905C77.9406 24.961 77.8389 25.0078 77.7188 25.0545C77.5986 25.1013 77.4508 25.1293 77.2844 25.1574C77.1181 25.1854 76.9333 25.2041 76.7392 25.2041C76.1478 25.2041 75.6765 25.0265 75.3345 24.6806C74.9926 24.3347 74.7985 23.8579 74.7616 23.2502H79.7611L79.8258 22.4182C79.8258 21.4646 79.5578 20.6887 79.0125 20.1091C78.4765 19.5201 77.6633 19.2303 76.5821 19.2303C75.4916 19.2303 74.6322 19.5855 74.013 20.2867C73.3939 20.9878 73.0797 21.876 73.0797 22.9324C73.0797 24.0355 73.3939 24.933 74.0223 25.6155C74.6507 26.2979 75.5471 26.6345 76.7207 26.6345C77.1458 26.6345 77.5339 26.5877 77.8943 26.5036L77.9036 26.4849ZM76.5913 20.6232C77.1088 20.6232 77.5155 20.7635 77.7927 21.0346C78.0699 21.3151 78.2085 21.661 78.2085 22.0816H74.817C75.0203 21.1094 75.6118 20.6232 76.5913 20.6232ZM83.0787 25.4004C83.6332 26.2044 84.4094 26.6064 85.426 26.6064C86.3778 26.6064 87.1448 26.2512 87.7178 25.5407C88.3 24.8302 88.5865 23.9514 88.5865 22.895C88.5865 21.8479 88.3 20.9691 87.7363 20.268C87.1725 19.5668 86.3963 19.2116 85.426 19.2116C84.4002 19.2116 83.6147 19.6229 83.0602 20.4456L82.9401 19.3799H81.4153V29.9533H83.0787V25.4004ZM83.6054 24.4562C83.2543 24.0168 83.0787 23.4933 83.0787 22.895C83.0787 22.2967 83.2543 21.7731 83.6054 21.3337C83.9474 20.9131 84.4094 20.698 85.0101 20.698C85.6477 20.698 86.1283 20.9131 86.4425 21.3431C86.7659 21.7825 86.923 22.2967 86.923 22.8856C86.923 23.4839 86.7659 24.0075 86.4425 24.4469C86.119 24.8863 85.6477 25.1106 85.0101 25.1106C84.4187 25.1106 83.9566 24.8863 83.6054 24.4469V24.4562ZM94.4177 26.4568C94.7596 26.354 95.0276 26.2418 95.2124 26.1109C95.3972 25.9801 95.5543 25.8398 95.693 25.6715C95.8316 25.5033 95.9148 25.3817 95.9517 25.3163C95.9794 25.2509 96.0072 25.1948 96.0257 25.1574V24.2318H94.8613V24.2599C94.852 24.2786 94.8428 24.3066 94.8243 24.344C94.8058 24.3814 94.7873 24.4188 94.7596 24.4656C94.7411 24.5123 94.7042 24.5591 94.6579 24.6151C94.6117 24.6712 94.5655 24.7273 94.5101 24.7741C94.4546 24.8208 94.39 24.8676 94.3068 24.9143C94.2328 24.961 94.1404 25.0078 94.048 25.0452C93.9556 25.0826 93.8355 25.1106 93.7153 25.1293C93.586 25.148 93.4473 25.1574 93.2995 25.1574C92.6988 25.1574 92.2275 24.9517 91.9133 24.531C91.5899 24.1103 91.4328 23.5774 91.4328 22.923C91.4328 22.2686 91.5899 21.7264 91.9133 21.3057C92.2367 20.885 92.6988 20.67 93.2995 20.67C93.4751 20.67 93.6414 20.6887 93.7985 20.7167C93.9556 20.7541 94.085 20.7915 94.1866 20.8383C94.2883 20.8944 94.3807 20.9505 94.4639 21.0252C94.5471 21.0907 94.6117 21.1655 94.6672 21.2216C94.7134 21.287 94.7596 21.3431 94.7873 21.3992C94.815 21.4553 94.8428 21.502 94.852 21.5301L94.8705 21.5862H96.0349V20.6606L95.9794 20.5204C95.9332 20.4176 95.8501 20.296 95.7207 20.1465C95.5913 19.9969 95.4342 19.8567 95.2494 19.7164C95.0646 19.5762 94.7966 19.4547 94.4546 19.3612C94.1127 19.2583 93.7338 19.2116 93.318 19.2116C92.2367 19.2116 91.3773 19.5668 90.7304 20.2773C90.0928 20.9878 89.7693 21.8666 89.7693 22.9324C89.7693 23.9981 90.0743 24.8863 90.6935 25.5874C91.3034 26.2886 92.1813 26.6345 93.318 26.6345C93.7338 26.6345 94.1035 26.5784 94.4546 26.4755L94.4177 26.4568ZM102.374 21.8012V26.4381H104.047V19.3799H102.476L99.2878 24.0075V19.3799H97.6244V26.4381H99.1769L102.365 21.8012H102.374ZM109.037 20.8009H111.154V19.3799H105.258V20.8009H107.374V26.4381H109.037V20.8009ZM116.754 26.4755C117.114 26.382 117.401 26.2886 117.604 26.1764C117.807 26.0642 117.992 25.9333 118.149 25.7931C118.306 25.6529 118.408 25.55 118.454 25.4939C118.491 25.4378 118.528 25.3911 118.547 25.3537V24.4282H117.336L117.327 24.4749C117.308 24.503 117.28 24.5404 117.244 24.5777C117.207 24.6245 117.16 24.6712 117.105 24.7273C117.049 24.7834 116.976 24.8395 116.883 24.8956C116.791 24.9517 116.689 24.9984 116.569 25.0452C116.449 25.0919 116.31 25.12 116.135 25.148C115.968 25.1761 115.783 25.1948 115.589 25.1948C114.989 25.1948 114.527 25.0171 114.185 24.6712C113.843 24.3253 113.649 23.8486 113.612 23.2409H118.611L118.676 22.4088C118.676 21.4553 118.408 20.6793 117.863 20.0997C117.327 19.5107 116.513 19.2209 115.432 19.2209C114.342 19.2209 113.482 19.5762 112.863 20.2773C112.244 20.9785 111.93 21.8666 111.93 22.923C111.93 24.0262 112.244 24.9237 112.872 25.6061C113.501 26.2886 114.397 26.6251 115.571 26.6251C115.996 26.6251 116.384 26.5784 116.744 26.4942L116.754 26.4755ZM115.441 20.6139C115.959 20.6139 116.366 20.7541 116.643 21.0252C116.92 21.3057 117.059 21.6516 117.059 22.0723H113.667C113.87 21.1 114.462 20.6139 115.441 20.6139ZM123.343 20.7915H125.459V19.3705H119.563V20.7915H121.679V26.4288H123.343V20.7915ZM8.64055 4.44998L1.9499 0.0467435C1.90369 0.0186974 1.84825 0 1.7928 0H0.286478C0.129377 0 0 0.130882 0 0.28981V1.37426C0 1.4771 0.0462062 1.57058 0.129377 1.61733L7.10651 6.19819C7.23589 6.28233 7.41147 6.24494 7.50388 6.11405L8.64055 4.44064V4.44998ZM29.4611 18.9872L25.8477 16.4257C25.7184 16.3322 25.5335 16.3696 25.4411 16.5005L24.4708 17.9215C24.3784 18.0524 24.4153 18.2393 24.5447 18.3328L29.1191 21.5301C29.3132 21.661 29.5719 21.5207 29.5719 21.287V19.2303C29.5719 19.1368 29.5257 19.0433 29.4518 18.9872H29.4611ZM11.5885 20.5578L9.94357 19.4079C9.81419 19.3144 9.62936 19.3518 9.53695 19.4827L2.76313 29.4671C2.63375 29.6634 2.77237 29.9252 3.0034 29.9252H5.08268C5.17509 29.9252 5.2675 29.8785 5.32295 29.7943L11.5977 20.5485L11.5885 20.5578ZM11.7086 12.2094L0.462062 4.38454C0.267996 4.25366 0.00924123 4.39389 0.00924123 4.62761V6.73107C0.00924123 6.82456 0.0554474 6.91804 0.138618 6.97413L8.29863 12.6488C8.428 12.7423 8.46497 12.9199 8.37256 13.0601L0.0646886 25.2882C0.0277237 25.335 0.0184825 25.3911 0.0184825 25.4565V27.6535V28.607C0.0184825 28.8969 0.388132 29.009 0.545233 28.7753L11.7179 12.2281L11.7086 12.2094ZM17.9557 19.3612L29.1376 27.1393C29.3317 27.2702 29.5904 27.1299 29.5904 26.8962V24.7928C29.5904 24.6993 29.5442 24.6058 29.4611 24.5497L17.6045 16.3041C17.4752 16.2107 17.2903 16.2481 17.1979 16.3789L8.31711 29.4671C8.18773 29.6634 8.32635 29.9252 8.55738 29.9252H10.6367C10.7291 29.9252 10.8215 29.8785 10.8769 29.7943L17.965 19.3612H17.9557Z" fill="#163E73"/>
</svg>
