<svg width="1174" height="1174" viewBox="0 0 1174 1174" fill="none" xmlns="http://www.w3.org/2000/svg">
<path d="M1087 587C1087 863.142 863.142 1087 587 1087C310.858 1087 87 863.142 87 587C87 310.858 310.858 87 587 87C863.142 87 1087 310.858 1087 587Z" fill="#083BE9"/>
<path d="M276.958 476.891L266.863 472.221L267.496 470.471C268.324 468.225 268.312 466.095 267.459 464.081C266.588 462.058 264.68 459.966 261.735 457.805C258.78 455.617 254.591 453.151 249.17 450.408L223.2 437.198L241.852 396.878L301.258 424.359L295.609 436.571L246.268 413.746L238.66 430.193L258.913 440.689C265.422 444.075 270.489 447.382 274.114 450.608C277.748 453.815 279.931 457.267 280.663 460.963C281.404 464.639 280.67 468.865 278.46 473.642L276.958 476.891Z" fill="white"/>
<path d="M250.581 381.716L258.567 370.454L292.147 394.264L292.461 393.821L275.242 346.938L282.248 337.057L335.642 374.917L327.637 386.206L294.032 362.377L293.754 362.768L310.907 409.8L303.975 419.577L250.581 381.716Z" fill="white"/>
<path d="M348.16 383.604L329.704 364.152L332.927 361.094C333.276 359.265 333.225 357.199 332.773 354.896C332.307 352.578 331.188 349.835 329.418 346.669C327.632 343.487 324.914 339.693 321.262 335.287L303.557 313.932L334.973 284.126L372.435 323.61L377.628 318.683L396.04 338.089L386.395 347.24L375.572 335.833L346.938 363L357.805 374.453L348.16 383.604ZM344.519 350.095L362.79 332.761L333.181 301.554L320.452 313.63L330.907 326.136C333.683 329.464 335.99 332.562 337.829 335.428C339.683 338.28 341.151 340.926 342.232 343.366C343.314 345.776 344.077 348.019 344.519 350.095Z" fill="white"/>
<path d="M388.169 325.591L352.15 270.938L388.976 246.667L395.255 256.194L369.983 272.85L378.566 285.872L401.943 270.465L408.222 279.992L384.845 295.399L393.445 308.448L418.824 291.722L425.102 301.249L388.169 325.591Z" fill="white"/>
<path d="M431.046 297.848L404.198 238.153L427.749 227.561C432.277 225.524 436.523 224.654 440.488 224.95C444.444 225.227 447.943 226.515 450.986 228.814C454.04 231.085 456.459 234.203 458.242 238.167C460.025 242.131 460.743 246.013 460.396 249.814C460.05 253.614 458.634 257.089 456.149 260.24C453.684 263.381 450.158 265.983 445.572 268.045L430.561 274.797L426.012 264.683L438.983 258.849C441.412 257.756 443.226 256.438 444.424 254.895C445.633 253.323 446.289 251.615 446.393 249.769C446.508 247.895 446.125 245.976 445.242 244.014C444.35 242.032 443.174 240.481 441.713 239.363C440.263 238.216 438.558 237.593 436.597 237.494C434.628 237.375 432.419 237.866 429.971 238.967L421.46 242.795L443.667 292.172L431.046 297.848Z" fill="white"/>
<path d="M478.62 233.396L493.808 229.849C498.871 228.667 503.42 228.469 507.454 229.255C511.505 230.016 514.872 231.647 517.557 234.149C520.242 236.651 522.044 239.917 522.963 243.947C523.919 247.947 523.76 251.715 522.485 255.25C521.205 258.766 518.93 261.813 515.66 264.393C512.41 266.968 508.254 268.847 503.192 270.029L479.383 275.589L464.497 211.85L477.942 208.71L490.298 261.619L500.662 259.198C503.09 258.631 505.032 257.718 506.488 256.459C507.94 255.179 508.921 253.714 509.433 252.063C509.96 250.386 510.01 248.679 509.582 246.941C509.012 244.405 507.558 242.49 505.222 241.198C502.901 239.88 499.925 239.645 496.294 240.493L481.106 244.04L478.62 233.396ZM531.473 196.208L546.359 259.948L532.914 263.088L518.028 199.348L531.473 196.208Z" fill="white"/>
<path d="M572.29 204.547L572.641 193.143L626.373 194.796L626.022 206.2L605.993 205.584L604.331 259.603L590.658 259.182L592.32 205.163L572.29 204.547Z" fill="white"/>
<path d="M628.73 261.119L641.62 196.946L666.938 202.031C671.805 203.009 675.765 204.771 678.818 207.319C681.874 209.845 683.971 212.928 685.109 216.569C686.272 220.193 686.426 224.135 685.57 228.397C684.714 232.658 683.039 236.234 680.546 239.123C678.054 242.013 674.88 244.016 671.027 245.133C667.194 246.254 662.813 246.319 657.883 245.329L641.745 242.087L643.929 231.214L657.873 234.015C660.484 234.54 662.726 234.523 664.599 233.964C666.496 233.389 668.024 232.381 669.183 230.941C670.367 229.483 671.171 227.7 671.594 225.59C672.022 223.459 671.968 221.514 671.43 219.754C670.917 217.978 669.893 216.479 668.356 215.258C666.824 214.015 664.741 213.13 662.109 212.601L652.96 210.763L642.298 263.844L628.73 261.119Z" fill="white"/>
<path d="M692.746 276.418L678.97 270.927L724.196 218.492L740.763 225.095L737.486 294.252L723.711 288.761L727.179 235.782L726.704 235.593L692.746 276.418ZM701.411 252.175L733.95 265.146L729.95 275.18L697.411 262.21L701.411 252.175Z" fill="white"/>
<path d="M739.677 295.692L774.855 240.493L786.525 247.931L772.011 270.706L795.702 285.804L810.216 263.029L821.86 270.449L786.682 325.647L775.039 318.227L789.57 295.426L765.879 280.327L751.348 303.129L739.677 295.692Z" fill="white"/>
<path d="M862.774 338.151L852.588 328.549C853.644 327.056 854.368 325.527 854.759 323.963C855.164 322.384 855.261 320.806 855.049 319.229C854.836 317.653 854.324 316.116 853.511 314.617C852.713 313.133 851.633 311.748 850.268 310.462C847.803 308.138 845.079 306.727 842.094 306.227C839.125 305.711 836.04 306.142 832.84 307.517C829.655 308.877 826.505 311.208 823.392 314.511C820.192 317.906 818.006 321.234 816.836 324.494C815.682 327.768 815.464 330.857 816.183 333.76C816.901 336.663 818.462 339.247 820.865 341.513C822.214 342.784 823.63 343.782 825.114 344.507C826.613 345.247 828.133 345.7 829.675 345.865C831.232 346.015 832.773 345.872 834.298 345.435C835.838 345.013 837.323 344.275 838.754 343.223L848.896 352.872C846.572 354.81 843.925 356.297 840.956 357.334C838.018 358.371 834.912 358.854 831.639 358.785C828.396 358.715 825.12 357.997 821.808 356.633C818.528 355.268 815.36 353.145 812.306 350.266C808.058 346.261 805.165 341.719 803.629 336.64C802.108 331.575 802.096 326.308 803.592 320.837C805.105 315.382 808.302 310.065 813.183 304.886C818.079 299.693 823.221 296.195 828.61 294.393C833.998 292.591 839.265 292.315 844.412 293.565C849.573 294.8 854.246 297.39 858.432 301.336C861.192 303.938 863.385 306.737 865.01 309.734C866.652 312.745 867.686 315.857 868.112 319.07C868.553 322.268 868.339 325.477 867.469 328.698C866.615 331.934 865.05 335.085 862.774 338.151Z" fill="white"/>
<path d="M921.826 379.377L868.665 417.564L860.685 406.454L904.708 374.831L889.269 353.338L845.246 384.962L837.265 373.852L890.426 335.665L921.826 379.377Z" fill="white"/>
<path d="M927.252 464.671C920.764 467.646 914.68 468.947 909.001 468.574C903.331 468.221 898.327 466.483 893.989 463.362C889.68 460.252 886.322 456.072 883.915 450.824C881.49 445.536 880.516 440.241 880.99 434.937C881.464 429.633 883.418 424.717 886.85 420.19C890.283 415.662 895.234 411.915 901.702 408.949C908.191 405.974 914.27 404.663 919.94 405.017C925.611 405.37 930.601 407.102 934.91 410.213C939.239 413.314 942.615 417.509 945.04 422.796C947.446 428.045 948.413 433.321 947.938 438.625C947.492 443.94 945.552 448.861 942.12 453.388C938.696 457.935 933.741 461.695 927.252 464.671ZM921.404 451.917C925.607 449.99 928.863 447.735 931.171 445.153C933.489 442.59 934.874 439.834 935.326 436.884C935.778 433.934 935.307 430.939 933.913 427.898C932.519 424.857 930.556 422.546 928.026 420.964C925.496 419.381 922.499 418.622 919.036 418.687C915.582 418.77 911.753 419.776 907.55 421.703C903.348 423.63 900.087 425.875 897.77 428.438C895.461 431.02 894.081 433.786 893.629 436.736C893.176 439.686 893.647 442.681 895.042 445.722C896.436 448.762 898.398 451.074 900.929 452.656C903.459 454.238 906.451 454.988 909.906 454.904C913.369 454.84 917.202 453.844 921.404 451.917Z" fill="white"/>
<path d="M898.517 483.165L961.914 466.882L968.339 491.894C969.574 496.702 969.707 501.035 968.74 504.891C967.793 508.742 965.928 511.971 963.144 514.578C960.385 517.2 956.901 519.052 952.691 520.133C948.481 521.214 944.533 521.26 940.848 520.271C937.162 519.282 933.979 517.295 931.298 514.31C928.623 511.345 926.66 507.428 925.409 502.557L921.314 486.615L932.056 483.856L935.594 497.631C936.256 500.211 937.246 502.223 938.563 503.666C939.905 505.125 941.477 506.064 943.278 506.481C945.105 506.914 947.061 506.862 949.145 506.327C951.25 505.786 952.978 504.891 954.329 503.643C955.706 502.409 956.611 500.835 957.043 498.92C957.496 497 957.388 494.739 956.72 492.139L954.399 483.1L901.96 496.569L898.517 483.165Z" fill="white"/>
<path d="M965.126 528.706L976.498 527.775L980.884 581.353L969.512 582.284L967.877 562.312L914.013 566.721L912.897 553.088L966.761 548.679L965.126 528.706Z" fill="white"/>
<path d="M915.778 590.731L980.912 597.195L979.545 610.966L952.671 608.299L949.897 636.255L976.771 638.922L975.407 652.661L910.273 646.197L911.636 632.458L938.543 635.128L941.317 607.172L914.411 604.502L915.778 590.731Z" fill="white"/>
<path d="M923.5 718.814C916.661 716.769 911.231 713.733 907.209 709.706C903.181 705.7 900.567 701.093 899.366 695.886C898.18 690.705 898.414 685.349 900.068 679.817C901.734 674.244 904.495 669.621 908.351 665.948C912.207 662.275 916.918 659.87 922.484 658.732C928.051 657.594 934.243 658.045 941.061 660.083C947.9 662.128 953.333 665.154 957.361 669.161C961.39 673.167 963.997 677.761 965.183 682.941C966.39 688.128 966.16 693.508 964.494 699.081C962.839 704.613 960.084 709.215 956.229 712.888C952.387 716.588 947.683 719.006 942.117 720.144C936.544 721.302 930.339 720.859 923.5 718.814ZM927.52 705.371C931.949 706.696 935.883 707.15 939.322 706.732C942.754 706.335 945.613 705.177 947.899 703.259C950.185 701.341 951.808 698.779 952.766 695.574C953.724 692.369 953.775 689.337 952.917 686.479C952.059 683.621 950.308 681.073 947.663 678.837C945.012 676.621 941.472 674.851 937.042 673.526C932.612 672.201 928.681 671.738 925.249 672.135C921.81 672.552 918.948 673.72 916.662 675.638C914.376 677.557 912.754 680.118 911.795 683.323C910.837 686.528 910.787 689.56 911.645 692.418C912.502 695.277 914.257 697.814 916.908 700.03C919.552 702.266 923.09 704.047 927.52 705.371Z" fill="white"/>
<path d="M928.114 783.264L917.911 778.158L931.157 751.692L882.828 727.503L889.021 715.128L947.554 744.423L928.114 783.264Z" fill="white"/>
<path d="M859.015 825.003C853.272 820.765 849.189 816.07 846.767 810.92C844.332 805.787 843.431 800.567 844.063 795.261C844.699 789.984 846.732 785.023 850.16 780.377C853.614 775.697 857.776 772.281 862.648 770.129C867.519 767.977 872.766 767.308 878.389 768.121C884.012 768.934 889.686 771.453 895.413 775.678C901.156 779.917 905.245 784.602 907.68 789.735C910.115 794.869 911.014 800.073 910.377 805.35C909.758 810.639 907.721 815.624 904.268 820.304C900.839 824.95 896.689 828.349 891.818 830.501C886.951 832.682 881.707 833.366 876.084 832.553C870.448 831.758 864.759 829.241 859.015 825.003ZM867.346 813.713C871.066 816.458 874.615 818.216 877.992 818.987C881.356 819.775 884.438 819.653 887.238 818.621C890.039 817.589 892.432 815.728 894.418 813.036C896.404 810.344 897.478 807.508 897.638 804.528C897.798 801.548 897.012 798.559 895.28 795.559C893.535 792.577 890.802 789.713 887.082 786.968C883.361 784.223 879.819 782.456 876.455 781.668C873.078 780.898 869.99 781.028 867.189 782.06C864.389 783.092 861.996 784.953 860.01 787.645C858.023 790.337 856.95 793.173 856.79 796.153C856.63 799.133 857.422 802.114 859.167 805.096C860.899 808.096 863.626 810.968 867.346 813.713Z" fill="white"/>
<path d="M787.558 887.566C783.123 881.974 780.409 876.375 779.417 870.771C778.409 865.18 778.904 859.906 780.901 854.949C782.895 850.023 786.153 845.765 790.677 842.177C795.234 838.562 800.145 836.353 805.41 835.55C810.674 834.747 815.913 835.472 821.128 837.727C826.343 839.981 831.162 843.896 835.584 849.472C840.02 855.064 842.742 860.656 843.75 866.247C844.759 871.838 844.266 877.097 842.272 882.024C840.292 886.967 837.023 891.246 832.465 894.86C827.942 898.449 823.048 900.645 817.783 901.448C812.516 902.281 807.274 901.57 802.059 899.316C796.828 897.075 791.994 893.158 787.558 887.566ZM798.551 878.847C801.424 882.469 804.39 885.094 807.448 886.72C810.489 888.36 813.496 889.048 816.468 888.784C819.441 888.52 822.238 887.349 824.859 885.27C827.479 883.191 829.257 880.735 830.19 877.9C831.124 875.066 831.147 871.974 830.259 868.626C829.354 865.292 827.465 861.813 824.592 858.191C821.719 854.568 818.761 851.937 815.72 850.297C812.662 848.671 809.647 847.989 806.674 848.253C803.702 848.517 800.905 849.688 798.284 851.767C795.663 853.846 793.886 856.303 792.953 859.137C792.019 861.972 792.005 865.056 792.909 868.391C793.797 871.739 795.677 875.224 798.551 878.847Z" fill="white"/>
<path d="M763.191 863.96L794.094 921.66L755.806 942.166L750.419 932.108L776.508 918.135L770.472 906.866L761.09 911.891C756.526 914.335 752.194 915.701 748.093 915.987C743.984 916.303 740.309 915.6 737.067 913.88C733.826 912.16 731.229 909.478 729.277 905.834C727.336 902.209 726.522 898.524 726.837 894.778C727.161 891.051 728.568 887.518 731.058 884.179C733.528 880.849 737.046 877.962 741.61 875.518L763.191 863.96ZM756.243 880.298L746.861 885.323C744.682 886.489 743.053 887.87 741.973 889.463C740.903 891.076 740.335 892.746 740.269 894.473C740.194 896.229 740.579 897.896 741.424 899.474C742.652 901.765 744.561 903.232 747.153 903.874C749.736 904.545 752.662 904.005 755.93 902.255L765.312 897.23L756.243 880.298Z" fill="white"/>
<path d="M715.279 889.112L736.371 951.075L711.925 959.397C707.225 960.996 702.916 961.462 698.997 960.792C695.084 960.143 691.722 958.531 688.91 955.955C686.084 953.405 683.97 950.073 682.57 945.959C681.169 941.844 680.821 937.911 681.525 934.16C682.229 930.41 683.966 927.083 686.737 924.182C689.488 921.288 693.244 919.03 698.004 917.41L713.586 912.106L717.159 922.605L703.696 927.187C701.174 928.046 699.244 929.187 697.906 930.61C696.554 932.06 695.739 933.7 695.461 935.527C695.169 937.382 695.37 939.328 696.064 941.365C696.764 943.423 697.789 945.077 699.137 946.329C700.473 947.607 702.112 948.388 704.054 948.672C706.003 948.977 708.249 948.696 710.79 947.831L719.625 944.824L702.179 893.571L715.279 889.112Z" fill="white"/>
<path d="M653.716 907.984L668.374 905.736L655.959 973.859L638.331 976.562L606.108 915.283L620.767 913.035L644.626 960.465L645.131 960.387L653.716 907.984ZM658.531 933.274L623.907 938.582L622.27 927.905L656.894 922.596L658.531 933.274Z" fill="white"/>
<path d="M579.246 913.433C584.017 913.562 588.244 914.497 591.927 916.237C595.589 917.999 598.456 920.357 600.529 923.311C602.58 926.287 603.586 929.682 603.547 933.496L589.617 933.12C589.575 931.52 589.091 930.101 588.166 928.861C587.218 927.641 585.944 926.68 584.343 925.976C582.742 925.272 580.93 924.893 578.906 924.838C576.798 924.781 574.924 925.104 573.285 925.805C571.646 926.507 570.351 927.506 569.4 928.802C568.448 930.098 567.949 931.608 567.903 933.333C567.856 935.08 568.304 936.637 569.247 938.005C570.169 939.394 571.525 940.497 573.314 941.312C575.083 942.127 577.202 942.568 579.673 942.635L585.775 942.8L585.501 952.959L579.399 952.795C577.311 952.738 575.459 953.051 573.842 953.732C572.204 954.412 570.92 955.379 569.991 956.633C569.062 957.908 568.574 959.408 568.527 961.134C568.483 962.774 568.838 964.222 569.593 965.479C570.326 966.756 571.385 967.765 572.772 968.506C574.138 969.246 575.747 969.641 577.6 969.691C579.474 969.742 581.198 969.447 582.771 968.808C584.344 968.189 585.615 967.275 586.586 966.065C587.556 964.855 588.096 963.42 588.205 961.761L601.463 962.119C601.298 965.887 600.133 969.18 597.968 971.999C595.803 974.818 592.931 976.99 589.351 978.513C585.75 980.057 581.713 980.769 577.24 980.648C572.725 980.526 568.796 979.599 565.454 977.868C562.111 976.136 559.541 973.85 557.742 971.01C555.921 968.19 555.068 965.055 555.182 961.605C555.26 957.941 556.482 954.915 558.848 952.528C561.193 950.14 564.206 948.665 567.888 948.104L567.901 947.593C563.105 946.845 559.486 945.074 557.047 942.28C554.585 939.507 553.42 936.086 553.551 932.019C553.63 928.291 554.795 925.008 557.046 922.17C559.275 919.331 562.308 917.132 566.144 915.573C569.98 914.014 574.347 913.301 579.246 913.433Z" fill="white"/>
<path d="M483.353 933.105C484.84 926.123 487.427 920.466 491.116 916.132C494.785 911.793 499.165 908.816 504.259 907.199C509.326 905.598 514.684 905.399 520.332 906.601C526.021 907.812 530.852 910.191 534.824 913.738C538.796 917.284 541.574 921.786 543.157 927.242C544.741 932.698 544.792 938.907 543.31 945.867C541.824 952.849 539.247 958.509 535.578 962.847C531.91 967.186 527.542 970.155 522.474 971.756C517.402 973.377 512.021 973.583 506.332 972.372C500.684 971.169 495.874 968.795 491.902 965.248C487.904 961.718 485.114 957.224 483.531 951.768C481.926 946.307 481.867 940.086 483.353 933.105ZM497.077 936.026C496.114 940.548 495.979 944.506 496.673 947.9C497.346 951.289 498.731 954.045 500.827 956.169C502.924 958.292 505.608 959.703 508.88 960.399C512.152 961.095 515.178 960.901 517.958 959.815C520.738 958.73 523.135 956.778 525.151 953.962C527.146 951.14 528.624 947.469 529.587 942.946C530.549 938.424 530.694 934.468 530.022 931.079C529.328 927.686 527.933 924.927 525.836 922.804C523.739 920.68 521.055 919.27 517.783 918.573C514.511 917.877 511.486 918.071 508.706 919.157C505.926 920.243 503.539 922.196 501.544 925.017C499.528 927.834 498.039 931.504 497.077 936.026Z" fill="white"/>
<path d="M483.378 898.455L458.206 958.876L434.014 948.797C429.569 946.945 426.136 944.742 423.715 942.187C421.294 939.632 419.824 936.873 419.304 933.909C418.776 930.966 419.143 927.98 420.405 924.951C421.388 922.59 422.725 920.712 424.415 919.316C426.096 917.939 428.001 917.024 430.128 916.572C432.228 916.131 434.428 916.112 436.729 916.517L436.975 915.927C434.715 914.87 432.831 913.324 431.325 911.288C429.799 909.245 428.857 906.879 428.5 904.191C428.134 901.523 428.57 898.703 429.807 895.734C431.143 892.528 433.132 889.998 435.774 888.144C438.388 886.302 441.542 885.296 445.236 885.127C448.93 884.958 453.039 885.816 457.563 887.7L483.378 898.455ZM466.252 903.577L455.838 899.238C452.278 897.755 449.399 897.352 447.201 898.029C444.995 898.726 443.417 900.215 442.466 902.496C441.77 904.168 441.559 905.811 441.832 907.425C442.106 909.04 442.839 910.522 444.03 911.873C445.202 913.215 446.811 914.312 448.857 915.164L459.566 919.626L466.252 903.577ZM455.965 928.27L446.495 924.325C444.744 923.595 443.063 923.253 441.452 923.297C439.813 923.353 438.363 923.788 437.101 924.601C435.819 925.405 434.846 926.604 434.183 928.198C433.273 930.381 433.317 932.465 434.313 934.449C435.29 936.426 437.195 938.004 440.027 939.184L449.733 943.228L455.965 928.27Z" fill="white"/>
<path d="M424.458 871.773L436.934 879.791L382.537 922.638L367.535 912.996L383.94 845.734L396.416 853.751L382.908 905.096L383.338 905.372L424.458 871.773ZM411.328 893.918L381.861 874.98L387.701 865.892L417.169 884.83L411.328 893.918Z" fill="white"/>
<path d="M382.906 844.802L337.83 892.262L327.796 882.732L346.394 863.15L326.024 843.804L307.426 863.385L297.415 853.877L342.491 806.417L352.502 815.925L333.882 835.531L354.251 854.877L372.872 835.272L382.906 844.802Z" fill="white"/>
<path d="M284.762 839.714L276.707 828.5L310.14 804.484L309.823 804.043L259.888 805.087L252.821 795.249L305.982 757.062L314.056 768.302L280.597 792.336L280.876 792.725L330.93 791.793L337.923 801.527L284.762 839.714Z" fill="white"/>
<path d="M280.909 705.836L286.846 718.301L237.965 741.58L241.978 750.006C243.123 752.41 244.432 754.241 245.904 755.499C247.348 756.747 248.93 757.444 250.653 757.592C252.375 757.739 254.217 757.346 256.179 756.411C258.122 755.486 259.56 754.317 260.492 752.906C261.425 751.494 261.842 749.844 261.745 747.955C261.648 746.066 261.031 743.929 259.895 741.543L253.437 727.981L263.478 723.199L270.899 738.781C273.052 743.302 274.143 747.526 274.173 751.453C274.202 755.38 273.216 758.859 271.213 761.889C269.192 764.928 266.219 767.383 262.294 769.252C258.389 771.111 254.6 771.901 250.927 771.621C247.225 771.331 243.834 769.984 240.754 767.58C237.646 765.166 235.029 761.728 232.904 757.265L221.814 733.979L280.909 705.836ZM269.201 750.528L262.784 737.053L296.52 738.615L303.089 752.408L269.201 750.528Z" fill="white"/>
<path d="M437.745 598.565C441.337 598.565 444.215 597.681 446.438 596.123C448.651 594.57 450.385 592.229 451.497 589.016C452.373 586.306 452.498 582.592 451.701 578.121C450.908 573.669 449.228 568.625 446.677 563.368L446.673 563.36L446.67 563.352L443.348 556.387L443.117 555.906L443.104 555.372L442.699 538.528V538.511C442.578 531.575 442.536 527.279 442.641 524.75C442.691 523.538 442.78 522.491 442.998 521.719C443.098 521.366 443.323 520.691 443.898 520.137C444.226 519.822 444.666 519.55 445.209 519.424C445.741 519.302 446.22 519.355 446.586 519.455L446.601 519.458L446.614 519.462C447.648 519.758 458.974 523.277 468.842 526.429L472.947 527.748L472.959 527.751L478.631 529.614L480.08 530.09L480.319 531.596L480.887 535.16L480.886 535.161C481.142 536.714 481.758 542.153 482.455 548.489L483.172 555.041L483.173 555.051C484.357 566.355 485.149 572.514 486.157 576.007C486.652 577.72 487.122 578.5 487.494 578.899C487.808 579.236 488.21 579.475 489.07 579.69L489.078 579.692L489.085 579.694C489.611 579.829 489.946 579.826 490.199 579.776C490.45 579.726 490.791 579.595 491.276 579.219C492.214 578.491 493.388 577.096 495.082 574.555L495.84 573.395L495.844 573.39C498.485 569.302 503.172 563.782 508.253 558.49C513.345 553.186 518.975 547.964 523.575 544.494V544.493C536.954 534.343 555.983 526.296 574.849 522.731L576.674 522.4L576.688 522.398C584.999 521.001 588.659 520.695 598.94 521L601.088 521.069H601.092C610.191 521.394 617.593 522.046 622.606 523.15L622.605 523.152C633.754 525.547 650.846 531.52 662.89 537.167L662.891 537.167C665.789 538.494 668.57 539.713 670.734 540.596C671.82 541.039 672.724 541.387 673.398 541.62C673.714 541.728 673.953 541.803 674.123 541.85C674.217 541.819 674.343 541.769 674.488 541.692C674.829 541.512 675.133 541.276 675.313 541.078L675.324 541.065L675.336 541.053C675.545 540.829 676.144 540.167 675.301 536.032C674.587 532.534 673.003 527.235 670.276 518.888L669.037 515.121L669.035 515.116C666.491 507.366 664.964 502.566 664.19 499.588C663.809 498.12 663.566 496.934 663.514 495.993C663.464 495.111 663.54 493.807 664.539 492.808L664.664 492.683L664.807 492.577C665.567 492.007 674.363 486.343 684.352 480.143V480.144C705.928 466.701 716.134 460.378 720.987 456.827C723.473 455.007 724.167 454.178 724.383 453.776C724.52 453.521 724.491 453.554 724.491 452.062C724.491 450.896 724.276 450.307 723.965 449.872C723.609 449.374 722.913 448.778 721.395 448.013C721.379 448.007 721.359 447.999 721.333 447.99C721.217 447.949 721.045 447.89 720.811 447.814C720.345 447.662 719.686 447.456 718.85 447.2C717.178 446.687 714.836 445.986 711.993 445.146C706.31 443.467 698.652 441.239 690.416 438.866C673.939 434.119 655.18 428.799 645.317 426.132L645.309 426.13L645.301 426.128C642.384 425.319 629.258 421.674 616.133 418.03C609.572 416.208 602.464 414.246 596.298 412.545L582.112 408.639C571.575 405.753 564.409 404.965 559.598 405.833L559.14 405.921C555.82 406.628 552.349 407.976 538.991 416.343C525.68 424.681 502.826 439.801 460.844 467.748H460.845C445.293 478.11 432.525 486.726 423.588 492.889C419.117 495.973 415.619 498.433 413.216 500.187C412.011 501.067 411.104 501.751 410.494 502.241C410.262 502.427 410.092 502.573 409.972 502.679C409.565 503.64 409.468 504.295 409.509 504.766C409.548 505.227 409.738 505.761 410.387 506.458C411.859 508.038 415.087 509.848 421.262 512.341L421.261 512.342L430.166 515.901L431.709 516.518L431.737 518.179L431.98 532.27V532.277C432.216 548.457 431.416 555.783 428.078 562.797L427.747 563.475C424.811 569.345 422.425 578.585 422.42 583.959C422.457 588.781 423.959 592.353 426.432 594.726C428.915 597.109 432.67 598.565 437.745 598.565Z" fill="white" stroke="white" stroke-width="5"/>
<path d="M632.05 752.276C632.137 752.273 632.263 752.264 632.437 752.236C633.522 752.061 635.31 751.417 638.419 750.044L639.834 749.411C656.489 741.705 673.269 727.447 683.351 712.48L683.826 711.766L683.832 711.757C691.684 699.946 696.256 689.144 699.105 675.696L699.109 675.676C700.103 671.171 700.631 663.474 700.631 655.615C700.631 648.245 700.166 641.041 699.291 636.493L699.11 635.619L699.108 635.61C692.245 604.194 672.66 578.592 644.984 564.613L643.66 563.957C634.308 559.47 628.908 557.478 620.791 555.686L619.128 555.33L619.124 555.329C615.49 554.564 609.342 554.002 603.043 553.781C597.135 553.573 591.334 553.674 587.581 554.127L586.858 554.223L586.847 554.224L585.54 554.419C578.847 555.479 569.867 557.785 563.873 560.004H563.872C535.648 570.657 512.132 595.734 503.347 624.439L502.939 625.809L502.938 625.815L502.641 626.853C490.308 670.81 507.335 715.975 545.902 741.255L545.914 741.263C550.963 744.615 556.924 747.742 561.795 749.812C564.239 750.85 566.33 751.589 567.853 751.966C568.133 752.036 568.381 752.088 568.596 752.128C568.719 751.613 568.868 750.975 569.037 750.219C569.539 747.97 570.218 744.753 571.027 740.8C572.24 734.874 573.739 727.319 575.352 718.945L576.996 710.328L576.997 710.322C582.099 683.69 584.919 669.049 586.656 660.684C588.372 652.421 589.075 650.015 590.018 648.129L590.026 648.113L590.034 648.097C591.223 645.805 592.49 643.922 594.098 642.625C595.805 641.249 597.716 640.674 599.869 640.674C602.689 640.674 605.159 642.064 607.069 644.146C608.97 646.218 610.425 649.07 611.352 652.379L611.35 652.38C611.778 653.81 612.912 659.048 614.37 666.157C615.871 673.475 617.756 682.978 619.661 692.904L619.662 692.903C623.632 713.228 626.525 727.729 628.557 737.397C629.573 742.233 630.37 745.841 630.976 748.358C631.279 749.618 631.528 750.583 631.729 751.281C631.83 751.63 631.914 751.894 631.98 752.085C632.012 752.176 632.035 752.238 632.05 752.276ZM537.851 636.966C535.311 637.386 533.499 637.448 531.902 636.7V636.701C530.711 636.154 529.703 635.283 529.083 634.026C528.485 632.814 528.358 631.47 528.481 630.139C528.721 627.558 529.97 624.341 531.935 620.497V620.498C538.347 607.687 547.527 597.692 559.866 590.02L561.071 589.285C568.637 584.748 581.525 580.167 589.759 579.149V579.15C597.751 578.094 609.475 578.759 617.124 580.647L617.852 580.833L617.855 580.834C631.14 584.397 643.71 591.56 653.462 601.131L654.396 602.065C659.193 606.942 663.433 612.512 666.419 617.619C667.912 620.172 669.118 622.656 669.919 624.917C670.697 627.114 671.171 629.318 670.983 631.246H670.985C670.886 632.374 670.711 633.833 669.941 635.018C669 636.468 667.535 637.048 665.998 637.182C664.587 637.305 662.838 637.087 660.762 636.696C659.168 636.395 657.247 635.965 654.944 635.418L652.512 634.833C629.023 629.14 618.823 627.704 600.752 627.62L598.979 627.616H598.968C588.941 627.575 582.723 627.74 576.137 628.617C570.354 629.387 564.237 630.712 554.979 632.986L550.81 634.02L550.806 634.021L546.479 635.083C542.56 636.031 539.822 636.64 537.851 636.966ZM637.059 720.986C636.03 720.986 634.962 720.856 633.942 720.423C632.884 719.974 632.026 719.261 631.346 718.321C630.101 716.599 629.451 714.087 628.927 710.993C626.744 698.86 631.362 685.173 640.727 675.898V675.897C646.217 670.451 652.493 666.099 658.1 663.543C660.898 662.268 663.626 661.395 666.071 661.103C668.463 660.817 670.955 661.047 672.883 662.452L672.882 662.453C674.987 663.982 675.402 666.75 675.359 669.056C675.313 671.568 674.708 674.595 673.721 677.817C671.8 684.086 668.288 691.56 663.792 698.34L663.354 698.995L663.349 699.002L662.641 700.017C659.032 705.088 654.407 710.057 650.015 713.849C647.672 715.872 645.344 717.605 643.225 718.847C641.205 720.031 639.018 720.986 637.059 720.986ZM566.162 719.869C564.258 720.573 562.063 720.318 560.036 719.689C557.804 718.996 555.37 717.727 552.92 716.011C550.749 714.519 547.663 711.626 544.759 708.581C541.829 705.509 538.896 702.083 537.05 699.423L537.044 699.415L537.037 699.405C531.676 691.535 526.255 678.651 524.81 669.99C524.47 667.977 524.599 665.979 525.578 664.31C526.598 662.572 528.286 661.615 530.169 661.249C533.477 660.605 537.901 661.655 542.882 663.856L543.886 664.311L543.895 664.315C553.949 669.044 563.556 677.821 568.064 686.816L568.065 686.815C570.777 692.102 571.989 699.34 571.915 705.488C571.878 708.579 571.515 711.544 570.771 713.961C570.095 716.154 568.912 718.525 566.757 719.611L566.545 719.711L566.539 719.714L566.162 719.869Z" fill="white" stroke="white" stroke-width="5"/>
<path d="M597.28 701.314C598.316 702.061 599.861 702.295 601.293 701.946C602.796 701.58 603.403 700.809 603.511 700.347L603.525 700.286L603.542 700.226C603.544 700.215 603.557 700.16 603.573 700.044C603.592 699.91 603.61 699.732 603.625 699.506C603.655 699.052 603.668 698.47 603.662 697.775C603.651 696.389 603.567 694.656 603.423 692.795C603.133 689.053 602.618 684.968 602.045 682.333L602.041 682.317C601.627 680.351 600.881 679.36 600.367 678.999C600.14 678.84 599.964 678.801 599.818 678.802C599.663 678.803 599.379 678.851 598.961 679.122L598.931 679.142L598.9 679.16L598.837 679.235C598.684 679.433 598.292 680.077 597.909 681.868C597.496 683.802 597.185 686.595 596.952 690.532L596.856 692.291V692.292L596.699 695.545C596.574 698.319 596.548 699.745 596.657 700.594C596.679 700.762 596.702 700.865 596.718 700.921C596.774 700.965 596.909 701.065 597.204 701.262L597.242 701.287L597.28 701.314Z" fill="white" stroke="white" stroke-width="5"/>
<path d="M601.167 758.5C603.921 758.5 605.143 758.424 605.841 758.245C606.109 758.176 606.221 758.108 606.295 758.055C606.397 757.981 606.55 757.841 606.84 757.483L606.851 757.469L606.862 757.455C607.223 757.022 607.393 756.725 607.508 756.341C607.64 755.898 607.743 755.186 607.711 753.875C607.645 751.194 607.05 746.783 605.826 738.629C604.81 732.086 604.1 728.157 603.435 725.725C602.754 723.239 602.265 722.922 602.151 722.848L602.13 722.834C602.216 722.891 602.091 722.794 601.59 722.719C601.15 722.652 600.603 722.63 600.044 722.662C599.48 722.695 598.991 722.778 598.652 722.878C598.588 722.897 598.537 722.915 598.497 722.93C598.053 723.523 597.558 724.546 597.005 726.86C596.399 729.397 595.786 733.191 594.975 739.148H594.974C593.868 747.374 593.383 751.588 593.447 754.062C593.478 755.243 593.635 755.801 593.78 756.119C593.918 756.42 594.131 756.707 594.692 757.232L594.701 757.24L594.709 757.248C595.406 757.913 595.736 758.096 596.314 758.233C597.135 758.427 598.434 758.5 601.167 758.5Z" fill="white" stroke="white" stroke-width="5"/>
</svg>
